<?xml version="1.0" standalone="no"?>
<!DOCTYPE svg PUBLIC "-//W3C//DTD SVG 1.1//EN" "http://www.w3.org/Graphics/SVG/1.1/DTD/svg11.dtd" >
<svg>
<metadata>
Created by FontForge 20120731 at Fri Jan  8 23:37:08 2021
 By www
Copyright (c) 2015 by TypeFaith Fonts. All rights reserved.
</metadata>
<defs>
<font id="PinkhoffCaps-Bold" horiz-adv-x="1671" >
  <font-face 
    font-family="Pinkhoff Caps"
    font-weight="700"
    font-variant="small-caps"
    font-stretch="normal"
    units-per-em="2048"
    panose-1="0 0 0 0 0 0 0 0 0 0"
    ascent="1638"
    descent="-410"
    x-height="1567"
    cap-height="1567"
    bbox="-125 -582 2947 2231"
    underline-thickness="102"
    underline-position="-103"
    unicode-range="U+000D-F8FF"
  />
<missing-glyph horiz-adv-x="625" 
 />
    <glyph glyph-name=".notdef" horiz-adv-x="625" 
 />
    <glyph glyph-name=".null" horiz-adv-x="0" 
 />
    <glyph glyph-name=".null" horiz-adv-x="0" 
 />
    <glyph glyph-name="uni000D" unicode="&#xd;" horiz-adv-x="512" 
 />
    <glyph glyph-name="space" unicode=" " horiz-adv-x="532" 
 />
    <glyph glyph-name="exclam" unicode="!" horiz-adv-x="580" 
d="M123 1567h338l-21 -1026h-297zM94 160q0 41 15.5 76.5t42 61.5t62 41.5t76.5 15.5t76.5 -15.5t62 -41.5t41.5 -61.5t15 -76.5q0 -42 -15 -78t-41.5 -62.5t-62 -42t-76.5 -15.5t-76.5 15.5t-62 42t-42 62.5t-15.5 78z" />
    <glyph glyph-name="numbersign" unicode="#" horiz-adv-x="1391" 
d="M61 502h198l82 531h-157v245h195l44 289h215l-44 -289h309l46 289h215l-46 -289h150v-245h-186l-82 -531h145v-246h-184l-39 -256h-215l39 256h-309l-39 -256h-215l39 256h-161v246zM474 502h311l82 531h-311z" />
    <glyph glyph-name="dollar" unicode="$" horiz-adv-x="1266" 
d="M61 474h338q-1 -52 16.5 -92t49 -67.5t73.5 -42t90 -14.5q49 0 91.5 14.5t75 40t51.5 60.5t21 76q3 44 -18.5 77.5t-57.5 59.5t-82.5 44.5t-94.5 33.5t-92.5 26.5t-77.5 22.5q-74 26 -139.5 60t-114 84.5t-77 121.5t-28.5 171q0 81 33.5 151.5t92 127t138.5 96.5t172 59
v227h245v-220q96 -14 176.5 -56t138.5 -107t89 -150t28 -186h-319q1 58 -18.5 99.5t-52 68t-75 39t-86.5 12.5q-42 0 -82.5 -11t-72 -31t-50.5 -48.5t-19 -63.5q-1 -43 21 -76t58.5 -58t83 -44t94 -34t91.5 -27t76 -24q75 -27 141 -61.5t115 -87t77 -127.5t25 -181
q-3 -91 -37 -166.5t-92.5 -133.5t-138 -97t-171.5 -57v-227h-245v220q-100 14 -186 56t-147.5 107t-95.5 150t-31 185z" />
    <glyph glyph-name="percent" unicode="%" horiz-adv-x="2058" 
d="M61 1186q0 90 34 168.5t92.5 137t137 92.5t168.5 34t169 -34t137.5 -92.5t92 -137t33.5 -168.5t-33.5 -169t-92 -137.5t-137.5 -92t-169 -33.5t-168.5 33.5t-137 92t-92.5 137.5t-34 169zM1565 829q90 0 168.5 -33.5t137 -92t92.5 -137t34 -168.5t-34 -169t-92.5 -137.5
t-137 -92t-168.5 -33.5t-169 33.5t-137.5 92t-92 137.5t-33.5 169t33.5 168.5t92 137t137.5 92t169 33.5zM1350 1731l220 -110l-865 -1776l-222 106zM1362 398q0 -42 16 -78.5t44 -64.5t64.5 -44t78.5 -16t78.5 16t64.5 44t44 64.5t16 78.5t-16 78.5t-44 64.5t-64.5 44
t-78.5 16t-78.5 -16t-64.5 -44t-44 -64.5t-16 -78.5zM493 983q42 0 78.5 16t64.5 44t44 64.5t16 78.5t-16 78.5t-44 64.5t-64.5 44t-78.5 16t-78.5 -16t-64.5 -44t-44 -64.5t-16 -78.5t16 -78.5t44 -64.5t64.5 -44t78.5 -16z" />
    <glyph glyph-name="ampersand" unicode="&#x26;" horiz-adv-x="1483" 
d="M389 910q-31 33 -58.5 65t-49 68t-34.5 77t-15 92q-3 80 27.5 150t85.5 122.5t129.5 82.5t160.5 30t162.5 -30t134.5 -82.5t93 -122.5t38 -150q2 -66 -17 -120t-52.5 -99t-78 -82.5t-94.5 -70.5l256 -279q6 27 8.5 55.5t-0.5 59.5h318q5 -106 -19 -199t-72 -173l222 -241
l-210 -194q-62 68 -112 123t-92 102q-88 -60 -195.5 -93t-228.5 -33q-74 0 -148 16t-141 46.5t-125.5 74t-102 98.5t-69 121t-28.5 140q-3 82 21.5 148t67.5 120t100 97.5t118 80.5zM420 473q1 -44 24.5 -83.5t61 -69t84.5 -47t96 -17.5q63 0 120.5 17.5t106.5 50.5
q-36 41 -70.5 79.5t-73 81.5t-84 94t-103.5 116q-35 -23 -65 -47.5t-52 -51.5t-34 -57.5t-11 -65.5zM534 1200q2 -24 12 -45t24.5 -40.5t31.5 -37t33 -34.5q62 37 99 74.5t36 82.5q-1 24 -11 45t-26.5 37.5t-38.5 26t-47 9.5q-24 0 -45 -9.5t-36.5 -26t-24 -37.5t-7.5 -45z
" />
    <glyph glyph-name="quotesingle" unicode="'" horiz-adv-x="365" 
d="M73 1649h217l-27 -563h-161z" />
    <glyph glyph-name="parenleft" unicode="(" horiz-adv-x="761" 
d="M679 1913v-104q-18 0 -38 -3.5t-39.5 -16t-37.5 -36.5t-32 -65t-22 -101.5t-8 -146.5v-1356q0 -86 8 -146.5t22 -101.5t32 -65t37.5 -36.5t39.5 -16t38 -3.5v-104q-25 0 -73.5 -0.5t-105.5 10.5t-116.5 38.5t-108.5 83t-80 145t-31 223.5v1302q0 134 31 223t80 144.5
t108.5 83.5t116.5 38.5t105.5 10.5h73.5z" />
    <glyph glyph-name="parenright" unicode=")" horiz-adv-x="761" 
d="M82 1913h74t105 -10.5t116.5 -38.5t108.5 -83.5t80 -144.5t31 -223v-1302q0 -101 -18 -176t-48 -129t-70 -89.5t-83.5 -57t-88 -32t-84 -14t-72 -3t-51.5 0.5v104q27 0 58 9.5t57.5 46.5t44 111t17.5 202v1356q0 128 -17.5 202t-44 111t-57.5 46.5t-58 9.5v104z" />
    <glyph glyph-name="asterisk" unicode="*" horiz-adv-x="1015" 
d="M328 1208l-256 127l109 187l237 -158l-19 285h217l-19 -285l239 158l108 -187l-256 -127l256 -126l-108 -188l-239 159l19 -285h-217l19 285l-237 -159l-109 188z" />
    <glyph glyph-name="plus" unicode="+" horiz-adv-x="1159" 
d="M457 626v294h246v-294h312v-245h-312v-292h-246v292h-314v245h314z" />
    <glyph glyph-name="comma" unicode="," horiz-adv-x="502" 
d="M60 160q0 41 15 76.5t41.5 61.5t62 41.5t77.5 15.5q41 0 75 -15.5t58 -41.5t37.5 -61.5t13.5 -76.5q0 -53 -10 -108t-25 -108.5t-32.5 -102.5t-31.5 -90h-160l10 222q-59 20 -95 70.5t-36 116.5z" />
    <glyph glyph-name="hyphen" unicode="-" horiz-adv-x="850" 
d="M707 635v-246h-564v246h564z" />
    <glyph glyph-name="period" unicode="." horiz-adv-x="510" 
d="M60 160q0 41 15 76.5t41.5 61.5t62 41.5t77.5 15.5q41 0 76.5 -15.5t62 -41.5t41.5 -61.5t15 -76.5q0 -42 -15 -78t-41.5 -62.5t-62 -42t-76.5 -15.5q-42 0 -77.5 15.5t-62 42t-41.5 62.5t-15 78z" />
    <glyph glyph-name="slash" unicode="/" horiz-adv-x="840" 
d="M532 1737l239 -58l-450 -1923l-239 56z" />
    <glyph glyph-name="zero" unicode="0" horiz-adv-x="1393" 
d="M123 1065q0 127 45 226t122.5 167t182 103.5t223.5 35.5t223.5 -35.5t182.5 -103.5t123 -167t45 -226v-563q0 -127 -45 -226t-123 -167t-182.5 -104t-223.5 -36t-223.5 36t-182 104t-122.5 167t-45 226v563zM461 1075v-583q0 -57 18.5 -101t50 -74t74.5 -45.5t92 -15.5
q50 0 93 15.5t74.5 45.5t50 74t18.5 101v583q0 57 -18.5 101t-50 74t-74.5 45.5t-93 15.5q-49 0 -92 -15.5t-74.5 -45.5t-50 -74t-18.5 -101z" />
    <glyph glyph-name="one" unicode="1" horiz-adv-x="782" 
d="M249 1280h-167v287h505v-1567h-338v1280z" />
    <glyph glyph-name="two" unicode="2" horiz-adv-x="1302" 
d="M53 1056q0 112 45 210.5t122.5 172t182 116t222.5 42.5t222 -42.5t181.5 -116t122.5 -172t45 -210.5q0 -100 -37.5 -185.5t-95.5 -160.5q-27 -34 -65.5 -85t-79.5 -104t-79 -101.5t-64 -79.5q-21 -24 -36 -39q-8 -8 -15 -14h476v-287h-1127q138 170 270 330
q56 69 116 142t118 144.5t111.5 136.5t96.5 117q31 39 52 85t21 101q0 53 -18.5 99t-50 81t-74 55t-90.5 20q-49 0 -91.5 -20t-74 -55t-50 -81t-18.5 -99h-338z" />
    <glyph glyph-name="three" unicode="3" horiz-adv-x="1256" 
d="M51 510h338q0 -52 18.5 -98.5t50 -81t74 -54.5t91.5 -20q48 0 90.5 20t74.5 54.5t50.5 81t18.5 98.5q0 74 -25 124.5t-68 82t-100 45t-121 13.5l160 505h-568v287h1020l-233 -596q61 -35 111.5 -84t86.5 -108t55.5 -127t19.5 -142q0 -112 -45 -210.5t-122.5 -172
t-181.5 -116t-223 -42.5q-118 0 -222.5 42.5t-182 116t-122.5 172t-45 210.5z" />
    <glyph glyph-name="four" unicode="4" horiz-adv-x="1376" 
d="M0 256l707 1311h385l-558 -1024h336v256h338v-256h147v-287h-147v-256h-338v256h-870z" />
    <glyph glyph-name="five" unicode="5" horiz-adv-x="1246" 
d="M51 510h338q0 -52 18.5 -98.5t50 -81t74 -54.5t91.5 -20q48 0 90.5 20t74.5 54.5t50.5 81t18.5 98.5q0 53 -18.5 100t-50.5 81.5t-74.5 54.5t-90.5 20q-58 0 -105 -27t-79 -72l-232 215l68 685h828v-287h-521l-21 -234q16 2 31 3.5t31 1.5q119 0 223 -42.5t181.5 -116
t122.5 -172t45 -210.5t-45 -210.5t-122.5 -172t-181.5 -116t-223 -42.5q-118 0 -222.5 42.5t-182 116t-122.5 172t-45 210.5z" />
    <glyph glyph-name="six" unicode="6" horiz-adv-x="1246" 
d="M41 510q0 78 18.5 142.5t49.5 124t70 116t79 117.5l370 557h398l-338 -521q104 -13 194.5 -59.5t157.5 -118t105.5 -163.5t38.5 -195q0 -112 -45 -210.5t-122.5 -172t-181.5 -116t-222 -42.5t-222.5 42.5t-182 116t-122.5 172t-45 210.5zM379 510q0 -52 18.5 -98.5
t50 -81t74 -54.5t91.5 -20q48 0 90.5 20t74.5 54.5t50.5 81t18.5 98.5t-18.5 98.5t-50.5 81t-74.5 55t-90.5 20.5q-49 0 -91.5 -20.5t-74 -55t-50 -81t-18.5 -98.5z" />
    <glyph glyph-name="seven" unicode="7" horiz-adv-x="1082" 
d="M137 0l486 1280h-582v287h1041l-582 -1567h-363z" />
    <glyph glyph-name="eight" unicode="8" horiz-adv-x="1309" 
d="M43 447q0 58 15.5 111t44.5 99.5t70 86.5t92 73q-45 31 -79.5 70.5t-58 85t-35.5 95.5t-12 101q0 93 44.5 175t120.5 142.5t177 96t213 35.5q113 0 213.5 -35.5t176.5 -96t120.5 -142.5t44.5 -175q0 -51 -12 -101t-35.5 -95.5t-58 -85t-79.5 -70.5q51 -33 92 -73
t70 -86.5t44.5 -99.5t15.5 -111q0 -99 -48 -186t-129.5 -152t-188.5 -102.5t-226 -37.5q-79 0 -153.5 17t-140.5 48t-120.5 75t-94 97t-61.5 114t-22 127zM381 471q0 -45 21.5 -84t57 -68t81 -46t94.5 -17t94.5 17t81 46t57 68t21.5 84q0 46 -21.5 86t-57 69t-81 46
t-94.5 17t-94.5 -17t-81 -46t-57 -69t-21.5 -86zM401 1135q0 -39 19.5 -74.5t51.5 -62t74.5 -42.5t88.5 -16t88.5 16t74.5 42.5t51.5 62t19.5 74.5q0 40 -19.5 75.5t-51.5 62.5t-74.5 42.5t-88.5 15.5t-88.5 -15.5t-74.5 -42.5t-51.5 -62.5t-19.5 -75.5z" />
    <glyph glyph-name="nine" unicode="9" horiz-adv-x="1246" 
d="M633 1599q119 0 223 -42t181.5 -115.5t122.5 -172t45 -211.5q0 -77 -18.5 -141.5t-49.5 -123t-70.5 -115t-80.5 -118.5l-370 -560h-398l338 522q-104 13 -194.5 60t-157 118.5t-105 163.5t-38.5 194q0 113 45 211.5t122.5 172t182 115.5t222.5 42zM399 1058
q0 -52 18.5 -97.5t50 -80t74 -54.5t91.5 -20q48 0 90.5 20t74.5 54.5t50.5 80t18.5 97.5q0 53 -18.5 99t-50.5 80.5t-74.5 54.5t-90.5 20q-49 0 -91.5 -20t-74 -54.5t-50 -80.5t-18.5 -99z" />
    <glyph glyph-name="colon" unicode=":" horiz-adv-x="512" 
d="M60 160q0 41 15 76.5t41.5 61.5t62 41.5t77.5 15.5q41 0 76.5 -15.5t62 -41.5t41.5 -61.5t15 -76.5q0 -42 -15 -78t-41.5 -62.5t-62 -42t-76.5 -15.5q-42 0 -77.5 15.5t-62 42t-41.5 62.5t-15 78zM60 729q0 41 15 76.5t41.5 61.5t62 41t77.5 15q41 0 76.5 -15t62 -41
t41.5 -61.5t15 -76.5q0 -42 -15 -78t-41.5 -62.5t-62 -41.5t-76.5 -15q-42 0 -77.5 15t-62 41.5t-41.5 62.5t-15 78z" />
    <glyph glyph-name="semicolon" unicode=";" horiz-adv-x="512" 
d="M60 160q0 41 15 76.5t41.5 61.5t62 41.5t77.5 15.5q41 0 75 -15.5t58 -41.5t37.5 -61.5t13.5 -76.5q0 -53 -10 -108t-25 -108.5t-32.5 -102.5t-31.5 -90h-160l10 222q-59 20 -95 70.5t-36 116.5zM60 729q0 41 15 76.5t41.5 61.5t62 41t77.5 15q41 0 76.5 -15t62 -41
t41.5 -61.5t15 -76.5q0 -42 -15 -78t-41.5 -62.5t-62 -41.5t-76.5 -15q-42 0 -77.5 15t-62 41.5t-41.5 62.5t-15 78z" />
    <glyph glyph-name="less" unicode="&#x3c;" horiz-adv-x="1154" 
d="M1010 949v-260l-558 -187l558 -185v-257l-867 336v217z" />
    <glyph glyph-name="equal" unicode="=" horiz-adv-x="1159" 
d="M1015 444v-246h-872v246h872zM1015 809v-246h-872v246h872z" />
    <glyph glyph-name="greater" unicode="&#x3e;" horiz-adv-x="1154" 
d="M1010 613v-217l-867 -336v257l557 185l-557 187v260z" />
    <glyph glyph-name="question" unicode="?" horiz-adv-x="1184" 
d="M102 1099q0 113 44.5 204.5t118 157t167 101t191.5 35.5q97 0 190.5 -35.5t166.5 -101t118 -157t45 -204.5q0 -76 -18 -129.5t-47.5 -91.5t-67 -64.5t-76.5 -49t-76 -45t-66 -51.5t-46 -69t-16 -99h-257q-7 65 -2 115.5t18.5 90.5t33.5 70t42 53q24 24 51.5 42t55.5 35
t54 35t46.5 40.5t32.5 52t12 70.5q0 40 -14 77t-39.5 65.5t-61 45.5t-79.5 17q-42 0 -78 -16.5t-62 -45t-40.5 -66.5t-14.5 -82h-326zM406 160q0 41 15 76.5t41.5 61.5t62.5 41.5t77 15.5t76.5 -15.5t61.5 -41.5t41.5 -61.5t15.5 -76.5q0 -42 -15.5 -78t-41.5 -62.5
t-61.5 -42t-76.5 -15.5t-77 15.5t-62.5 42t-41.5 62.5t-15 78z" />
    <glyph glyph-name="at" unicode="@" horiz-adv-x="2062" 
d="M31 631q0 133 35.5 256.5t100.5 231t156.5 195.5t204 151t243 97.5t273.5 34.5q135 0 259 -34.5t231 -97.5t194 -151t149 -195.5t96 -231t34 -256.5q0 -141 -33 -242.5t-89.5 -167t-132 -96.5t-161.5 -31q-66 0 -126 16t-113 47q-67 -36 -143 -54.5t-154 -20.5
q-127 -3 -233 39t-182 117t-118 178t-42 221t42.5 219t119 175.5t182 116.5t231.5 42q108 0 204 -42t176 -110l2 -533q0 -41 12 -75t33 -58t49 -37.5t60 -13.5q41 0 72.5 16t53.5 52t33 95.5t11 146.5q0 100 -25 192.5t-71 172.5t-111 145.5t-145 112.5t-172 72.5t-193 25.5
q-107 0 -206 -25.5t-184.5 -72.5t-155 -112.5t-119 -145.5t-76.5 -172.5t-27 -192.5t27 -192t76 -172.5t118 -146.5t153.5 -113t181 -73t201.5 -26q63 0 123 9.5t117 27.5l79 -232q-76 -24 -155 -37.5t-164 -13.5q-138 0 -266 34.5t-239.5 97.5t-203 151.5t-156.5 196.5
t-101 231.5t-36 257.5zM817 637q0 -52 12.5 -103.5t41 -92t74 -66t110.5 -25.5q32 0 61 7.5t55 23.5q-11 35 -16.5 70.5t-5.5 74.5v373q-22 11 -46 16t-48 5q-64 0 -109.5 -25.5t-74 -66t-41.5 -91t-13 -100.5z" />
    <glyph glyph-name="A" unicode="A" horiz-adv-x="1289" 
d="M616 1597h58l635 -1597h-358l-67 184h-481l-65 -184h-358zM492 430h307l-89 246l-56 188h-17l-57 -188z" />
    <glyph glyph-name="B" unicode="B" horiz-adv-x="1379" 
d="M123 0v1567h625q78 0 146.5 -29.5t120 -80.5t81 -120t29.5 -147q0 -87 -36 -159q52 -40 94 -90.5t72 -109t46.5 -124t16.5 -135.5q0 -119 -45 -223.5t-123 -182t-182.5 -122t-223.5 -44.5h-621zM461 797v-514h215q59 0 114 23t97 63.5t67.5 96t25.5 121.5q0 52 -25.5 105
t-67.5 96.5t-97 71t-114 27.5q-63 0 -118.5 -24t-96.5 -66zM744 1143q27 0 59 -3t50 -7q-1 31 -14 59t-34.5 49.5t-49.5 34.5t-60 13h-234v-217q63 35 134.5 53t148.5 18z" />
    <glyph glyph-name="C" unicode="C" horiz-adv-x="1217" 
d="M831 1597q91 0 166 -14t148 -44l-94 -273q-50 25 -98.5 35t-105.5 10q-99 0 -188 -40t-156 -110.5t-106 -167t-39 -208.5q0 -109 39 -205t106 -168t156 -114t188 -42q57 0 109.5 15t101.5 40l118 -263q-82 -36 -164.5 -57.5t-180.5 -21.5q-112 0 -216 29t-194 82
t-164 127t-126.5 164.5t-81.5 195.5t-29 218t29 217t81.5 194t126.5 164t164 126.5t194 81.5t216 29z" />
    <glyph glyph-name="D" unicode="D" horiz-adv-x="1451" 
d="M123 1567h462q109 0 209.5 -28t188 -79t158.5 -122.5t122 -158.5t78.5 -187.5t27.5 -209.5q0 -108 -28 -208.5t-78.5 -187.5t-122 -158t-158.5 -121.5t-187.5 -78.5t-209.5 -28h-462v1567zM461 287h112q98 0 181.5 39.5t145 107.5t96.5 158t35 190q0 102 -35.5 193
t-97 158.5t-145 107t-180.5 39.5h-112v-993z" />
    <glyph glyph-name="E" unicode="E" horiz-adv-x="1108" 
d="M123 0v1567h903v-287h-563v-604h563v-246h-563v-143h563v-287h-903z" />
    <glyph glyph-name="F" unicode="F" horiz-adv-x="1067" 
d="M1026 1567v-287h-563v-143h563v-246h-563v-891h-340v1567h903z" />
    <glyph glyph-name="G" unicode="G" horiz-adv-x="1444" 
d="M826 1597q110 0 211 -22.5t191 -69.5l-136 -256q-51 30 -110 46t-122 16q-104 0 -195.5 -41.5t-159.5 -113t-107.5 -168t-39.5 -206.5q0 -109 39.5 -204.5t107.5 -167t159.5 -113t195.5 -41.5q50 0 89 8.5t68 22.5v633h334v-756q-106 -91 -240.5 -143t-284.5 -52
q-111 0 -214.5 29t-193 82.5t-163 128t-126 165t-81 195t-28.5 216.5q0 113 28.5 217t81 194t126 164t163 126.5t193 81.5t214.5 29z" />
    <glyph glyph-name="H" unicode="H" horiz-adv-x="1475" 
d="M461 1567v-891h553v891h338v-1567h-338v430h-553v-430h-338v1567h338z" />
    <glyph glyph-name="I" unicode="I" horiz-adv-x="584" 
d="M123 1567h338v-1567h-338v1567z" />
    <glyph glyph-name="J" unicode="J" horiz-adv-x="792" 
d="M679 1567v-830q0 -144 -21 -268t-54.5 -228t-77 -190t-88.5 -153q-107 -158 -242 -263l-66 56q59 89 106 234q20 62 38.5 142.5t33.5 181t24 222.5t9 266v543h-331v287h669z" />
    <glyph glyph-name="K" unicode="K" horiz-adv-x="1282" 
d="M123 0v1567h338v-848l408 848h350l-413 -857q0 -87 33.5 -167t91.5 -141.5t135 -98.5t165 -37v-286h-65q-90 0 -174 23t-159 64.5t-138 99.5t-111.5 128.5t-80 151.5t-42.5 167v-614h-338z" />
    <glyph glyph-name="L" unicode="L" horiz-adv-x="1012" 
d="M123 0v1567h338v-1280h510v-287h-848z" />
    <glyph glyph-name="M" unicode="M" horiz-adv-x="1686" 
d="M123 0v1597h32l688 -749l686 749h34v-1597h-338v771l-372 -402h-20l-372 402v-771h-338z" />
    <glyph glyph-name="N" unicode="N" horiz-adv-x="1463" 
d="M123 0v1597h34l845 -848v818h338v-1598h-36l-843 843v-812h-338z" />
    <glyph glyph-name="O" unicode="O" 
d="M836 1599q113 0 217 -29t194.5 -82t164.5 -127t127 -164.5t82 -194.5t29 -217q0 -112 -29 -216.5t-82 -195t-127 -165t-164.5 -128t-194.5 -82.5t-217 -29q-112 0 -216.5 29t-195 82.5t-165 128t-128 165t-82.5 195t-29 216.5q0 113 29 217t82.5 194.5t128 164.5t165 127
t195 82t216.5 29zM836 256q99 0 185.5 41.5t151 113t102 167t37.5 204.5q0 110 -37.5 206.5t-102 168t-151 113t-185.5 41.5t-186 -41.5t-152 -113t-102.5 -168t-37.5 -206.5q0 -109 37.5 -204.5t102.5 -167t152 -113t186 -41.5z" />
    <glyph glyph-name="P" unicode="P" horiz-adv-x="1381" 
d="M123 0v1567h468q168 0 302.5 -52t229 -142t145.5 -212t51 -263q0 -92 -24.5 -177.5t-69 -160t-107 -136t-139.5 -105.5t-165.5 -68t-185.5 -24q-17 0 -39.5 1.5t-45.5 3.5t-44.5 6t-37.5 8v-246h-338zM461 524q18 -4 44.5 -9t67.5 -5q85 0 159.5 30.5t129.5 83t87 123.5
t32 151q0 81 -30.5 151t-84.5 122t-128 82t-161 30q-22 0 -42.5 -0.5t-37.5 -0.5q-19 -1 -36 -2v-756z" />
    <glyph glyph-name="Q" unicode="Q" horiz-adv-x="1691" 
d="M20 785q0 113 29 217t82.5 194.5t128 164.5t165 127t195 82t216.5 29q113 0 217 -29t194.5 -82t164.5 -127t127 -164.5t82 -194.5t29 -217q0 -135 -40 -255.5t-113 -220.5l138 -137l-203 -203l-140 140q-97 -67 -212.5 -103.5t-243.5 -36.5q-112 0 -216.5 29t-195 82.5
t-165 128t-128 165t-82.5 195t-29 216.5zM836 256q66 0 126 19t113 53l-346 348l203 203l329 -333q25 53 38 113t13 123q0 110 -37.5 206.5t-102 168t-151 113t-185.5 41.5t-186 -41.5t-152 -113t-102.5 -168t-37.5 -206.5q0 -109 37.5 -204.5t102.5 -167t152 -113
t186 -41.5z" />
    <glyph glyph-name="R" unicode="R" horiz-adv-x="1381" 
d="M123 0v1567h468q168 0 302.5 -52t229 -142t145.5 -212t51 -263q0 -79 -18 -153t-51 -140.5t-80.5 -124t-106.5 -103.5q17 -21 38.5 -41t46 -35.5t52.5 -25t58 -9.5v-286h-41q-73 0 -141 20t-127 55t-108.5 81.5t-86.5 100.5q-31 -4 -62 -7t-64 -3q-17 0 -39.5 1.5
t-45.5 3.5t-44.5 6t-37.5 8v-246h-338zM573 510q85 0 159.5 30.5t129.5 83t87 123.5t32 151q0 81 -30.5 151t-84.5 122t-128 82t-161 30q-22 0 -42.5 -0.5t-37.5 -0.5q-19 -1 -36 -2v-756q18 -4 44.5 -9t67.5 -5z" />
    <glyph glyph-name="S" unicode="S" horiz-adv-x="1422" 
d="M266 561q26 -65 65.5 -121t90 -97t110.5 -64t127 -23q79 0 148.5 25t121.5 68t82 101.5t30 124.5t-23.5 121t-65.5 99q-35 37 -77 59t-87.5 36t-93 24t-94 23.5t-89.5 34t-81 54.5q-40 37 -64.5 89.5t-24.5 130.5q0 73 32.5 137t88 111.5t130.5 75t159 27.5
q54 0 107.5 -9.5t97.5 -29.5l-156 -235q-19 10 -42 10q-30 0 -54.5 -17t-24.5 -48q0 -22 11 -37t29 -26q30 -19 68 -24t77 -14q109 -27 203.5 -79t164 -127t109.5 -172.5t40 -216.5q0 -126 -57 -236t-155 -191.5t-228 -128.5t-277 -47q-118 0 -226 34.5t-198.5 96.5
t-162 148.5t-116.5 190.5z" />
    <glyph glyph-name="T" unicode="T" horiz-adv-x="1287" 
d="M1266 1567v-285h-460v-1282h-343v1282h-443v285h1246z" />
    <glyph glyph-name="U" unicode="U" horiz-adv-x="1703" 
d="M82 736v831h338v-862q0 -99 34.5 -181.5t93.5 -142t139 -92.5t170 -33t167.5 33t135 92.5t90.5 142t33 181.5v862h338v-831q0 -190 -60 -333.5t-163.5 -240t-242.5 -145t-298 -48.5q-106 0 -205 21.5t-185 64.5t-157 107.5t-121.5 149.5t-78.5 191t-28 233z" />
    <glyph glyph-name="V" unicode="V" horiz-adv-x="1280" 
d="M-32 1567h367l242 -676l56 -167h16l56 167l240 676h367l-645 -1598h-49z" />
    <glyph glyph-name="W" unicode="W" horiz-adv-x="1702" 
d="M-32 1567h367l204 -676l45 -167h8l249 629h21l251 -629h7l46 167l203 676h365l-505 -1598h-132l-245 642l-241 -642h-131z" />
    <glyph glyph-name="X" unicode="X" horiz-adv-x="1280" 
d="M20 0l434 806l-413 761h350l251 -488l247 488h350l-413 -761l434 -806h-350l-268 509l-272 -509h-350z" />
    <glyph glyph-name="Y" unicode="Y" horiz-adv-x="1157" 
d="M-20 1567h349l251 -488l248 488h350l-430 -790v-777h-338v775z" />
    <glyph glyph-name="Z" unicode="Z" horiz-adv-x="1046" 
d="M985 287v-287h-944l485 1280h-444v287h903l-482 -1280h482z" />
    <glyph glyph-name="bracketleft" unicode="[" horiz-adv-x="792" 
d="M628 1913v-246h-177v-1810h177v-246h-464v2302h464z" />
    <glyph glyph-name="backslash" unicode="\" horiz-adv-x="853" 
d="M532 -244l-450 1923l239 58l450 -1925z" />
    <glyph glyph-name="bracketright" unicode="]" horiz-adv-x="792" 
d="M164 -389v246h177v1810h-177v246h464v-2302h-464z" />
    <glyph glyph-name="underscore" unicode="_" horiz-adv-x="1024" 
d="M1024 -172v-246h-1024v246h1024z" />
    <glyph glyph-name="a" unicode="a" horiz-adv-x="1289" 
d="M616 1597h58l635 -1597h-358l-67 184h-481l-65 -184h-358zM492 430h307l-89 246l-56 188h-17l-57 -188z" />
    <glyph glyph-name="b" unicode="b" horiz-adv-x="1379" 
d="M123 0v1567h625q78 0 146.5 -29.5t120 -80.5t81 -120t29.5 -147q0 -87 -36 -159q52 -40 94 -90.5t72 -109t46.5 -124t16.5 -135.5q0 -119 -45 -223.5t-123 -182t-182.5 -122t-223.5 -44.5h-621zM461 797v-514h215q59 0 114 23t97 63.5t67.5 96t25.5 121.5q0 52 -25.5 105
t-67.5 96.5t-97 71t-114 27.5q-63 0 -118.5 -24t-96.5 -66zM744 1143q27 0 59 -3t50 -7q-1 31 -14 59t-34.5 49.5t-49.5 34.5t-60 13h-234v-217q63 35 134.5 53t148.5 18z" />
    <glyph glyph-name="c" unicode="c" horiz-adv-x="1217" 
d="M831 1597q91 0 166 -14t148 -44l-94 -273q-50 25 -98.5 35t-105.5 10q-99 0 -188 -40t-156 -110.5t-106 -167t-39 -208.5q0 -109 39 -205t106 -168t156 -114t188 -42q57 0 109.5 15t101.5 40l118 -263q-82 -36 -164.5 -57.5t-180.5 -21.5q-112 0 -216 29t-194 82
t-164 127t-126.5 164.5t-81.5 195.5t-29 218t29 217t81.5 194t126.5 164t164 126.5t194 81.5t216 29z" />
    <glyph glyph-name="d" unicode="d" horiz-adv-x="1389" 
d="M123 1567h462q109 0 209.5 -28t188 -79t158.5 -122.5t122 -158.5t78.5 -187.5t27.5 -209.5q0 -108 -28 -208.5t-78.5 -187.5t-122 -158t-158.5 -121.5t-187.5 -78.5t-209.5 -28h-462v1567zM461 287h112q98 0 181.5 39.5t145 107.5t96.5 158t35 190q0 102 -35.5 193
t-97 158.5t-145 107t-180.5 39.5h-112v-993z" />
    <glyph glyph-name="e" unicode="e" horiz-adv-x="1108" 
d="M123 0v1567h903v-287h-563v-604h563v-246h-563v-143h563v-287h-903z" />
    <glyph glyph-name="f" unicode="f" horiz-adv-x="1067" 
d="M1026 1567v-287h-563v-143h563v-246h-563v-891h-340v1567h903z" />
    <glyph glyph-name="g" unicode="g" horiz-adv-x="1440" 
d="M823 1597q110 0 211 -22.5t191 -69.5l-136 -256q-51 30 -110 46t-122 16q-104 0 -195.5 -41.5t-159.5 -113t-107.5 -168t-39.5 -206.5q0 -109 39.5 -204.5t107.5 -167t159.5 -113t195.5 -41.5q50 0 89 8.5t68 22.5v633h334v-756q-106 -91 -240.5 -143t-284.5 -52
q-111 0 -214.5 29t-193 82.5t-163 128t-126 165t-81 195t-28.5 216.5q0 113 28.5 217t81 194t126 164t163 126.5t193 81.5t214.5 29z" />
    <glyph glyph-name="h" unicode="h" horiz-adv-x="1475" 
d="M461 1567v-891h553v891h338v-1567h-338v430h-553v-430h-338v1567h338z" />
    <glyph glyph-name="i" unicode="i" horiz-adv-x="584" 
d="M123 1567h338v-1567h-338v1567z" />
    <glyph glyph-name="j" unicode="j" horiz-adv-x="792" 
d="M679 1567v-830q0 -144 -21 -268t-54.5 -228t-77 -190t-88.5 -153q-107 -158 -242 -263l-66 56q59 89 106 234q20 62 38.5 142.5t33.5 181t24 222.5t9 266v543h-331v287h669z" />
    <glyph glyph-name="k" unicode="k" horiz-adv-x="1282" 
d="M123 0v1567h338v-848l408 848h350l-413 -857q0 -87 33.5 -167t91.5 -141.5t135 -98.5t165 -37v-286h-65q-90 0 -174 23t-159 64.5t-138 99.5t-111.5 128.5t-80 151.5t-42.5 167v-614h-338z" />
    <glyph glyph-name="l" unicode="l" horiz-adv-x="1012" 
d="M123 0v1567h338v-1280h510v-287h-848z" />
    <glyph glyph-name="m" unicode="m" horiz-adv-x="1686" 
d="M123 0v1597h32l688 -749l686 749h34v-1597h-338v771l-372 -402h-20l-372 402v-771h-338z" />
    <glyph glyph-name="n" unicode="n" horiz-adv-x="1463" 
d="M123 0v1597h34l845 -848v818h338v-1598h-36l-843 843v-812h-338z" />
    <glyph glyph-name="o" unicode="o" 
d="M836 1599q113 0 217 -29t194.5 -82t164.5 -127t127 -164.5t82 -194.5t29 -217q0 -112 -29 -216.5t-82 -195t-127 -165t-164.5 -128t-194.5 -82.5t-217 -29q-112 0 -216.5 29t-195 82.5t-165 128t-128 165t-82.5 195t-29 216.5q0 113 29 217t82.5 194.5t128 164.5t165 127
t195 82t216.5 29zM836 256q99 0 185.5 41.5t151 113t102 167t37.5 204.5q0 110 -37.5 206.5t-102 168t-151 113t-185.5 41.5t-186 -41.5t-152 -113t-102.5 -168t-37.5 -206.5q0 -109 37.5 -204.5t102.5 -167t152 -113t186 -41.5z" />
    <glyph glyph-name="p" unicode="p" horiz-adv-x="1381" 
d="M123 0v1567h468q168 0 302.5 -52t229 -142t145.5 -212t51 -263q0 -92 -24.5 -177.5t-69 -160t-107 -136t-139.5 -105.5t-165.5 -68t-185.5 -24q-17 0 -39.5 1.5t-45.5 3.5t-44.5 6t-37.5 8v-246h-338zM461 524q18 -4 44.5 -9t67.5 -5q85 0 159.5 30.5t129.5 83t87 123.5
t32 151q0 81 -30.5 151t-84.5 122t-128 82t-161 30q-22 0 -42.5 -0.5t-37.5 -0.5q-19 -1 -36 -2v-756z" />
    <glyph glyph-name="q" unicode="q" horiz-adv-x="1691" 
d="M20 785q0 113 29 217t82.5 194.5t128 164.5t165 127t195 82t216.5 29q113 0 217 -29t194.5 -82t164.5 -127t127 -164.5t82 -194.5t29 -217q0 -135 -40 -255.5t-113 -220.5l138 -137l-203 -203l-140 140q-97 -67 -212.5 -103.5t-243.5 -36.5q-112 0 -216.5 29t-195 82.5
t-165 128t-128 165t-82.5 195t-29 216.5zM836 256q66 0 126 19t113 53l-346 348l203 203l329 -333q25 53 38 113t13 123q0 110 -37.5 206.5t-102 168t-151 113t-185.5 41.5t-186 -41.5t-152 -113t-102.5 -168t-37.5 -206.5q0 -109 37.5 -204.5t102.5 -167t152 -113
t186 -41.5z" />
    <glyph glyph-name="r" unicode="r" horiz-adv-x="1381" 
d="M123 0v1567h468q168 0 302.5 -52t229 -142t145.5 -212t51 -263q0 -79 -18 -153t-51 -140.5t-80.5 -124t-106.5 -103.5q17 -21 38.5 -41t46 -35.5t52.5 -25t58 -9.5v-286h-41q-73 0 -141 20t-127 55t-108.5 81.5t-86.5 100.5q-31 -4 -62 -7t-64 -3q-17 0 -39.5 1.5
t-45.5 3.5t-44.5 6t-37.5 8v-246h-338zM573 510q85 0 159.5 30.5t129.5 83t87 123.5t32 151q0 81 -30.5 151t-84.5 122t-128 82t-161 30q-22 0 -42.5 -0.5t-37.5 -0.5q-19 -1 -36 -2v-756q18 -4 44.5 -9t67.5 -5z" />
    <glyph glyph-name="s" unicode="s" horiz-adv-x="1422" 
d="M266 561q26 -65 65.5 -121t90 -97t110.5 -64t127 -23q79 0 148.5 25t121.5 68t82 101.5t30 124.5t-23.5 121t-65.5 99q-35 37 -77 59t-87.5 36t-93 24t-94 23.5t-89.5 34t-81 54.5q-40 37 -64.5 89.5t-24.5 130.5q0 73 32.5 137t88 111.5t130.5 75t159 27.5
q54 0 107.5 -9.5t97.5 -29.5l-156 -235q-19 10 -42 10q-30 0 -54.5 -17t-24.5 -48q0 -22 11 -37t29 -26q30 -19 68 -24t77 -14q109 -27 203.5 -79t164 -127t109.5 -172.5t40 -216.5q0 -126 -57 -236t-155 -191.5t-228 -128.5t-277 -47q-118 0 -226 34.5t-198.5 96.5
t-162 148.5t-116.5 190.5z" />
    <glyph glyph-name="t" unicode="t" horiz-adv-x="1287" 
d="M1266 1567v-285h-460v-1282h-343v1282h-443v285h1246z" />
    <glyph glyph-name="u" unicode="u" horiz-adv-x="1703" 
d="M82 736v831h338v-862q0 -99 34.5 -181.5t93.5 -142t139 -92.5t170 -33t167.5 33t135 92.5t90.5 142t33 181.5v862h338v-831q0 -190 -60 -333.5t-163.5 -240t-242.5 -145t-298 -48.5q-106 0 -205 21.5t-185 64.5t-157 107.5t-121.5 149.5t-78.5 191t-28 233z" />
    <glyph glyph-name="v" unicode="v" horiz-adv-x="1280" 
d="M-32 1567h367l242 -676l56 -167h16l56 167l240 676h367l-645 -1598h-49z" />
    <glyph glyph-name="w" unicode="w" horiz-adv-x="1702" 
d="M-32 1567h367l204 -676l45 -167h8l249 629h21l251 -629h7l46 167l203 676h365l-505 -1598h-132l-245 642l-241 -642h-131z" />
    <glyph glyph-name="x" unicode="x" horiz-adv-x="1280" 
d="M20 0l434 806l-413 761h350l251 -488l247 488h350l-413 -761l434 -806h-350l-268 509l-272 -509h-350z" />
    <glyph glyph-name="y" unicode="y" horiz-adv-x="1157" 
d="M-20 1567h349l251 -488l248 488h350l-430 -790v-777h-338v775z" />
    <glyph glyph-name="z" unicode="z" horiz-adv-x="1046" 
d="M985 287v-287h-944l485 1280h-444v287h903l-482 -1280h482z" />
    <glyph glyph-name="braceleft" unicode="{" horiz-adv-x="695" 
d="M-125 864q46 0 86 17.5t70 47.5t47.5 70.5t17.5 85.5v328q0 134 31 223t80 144.5t109 83.5t117.5 38.5t105.5 10.5h74v-104q-27 0 -58.5 -9.5t-58.5 -46.5t-45 -111t-18 -202v-245q0 -67 -16.5 -130t-46.5 -118.5t-72.5 -102.5t-94.5 -83q52 -36 94.5 -82.5t72.5 -101.5
t46.5 -117.5t16.5 -130.5v-245q0 -128 18 -202t45 -111t58.5 -46.5t58.5 -9.5v-104q-26 0 -74 -0.5t-105.5 10.5t-117.5 38.5t-109 83t-80 145t-31 223.5v328q0 45 -17.5 85t-47.5 70t-70 47.5t-86 17.5v205z" />
    <glyph glyph-name="bar" unicode="|" horiz-adv-x="573" 
d="M164 2028h246v-2439h-246v2439z" />
    <glyph glyph-name="braceright" unicode="}" horiz-adv-x="819" 
d="M82 1913h74t105 -10.5t116.5 -38.5t108.5 -83.5t80 -144.5t31 -223v-328q0 -45 17.5 -85.5t48 -70.5t71 -47.5t85.5 -17.5v-205q-45 0 -85.5 -17.5t-71 -47.5t-48 -70t-17.5 -85v-328q0 -101 -18 -176t-48 -129t-70 -89.5t-83.5 -57t-88 -32t-84 -14t-72 -3t-51.5 0.5
v104q27 0 58 9.5t57.5 46.5t44 111t17.5 202v245q0 68 16.5 130.5t47.5 117.5t74 101.5t95 82.5q-52 36 -95 83t-74 102.5t-47.5 118.5t-16.5 130v245q0 128 -17.5 202t-44 111t-57.5 46.5t-58 9.5v104z" />
    <glyph glyph-name="dagger" unicode="&#x2020;" horiz-adv-x="1159" 
d="M457 1253v314h246v-314h312v-246h-312v-1009h-246v1009h-314v246h314z" />
    <glyph glyph-name="degree" unicode="&#xb0;" horiz-adv-x="986" 
d="M61 1186q0 90 34 168.5t92.5 137t137 92.5t168.5 34t169 -34t137.5 -92.5t92 -137t33.5 -168.5t-33.5 -169t-92 -137.5t-137.5 -92t-169 -33.5t-168.5 33.5t-137 92t-92.5 137.5t-34 169zM493 983q42 0 78.5 16t64.5 44t44 64.5t16 78.5t-16 78.5t-44 64.5t-64.5 44
t-78.5 16t-78.5 -16t-64.5 -44t-44 -64.5t-16 -78.5t16 -78.5t44 -64.5t64.5 -44t78.5 -16z" />
    <glyph glyph-name="cent" unicode="&#xa2;" horiz-adv-x="1051" 
d="M41 785q0 109 32 205t91 172t142 128t186 72v205h245v-205q78 -16 147 -50t126 -85l-222 -222q-32 38 -76.5 60t-95.5 22q-63 0 -108 -27t-73.5 -70t-42 -97t-13.5 -108q0 -55 12.5 -110t40.5 -99t73.5 -71t110.5 -27q51 0 95.5 22.5t76.5 60.5l222 -221
q-57 -51 -126 -86t-147 -51v-203h-245v203q-103 20 -186.5 72t-142 129t-90.5 174t-32 207z" />
    <glyph glyph-name="section" unicode="&#xa7;" horiz-adv-x="1348" 
d="M126 676q7 51 27 97t51 85.5t71 71.5t87 56q-69 66 -102.5 148t-22.5 173q10 77 51 141t106 110t149.5 71.5t181.5 25.5q58 0 116 -9t113.5 -27t107 -46.5t95.5 -67.5l-247 -177q-23 24 -56.5 39t-75.5 19q-46 6 -85.5 -3t-69 -29t-47.5 -49.5t-23 -65.5q-5 -37 5 -70
t33.5 -59t58.5 -43.5t80 -22.5q118 -14 214 -58t161.5 -110t96 -149.5t18.5 -175.5q-14 -104 -76 -183.5t-159 -128.5q69 -63 103 -146.5t21 -174.5q-9 -77 -50.5 -141.5t-107 -111t-151 -72t-183.5 -25.5q-57 0 -115 9.5t-113 28.5t-105.5 48t-92.5 68l248 176
q45 -49 131 -60q46 -5 85 3.5t68 29t47.5 50.5t24.5 67q5 36 -5.5 68.5t-34 59t-59 44t-80.5 23.5q-117 13 -212.5 57.5t-161.5 110.5t-97 150t-19 175zM647 422q44 -5 84.5 5.5t73 33t53.5 55t26 71.5q6 41 -6 77.5t-37 65.5t-62 48t-81 24q-43 5 -83 -5.5t-72 -33t-53 -55
t-27 -71.5q-5 -40 7 -77t37 -66t61 -48.5t79 -23.5z" />
    <glyph glyph-name="bullet" unicode="&#x2022;" horiz-adv-x="903" 
d="M82 749q0 76 29 143t79 117.5t117.5 79.5t143.5 29q77 0 144 -29t117.5 -79.5t79.5 -117.5t29 -143q0 -77 -29 -144.5t-79.5 -117.5t-117.5 -79t-144 -29q-76 0 -143.5 29t-117.5 79t-79 117.5t-29 144.5z" />
    <glyph glyph-name="paragraph" unicode="&#xb6;" horiz-adv-x="1505" 
d="M614 1567h768v-1978h-245v1691h-173v-1691h-245v913h-105q-119 0 -223.5 35.5t-182 103.5t-122.5 167t-45 226t45 226t122.5 167.5t182 104t223.5 35.5zM379 1044v-20q0 -57 18.5 -101t50 -74t74.5 -45.5t92 -15.5h105v492h-105q-49 0 -92 -15.5t-74.5 -45.5t-50 -74
t-18.5 -101z" />
    <glyph glyph-name="germandbls" unicode="&#xdf;" horiz-adv-x="1529" 
d="M113 -309q60 89 107 234q20 62 39 142.5t34 181t24 222.5t9 266v830h573q78 0 147 -29.5t120.5 -80.5t81 -120t29.5 -147q0 -18 -2 -38.5t-6.5 -41.5t-11.5 -41.5t-16 -37.5q59 -33 102 -80.5t71 -106t41 -127.5t13 -145q0 -119 -45 -224.5t-123 -183.5t-182.5 -123
t-223.5 -43l-158 2v285h111q59 0 110.5 22t90 60.5t60.5 90.5t22 112q0 69 -32.5 127t-81 107.5t-104.5 93t-103 83.5q3 3 16.5 13t31.5 25.5t38.5 35.5t37.5 42t28.5 45t11.5 46q0 19 -7 36t-20 29.5t-30 19.5t-37 7h-215v-543q0 -144 -21 -268t-54.5 -228t-77 -190
t-88.5 -153q-107 -158 -242 -263z" />
    <glyph glyph-name="registered" unicode="&#xae;" horiz-adv-x="1792" 
d="M82 782q0 113 29 217t82 194.5t127.5 165t164.5 127.5t193.5 82t215.5 29q113 0 217 -29t195 -82t165.5 -127.5t127.5 -165t82 -194.5t29 -217q0 -112 -29 -215.5t-82 -194t-127.5 -164.5t-165.5 -127.5t-195 -82.5t-217 -29q-112 0 -215.5 29t-193.5 82.5t-164.5 127.5
t-127.5 164.5t-82 194t-29 215.5zM258 782q0 -87 23 -168.5t64.5 -152t99.5 -129t128.5 -100t152 -64.5t168.5 -23q89 0 170.5 23t152.5 64.5t129.5 100t100 129t64.5 152t23 168.5q0 88 -23 170t-64.5 153t-100 129.5t-129.5 100t-153 64.5t-170 23q-87 0 -168.5 -23
t-152 -64.5t-128.5 -100t-99.5 -129.5t-64.5 -153t-23 -170zM587 1236h273q98 0 176 -27t133 -74t84.5 -110.5t29.5 -137.5q0 -90 -47 -166.5t-128 -124.5l160 -272h-230l-125 212h-31q-22 0 -50.5 3t-46.5 7v-222h-198v912zM785 1073v-389q11 -1 25.5 -4.5t39.5 -3.5
q50 0 93 13.5t75 39.5t50.5 63.5t18.5 84.5q0 48 -18 84.5t-49.5 62t-74.5 38.5t-93 13h-25t-22 -1q-11 0 -20 -1z" />
    <glyph glyph-name="copyright" unicode="&#xa9;" horiz-adv-x="1792" 
d="M894 1597q113 0 217 -29t195 -82t165.5 -127.5t127.5 -165t82 -194.5t29 -217q0 -112 -29 -215.5t-82 -194t-127.5 -164.5t-165.5 -127.5t-195 -82.5t-217 -29q-112 0 -215.5 29t-193.5 82.5t-164.5 127.5t-127.5 164.5t-82 194t-29 215.5q0 113 29 217t82 194.5
t127.5 165t164.5 127.5t193.5 82t215.5 29zM894 145q89 0 170.5 23t152.5 64.5t129.5 100t100 129t64.5 152t23 168.5q0 88 -23 170t-64.5 153t-100 129.5t-129.5 100t-153 64.5t-170 23q-87 0 -168.5 -23t-152 -64.5t-128.5 -100t-99.5 -129.5t-64.5 -153t-23 -170
q0 -87 23 -168.5t64.5 -152t99.5 -129t128.5 -100t152 -64.5t168.5 -23zM432 782q0 100 37.5 187t102.5 152t152 102.5t187 37.5t187 -37t153 -101l-126 -128q-43 42 -97.5 65.5t-114.5 23.5q-59 0 -110.5 -22.5t-89.5 -62.5t-60 -95.5t-22 -121.5q0 -63 21.5 -118.5
t59.5 -96t89 -64t110 -23.5q61 0 116 22.5t99 64.5l130 -127q-66 -64 -154 -102t-191 -38q-100 0 -187 37.5t-152 103t-102.5 153.5t-37.5 188z" />
    <glyph glyph-name="trademark" unicode="&#x2122;" horiz-adv-x="1871" 
d="M1010 1567l299 -429l295 429h144v-946h-209v550l-225 -309h-12l-229 309v-550h-204v946h141zM771 1567v-173h-278v-773h-206v773h-267v173h751z" />
    <glyph glyph-name="dieresis" unicode="&#xa8;" horiz-adv-x="922" 
d="M78 1864q0 35 13.5 66t36.5 54t55 36.5t69 13.5q35 0 66.5 -13.5t54.5 -36.5t36.5 -54t13.5 -66q0 -37 -13.5 -69t-36.5 -55t-54.5 -36.5t-66.5 -13.5q-37 0 -69 13.5t-55 36.5t-36.5 55t-13.5 69zM682 2034q36 0 67.5 -13.5t55 -36.5t37 -54t13.5 -66q0 -37 -13.5 -69
t-37 -55t-55 -36.5t-67.5 -13.5t-67 13.5t-54.5 36.5t-37 55t-13.5 69q0 35 13.5 66t37 54t54.5 36.5t67 13.5z" />
    <glyph glyph-name="AE" unicode="&#xc6;" horiz-adv-x="1911" 
d="M-34 0l845 1567h1019v-287h-564v-604h564v-246h-564v-143h564v-287h-905v184h-492l-95 -184h-372zM563 430h362v666h-22l-128 -267z" />
    <glyph glyph-name="plusminus" unicode="&#xb1;" horiz-adv-x="1159" 
d="M143 544v246h314v171h246v-171h312v-246h-312v-169h-246v169h-314zM1015 294v-246h-872v246h872z" />
    <glyph glyph-name="ae" unicode="&#xe6;" horiz-adv-x="1911" 
d="M-34 0l845 1567h1019v-287h-564v-604h564v-246h-564v-143h564v-287h-905v184h-492l-95 -184h-372zM563 430h362v666h-22l-128 -267z" />
    <glyph glyph-name="questiondown" unicode="&#xbf;" horiz-adv-x="1184" 
d="M41 188q0 77 18 130.5t47.5 91.5t67 64.5t76.5 49t76 44.5t65.5 51t45.5 69.5t15 99.5h258q7 -64 2 -115t-18.5 -90.5t-33 -70t-42.5 -53.5q-35 -35 -78.5 -59.5t-82 -52.5t-64.5 -65t-26 -98q0 -39 14 -76t39.5 -65.5t61 -45.5t79.5 -17q42 0 78 16.5t62.5 44.5t41 66
t13.5 81h326q0 -112 -45 -203.5t-118 -157t-166.5 -101t-191.5 -35.5t-191.5 35.5t-166.5 101t-117.5 157t-44.5 203.5zM387 1128q0 42 15 77.5t41.5 62t62 41.5t76.5 15q42 0 77.5 -15t62 -41.5t41.5 -62t15 -77.5q0 -40 -15 -75.5t-41.5 -61.5t-62 -41.5t-77.5 -15.5
q-41 0 -76.5 15.5t-62 41.5t-41.5 61.5t-15 75.5z" />
    <glyph glyph-name="exclamdown" unicode="&#xa1;" horiz-adv-x="580" 
d="M119 -278l21 1026h297l20 -1026h-338zM94 1128q0 42 15.5 77.5t41.5 62t61.5 41.5t75.5 15q42 0 78 -15t62.5 -41.5t41.5 -62t15 -77.5q0 -40 -15 -75.5t-41.5 -61.5t-62.5 -41.5t-78 -15.5q-40 0 -75.5 15.5t-61.5 41.5t-41.5 61.5t-15.5 75.5z" />
    <glyph glyph-name="guillemotleft" unicode="&#xab;" horiz-adv-x="1487" 
d="M744 954v-258l-333 -194l333 -193v-258l-683 406v94zM724 551l681 403v-258l-332 -194l332 -193v-258l-681 406v94z" />
    <glyph glyph-name="guillemotright" unicode="&#xbb;" horiz-adv-x="1487" 
d="M82 309l331 193l-331 194v258l683 -403v-94l-683 -406v258zM744 309l331 193l-331 194v258l681 -403v-94l-681 -406v258z" />
    <glyph glyph-name="ellipsis" unicode="&#x2026;" 
d="M256 355q41 0 76.5 -15.5t62 -41.5t41.5 -61.5t15 -76.5q0 -42 -15 -78t-41.5 -62.5t-62 -42t-76.5 -15.5q-42 0 -77.5 15.5t-62 42t-41.5 62.5t-15 78q0 41 15 76.5t41.5 61.5t62 41.5t77.5 15.5zM1417 355q41 0 76.5 -15.5t61.5 -41.5t41 -61.5t15 -76.5q0 -42 -15 -78
t-41 -62.5t-61.5 -42t-76.5 -15.5t-77 15.5t-62.5 42t-42 62.5t-15.5 78q0 41 15.5 76.5t42 61.5t62.5 41.5t77 15.5zM838 355q40 0 75.5 -15.5t62 -41.5t42 -61.5t15.5 -76.5q0 -42 -15.5 -78t-42 -62.5t-62 -42t-75.5 -15.5q-42 0 -77.5 15.5t-62 42t-41.5 62.5t-15 78
q0 41 15 76.5t41.5 61.5t62 41.5t77.5 15.5z" />
    <glyph glyph-name="OE" unicode="&#x152;" horiz-adv-x="2045" 
d="M831 1597q67 0 124.5 -7.5t111.5 -22.5h896v-287h-564v-604h564v-246h-564v-143h564v-287h-901q-54 -15 -111 -23t-120 -8q-112 0 -216 29t-194 82t-164 127t-126.5 164.5t-81.5 195.5t-29 218t29 217t81.5 194t126.5 164t164 126.5t194 81.5t216 29zM847 256
q57 0 109.5 7t101.5 24v1003q-55 11 -104.5 16t-106.5 5q-99 0 -188 -40t-156 -110.5t-106 -167t-39 -208.5q0 -109 39 -205t106 -168t156 -114t188 -42z" />
    <glyph glyph-name="oe" unicode="&#x153;" horiz-adv-x="2045" 
d="M831 1597q67 0 124.5 -7.5t111.5 -22.5h896v-287h-564v-604h564v-246h-564v-143h564v-287h-901q-54 -15 -111 -23t-120 -8q-112 0 -216 29t-194 82t-164 127t-126.5 164.5t-81.5 195.5t-29 218t29 217t81.5 194t126.5 164t164 126.5t194 81.5t216 29zM847 256
q57 0 109.5 7t101.5 24v1003q-55 11 -104.5 16t-106.5 5q-99 0 -188 -40t-156 -110.5t-106 -167t-39 -208.5q0 -109 39 -205t106 -168t156 -114t188 -42z" />
    <glyph glyph-name="endash" unicode="&#x2013;" horiz-adv-x="1159" 
d="M1015 635v-246h-872v246h872z" />
    <glyph glyph-name="emdash" unicode="&#x2014;" horiz-adv-x="1555" 
d="M1411 635v-246h-1268v246h1268z" />
    <glyph glyph-name="quotedblleft" unicode="&#x201c;" horiz-adv-x="657" 
d="M73 1085l29 564h161l27 -564h-217zM396 1649h159l29 -564h-217z" />
    <glyph glyph-name="quotedblright" unicode="&#x201d;" horiz-adv-x="657" 
d="M290 1649l-27 -563h-161l-29 563h217zM367 1649h217l-29 -563h-159z" />
    <glyph glyph-name="quoteleft" unicode="&#x2018;" horiz-adv-x="365" 
d="M73 1085l29 564h161l27 -564h-217z" />
    <glyph glyph-name="quoteright" unicode="&#x2019;" horiz-adv-x="365" 
d="M73 1649h217l-27 -563h-161z" />
    <glyph glyph-name="divide" unicode="&#xf7;" horiz-adv-x="1159" 
d="M1015 626v-245h-872v245h872zM382 152q0 38 15.5 71.5t42 58.5t62.5 39t78 14q41 0 76.5 -14t61.5 -39t41.5 -58.5t15.5 -71.5q0 -39 -15.5 -72t-41.5 -58t-61.5 -39t-76.5 -14q-42 0 -78 14t-62.5 39t-42 58t-15.5 72zM382 858q0 39 15.5 72t42 58t62.5 39t78 14
q41 0 76.5 -14t61.5 -39t41.5 -58t15.5 -72q0 -38 -15.5 -71.5t-41.5 -58t-61.5 -38.5t-76.5 -14q-42 0 -78 14t-62.5 38.5t-42 58t-15.5 71.5z" />
    <glyph glyph-name="fraction" unicode="&#x2044;" horiz-adv-x="1092" 
d="M870 1731l222 -110l-867 -1776l-222 106z" />
    <glyph glyph-name="sterling" unicode="&#xa3;" horiz-adv-x="1014" 
d="M41 89q48 -2 86 31q16 14 31.5 38t27.5 60t19.5 86.5t7.5 117.5v209h-107v287h107v137q0 74 19.5 142.5t55 129t85.5 110t111 85.5t131 55.5t146 19.5q62 0 112.5 -12t99.5 -32l-109 -263q-42 21 -93 21q-45 0 -85 -17.5t-70 -48t-47.5 -71t-17.5 -85.5v-171h193v-287
h-193v-160q0 -54 -8.5 -100t-30.5 -84h451v-287h-922v89z" />
    <glyph glyph-name="yen" unicode="&#xa5;" horiz-adv-x="1198" 
d="M0 1567h350l251 -488l247 488h350l-379 -697h217v-245h-268v-123h268v-246h-268v-256h-338v256h-266v246h266v123h-266v245h213z" />
    <glyph glyph-name="Euro" unicode="&#x20ac;" horiz-adv-x="1374" 
d="M20 843v246h197q45 113 119.5 206t172.5 160.5t214.5 104.5t245.5 37q89 0 165 -14t148 -44l-94 -273q-49 25 -98.5 35t-106.5 10q-61 0 -118 -15.5t-108 -44.5t-95 -70t-77 -92h541l-85 -246h-543q-2 -13 -2.5 -27.5t-0.5 -30.5q0 -15 1.5 -32t3.5 -33h500l-82 -246
h-327q33 -50 76 -90t93 -68.5t106.5 -44t116.5 -15.5q57 0 110 15t103 40l116 -263q-81 -36 -163.5 -57.5t-179.5 -21.5q-129 0 -245.5 37t-214 104t-172.5 160t-120 204h-197v246h140q-2 16 -2.5 33t-0.5 32q0 16 0.5 29.5t2.5 28.5h-140z" />
    <glyph glyph-name="guilsinglleft" unicode="&#x2039;" horiz-adv-x="826" 
d="M744 954v-258l-333 -194l333 -193v-258l-683 406v94z" />
    <glyph glyph-name="guilsinglright" unicode="&#x203a;" horiz-adv-x="826" 
d="M765 551v-94l-683 -406v258l331 193l-331 194v258z" />
    <glyph glyph-name="daggerdbl" unicode="&#x2021;" horiz-adv-x="1302" 
d="M143 560h314v447h-314v246h314v314h246v-314h312v-246h-312v-447h312v-246h-312v-316h-246v316h-314v246z" />
    <glyph glyph-name="periodcentered" unicode="&#xb7;" horiz-adv-x="510" 
d="M60 618q0 41 15 76.5t41.5 61.5t62 41t77.5 15q41 0 76.5 -15t62 -41t41.5 -61.5t15 -76.5t-15 -76.5t-41.5 -62t-62 -42t-76.5 -15.5q-42 0 -77.5 15.5t-62 42t-41.5 62t-15 76.5z" />
    <glyph glyph-name="quotesinglbase" unicode="&#x201a;" horiz-adv-x="365" 
d="M73 287h217l-27 -563h-161z" />
    <glyph glyph-name="quotedblbase" unicode="&#x201e;" horiz-adv-x="657" 
d="M290 287l-27 -563h-161l-29 563h217zM367 287h217l-29 -563h-159z" />
    <glyph glyph-name="perthousand" unicode="&#x2030;" horiz-adv-x="3009" 
d="M493 1618q90 0 169 -34t137.5 -92.5t92 -137t33.5 -168.5t-33.5 -169t-92 -137.5t-137.5 -92t-169 -33.5t-168.5 33.5t-137 92t-92.5 137.5t-34 169t34 168.5t92.5 137t137 92.5t168.5 34zM2516 829q90 0 168.5 -33.5t137 -92t92 -137t33.5 -168.5t-33.5 -169t-92 -137.5
t-137 -92t-168.5 -33.5t-169.5 33.5t-138 92t-92.5 137.5t-34 169t34 168.5t92.5 137t138 92t169.5 33.5zM1133 398q0 90 33.5 168.5t92 137t137.5 92t169 33.5t168.5 -33.5t137 -92t92.5 -137t34 -168.5t-34 -169t-92.5 -137.5t-137 -92t-168.5 -33.5t-169 33.5t-137.5 92
t-92 137.5t-33.5 169zM1350 1731l220 -110l-865 -1776l-222 106zM290 1186q0 -42 16 -78.5t44 -64.5t64.5 -44t78.5 -16t78.5 16t64.5 44t44 64.5t16 78.5t-16 78.5t-44 64.5t-64.5 44t-78.5 16t-78.5 -16t-64.5 -44t-44 -64.5t-16 -78.5zM1362 398q0 -42 16 -78.5t44 -64.5
t64.5 -44t78.5 -16t78.5 16t64.5 44t44 64.5t16 78.5t-16 78.5t-44 64.5t-64.5 44t-78.5 16t-78.5 -16t-64.5 -44t-44 -64.5t-16 -78.5zM2516 195q41 0 77.5 16t64 44t43.5 64.5t16 78.5t-16 78.5t-43.5 64.5t-64 44t-77.5 16q-42 0 -78.5 -16t-64.5 -44t-44 -64.5
t-16 -78.5t16 -78.5t44 -64.5t64.5 -44t78.5 -16z" />
    <glyph glyph-name="ring" unicode="&#x2da;" horiz-adv-x="616" 
d="M309 2231q60 0 113.5 -23.5t93 -63.5t63 -93.5t23.5 -113.5q0 -61 -23.5 -114t-63.5 -92t-93 -61.5t-113 -22.5q-61 0 -114 22.5t-92 61.5t-61.5 92t-22.5 114q0 60 22.5 113.5t61.5 93.5t92 63.5t114 23.5zM309 1833q22 0 41 8t33 21.5t22 33t8 41.5q0 44 -30 74t-74 30
q-22 0 -41.5 -8t-33 -22t-21.5 -33t-8 -41q0 -45 29.5 -74.5t74.5 -29.5z" />
    <glyph glyph-name="hungarumlaut" unicode="&#x2dd;" horiz-adv-x="749" 
d="M510 2138l198 -83l-223 -406h-181zM24 1649l179 489l200 -83l-196 -406h-183z" />
    <glyph glyph-name="Eth" unicode="&#xd0;" horiz-adv-x="1401" 
d="M135 922v645h462q109 0 209.5 -28t188 -79t158.5 -122.5t122 -158.5t78.5 -187.5t27.5 -209.5q0 -108 -28 -208.5t-78.5 -187.5t-122 -158t-158.5 -121.5t-187.5 -78.5t-209.5 -28h-462v676h-115v246h115zM473 922h223v-246h-223v-389h112q98 0 182 39.5t145.5 107.5
t96 158t34.5 190q0 102 -35.5 193t-97 158.5t-145 107t-180.5 39.5h-112v-358z" />
    <glyph glyph-name="multiply" unicode="&#xd7;" horiz-adv-x="1036" 
d="M102 263l243 240l-243 243l174 174l243 -242l240 242l175 -174l-241 -243l241 -240l-175 -174l-240 240l-243 -240z" />
    <glyph glyph-name="Thorn" unicode="&#xde;" horiz-adv-x="1381" 
d="M123 1649h338v-207q16 5 37.5 7.5t44.5 4.5t45.5 2.5t39.5 0.5q97 0 185.5 -24.5t165.5 -68t139.5 -103.5t107 -132t69 -152.5t24.5 -165.5q0 -86 -24.5 -167.5t-69 -153.5t-107 -132t-139.5 -103.5t-165.5 -68t-185.5 -24.5q-17 0 -39.5 1t-45.5 2.5t-44.5 4.5t-37.5 7
v-208h-338v1680zM461 461q18 -5 44.5 -9.5t67.5 -4.5q85 0 159.5 28.5t129.5 78t87 115.5t32 140t-32 140t-87 115.5t-129.5 78t-159.5 28.5q-41 0 -67.5 -4.5t-44.5 -9.5v-696z" />
    <glyph glyph-name="eth" unicode="&#xf0;" horiz-adv-x="1401" 
d="M135 922v645h462q109 0 209.5 -28t188 -79t158.5 -122.5t122 -158.5t78.5 -187.5t27.5 -209.5q0 -108 -28 -208.5t-78.5 -187.5t-122 -158t-158.5 -121.5t-187.5 -78.5t-209.5 -28h-462v676h-115v246h115zM473 922h223v-246h-223v-389h112q98 0 182 39.5t145.5 107.5
t96 158t34.5 190q0 102 -35.5 193t-97 158.5t-145 107t-180.5 39.5h-112v-358z" />
    <glyph glyph-name="thorn" unicode="&#xfe;" horiz-adv-x="1381" 
d="M123 1649h338v-207q16 5 37.5 7.5t44.5 4.5t45.5 2.5t39.5 0.5q97 0 185.5 -24.5t165.5 -68t139.5 -103.5t107 -132t69 -152.5t24.5 -165.5q0 -86 -24.5 -167.5t-69 -153.5t-107 -132t-139.5 -103.5t-165.5 -68t-185.5 -24.5q-17 0 -39.5 1t-45.5 2.5t-44.5 4.5t-37.5 7
v-208h-338v1680zM461 461q18 -5 44.5 -9.5t67.5 -4.5q85 0 159.5 28.5t129.5 78t87 115.5t32 140t-32 140t-87 115.5t-129.5 78t-159.5 28.5q-41 0 -67.5 -4.5t-44.5 -9.5v-696z" />
    <glyph glyph-name="minus" unicode="&#x2212;" horiz-adv-x="778" 
d="M1015 629v-246h-872v246h872z" />
    <glyph glyph-name="breve" unicode="&#x2d8;" horiz-adv-x="759" 
d="M44 1946l202 109q15 -21 30.5 -40t34.5 -34t41 -23.5t49 -8.5q26 0 48.5 8.5t41.5 23.5t35 34t29 40l204 -113q-20 -51 -56 -93.5t-82.5 -73.5t-102.5 -48t-117 -17t-117 17.5t-102.5 49t-81.5 75t-56 94.5z" />
    <glyph glyph-name="dotaccent" unicode="&#x2d9;" horiz-adv-x="505" 
d="M60 1845q0 41 15 76.5t41.5 61.5t62 41t77.5 15q41 0 76.5 -15t62 -41t41.5 -61.5t15 -76.5q0 -42 -15 -77.5t-41.5 -62t-62 -41.5t-76.5 -15q-42 0 -77.5 15t-62 41.5t-41.5 62t-15 77.5z" />
    <glyph glyph-name="caron" unicode="&#x2c7;" horiz-adv-x="935" 
d="M43 2026l100 126l325 -186l322 186l101 -126l-423 -384z" />
    <glyph glyph-name="grave" unicode="`" horiz-adv-x="674" 
d="M155 2116l483 -304l-75 -141l-532 193z" />
    <glyph glyph-name="circumflex" unicode="&#x2c6;" horiz-adv-x="935" 
d="M43 1770l425 382l423 -382l-101 -128l-322 188l-325 -188z" />
    <glyph glyph-name="macron" unicode="&#xaf;" horiz-adv-x="713" 
d="M638 1918v-205h-563v205h563z" />
    <glyph glyph-name="acute" unicode="&#xb4;" horiz-adv-x="684" 
d="M30 1812l483 304l125 -252l-533 -193z" />
    <glyph glyph-name="tilde" unicode="&#x2dc;" horiz-adv-x="1048" 
d="M154 1695q0 85 18.5 143.5t50 94.5t73.5 52t90 16q47 0 85.5 -17t70.5 -37t60 -37t54 -17q10 0 21.5 4.5t21.5 15t16.5 28t6.5 44.5h183q0 -88 -15.5 -147t-43.5 -94.5t-67.5 -50.5t-88.5 -15q-47 0 -88.5 17t-77 37t-65.5 37t-56 17q-11 0 -23 -4.5t-22 -15t-16.5 -28
t-6.5 -43.5h-181z" />
    <glyph glyph-name="asciitilde" unicode="~" horiz-adv-x="1064" 
d="M109 582q0 112 25.5 192t69 131t102 75t124.5 24t119 -25.5t97.5 -56t83.5 -56t77 -25.5q14 0 30 6t29.5 19.5t22.5 37t9 57.5h254q0 -115 -21.5 -196t-61 -132t-95 -74t-123.5 -23q-65 0 -121.5 25.5t-105.5 56.5t-91 56.5t-78 25.5q-15 0 -31 -6t-29.5 -19.5t-22.5 -36
t-9 -56.5h-254z" />
    <glyph glyph-name="asciicircum" unicode="^" horiz-adv-x="964" 
d="M31 915l402 682h96l405 -682h-258l-193 333l-195 -333h-257z" />
    <glyph glyph-name="brokenbar" unicode="&#xa6;" horiz-adv-x="573" 
d="M410 2028v-1055h-246v1055h246zM164 643h246v-1054h-246v1054z" />
    <glyph glyph-name="cedilla" unicode="&#xb8;" horiz-adv-x="381" 
d="M131 -207q34 -14 60 -23t56 -19q17 -6 29 -6q18 0 29.5 9t15.5 22q8 20 -2 40t-39 30q-17 6 -35 13t-33 12q-18 7 -35 13l59 143h146l-17 -90q65 -20 96.5 -69t31.5 -112q0 -47 -16.5 -85t-46 -64t-69 -40t-86.5 -14q-26 0 -55.5 3.5t-59.5 10t-58.5 15.5t-52.5 20z" />
    <glyph glyph-name="ogonek" unicode="&#x2db;" horiz-adv-x="597" 
d="M108 -232q0 63 29 109.5t73.5 81.5t97.5 60t102 44l50 -94q-19 -10 -43.5 -24t-46.5 -31t-37 -38.5t-15 -46.5q0 -15 6.5 -25t17.5 -15.5t24.5 -7.5t28.5 -2q16 0 30.5 1t25.5 3v-232l-22 -2q-9 -1 -20.5 -1.5t-22.5 -0.5q-51 0 -100.5 12.5t-89 39.5t-64 68.5
t-24.5 100.5z" />
    <glyph glyph-name="uniF8FF" unicode="&#xf8ff;" horiz-adv-x="1995" 
d="M61 840v182h301v316h199v-316h337q0 140 34 247.5t96 181.5t150 112t196 38h22v-178h-31q-51 0 -99.5 -19.5t-87 -65t-61.5 -121t-23 -186.5v-9h329q0 140 34.5 247.5t97.5 181.5t152 112t198 38h22v-178h-22q-57 0 -107.5 -19.5t-88.5 -65t-60.5 -121t-22.5 -186.5v-9
h301v-182h-301v-260q0 -140 -34 -248t-97 -182t-152.5 -112t-199.5 -38h-296q-108 0 -197 38t-153 112t-99.5 182t-35.5 248v260h-301zM561 572q0 -111 24 -186.5t63 -122t88.5 -66.5t101.5 -20h60v663h-337v-268zM1094 177h55q54 0 103.5 20t87.5 66.5t60.5 122t22.5 186.5
v268h-329v-663z" />
    <glyph glyph-name="dotlessi" unicode="&#x131;" horiz-adv-x="584" 
d="M123 1567h338v-1567h-338v1567z" />
    <glyph glyph-name="uni2070" unicode="&#x2070;" horiz-adv-x="836" 
d="M73 1266q0 76 27 135t74 100t109.5 62.5t134.5 21.5q71 0 133.5 -21.5t109 -62.5t73.5 -100t27 -135v-338q0 -76 -27 -135.5t-73.5 -100.5t-109 -62.5t-133.5 -21.5q-72 0 -134.5 21.5t-109.5 62.5t-74 100.5t-27 135.5v338zM276 1271v-349q0 -34 11 -60.5t30.5 -44.5
t45.5 -27.5t55 -9.5t54.5 9.5t45 27.5t31 44.5t11.5 60.5v349q0 34 -11.5 60.5t-31 44.5t-45 27.5t-54.5 9.5t-55 -9.5t-45.5 -27.5t-30.5 -44.5t-11 -60.5z" />
    <glyph glyph-name="onesuperior" unicode="&#xb9;" horiz-adv-x="469" 
d="M150 1394h-101v173h303v-941h-202v768z" />
    <glyph glyph-name="twosuperior" unicode="&#xb2;" horiz-adv-x="782" 
d="M32 1261q0 67 27 126t73.5 103t109 69.5t133.5 25.5t134 -25.5t109.5 -69.5t73.5 -103t27 -126q0 -60 -22.5 -111.5t-58.5 -96.5q-16 -21 -38.5 -51.5t-47 -62t-48 -60.5t-40.5 -48q-5 -8 -10.5 -13.5t-10.5 -9.5q-5 -5 -10 -9h287v-173h-676q84 102 163 199q33 41 69 85
t71 86.5t67 82t57 70.5q18 23 31 51t13 61q0 31 -11 58.5t-30 48.5t-44.5 33t-54.5 12q-28 0 -53.5 -12t-44.5 -33t-30 -48.5t-11 -58.5h-204z" />
    <glyph glyph-name="threesuperior" unicode="&#xb3;" horiz-adv-x="754" 
d="M31 932h203q0 -31 11 -58.5t30 -48.5t44 -33t53 -12q30 0 55.5 12t45 33t30.5 48.5t11 58.5q0 45 -15 75.5t-40.5 49t-60 27t-72.5 8.5l96 302h-340v173h611l-140 -359q75 -41 119.5 -113.5t44.5 -162.5q0 -67 -27 -126t-74 -103t-109.5 -69.5t-134.5 -25.5
q-70 0 -132.5 25.5t-108.5 69.5t-73 103t-27 126z" />
    <glyph glyph-name="uni2074" unicode="&#x2074;" horiz-adv-x="831" 
d="M7 780l423 787h232l-334 -615h201v154h201v-154h89v-172h-89v-154h-201v154h-522z" />
    <glyph glyph-name="uni2075" unicode="&#x2075;" horiz-adv-x="748" 
d="M31 932h203q0 -31 11 -58.5t30 -48.5t44 -33t53 -12q30 0 55.5 12t45 33t30.5 48.5t11 58.5q0 32 -11 60t-30.5 48.5t-45 32.5t-55.5 12q-33 0 -61.5 -15.5t-47.5 -42.5l-138 130l39 410h498v-173h-314l-12 -138q9 0 18 1t18 1q72 0 134.5 -25.5t109.5 -69.5t74 -103.5
t27 -127.5q0 -67 -27 -126t-74 -103t-109.5 -69.5t-134.5 -25.5q-70 0 -132.5 25.5t-108.5 69.5t-73 103t-27 126z" />
    <glyph glyph-name="uni2076" unicode="&#x2076;" horiz-adv-x="748" 
d="M24 932q0 47 11.5 86t30 74.5t42 69.5t47.5 70l222 335h239l-203 -311q63 -9 117 -37.5t94 -71.5t63 -98t23 -117q0 -67 -27 -126t-73.5 -103t-109 -69.5t-133.5 -25.5t-133.5 25.5t-109 69.5t-73.5 103t-27 126zM227 932q0 -31 11 -58.5t30 -48.5t44.5 -33t54.5 -12
t54.5 12t45 33t31 48.5t11.5 58.5t-11.5 59t-31 49t-45 33t-54.5 12t-54.5 -12t-44.5 -33t-30 -49t-11 -59z" />
    <glyph glyph-name="uni2077" unicode="&#x2077;" horiz-adv-x="642" 
d="M82 626l290 768h-348v173h625l-350 -941h-217z" />
    <glyph glyph-name="uni2078" unicode="&#x2078;" horiz-adv-x="785" 
d="M27 882q0 70 36 127t97 95q-54 38 -82.5 93.5t-28.5 120.5q0 55 26.5 103.5t72 85t106 57.5t127.5 21q68 0 129 -21t106.5 -57.5t72 -85t26.5 -103.5q0 -65 -28.5 -120.5t-82.5 -93.5q62 -38 97.5 -95t35.5 -127q0 -59 -29 -111t-77.5 -91t-113 -61.5t-136.5 -22.5
q-70 0 -134.5 22.5t-113 61.5t-77.5 91t-29 111zM229 898q0 -27 13 -50.5t34.5 -41.5t49 -28t55.5 -10q29 0 56.5 10t49 28t34.5 41.5t13 50.5t-13 51t-34.5 41t-49 27t-56.5 10q-28 0 -55.5 -10t-49 -27t-34.5 -41t-13 -51zM242 1294q0 -23 11.5 -44t30.5 -37t44 -25.5
t53 -9.5q27 0 52.5 9.5t45 25.5t31.5 37t12 44q0 25 -12 46.5t-31.5 37.5t-45 25.5t-52.5 9.5q-28 0 -53 -9.5t-44 -25.5t-30.5 -37.5t-11.5 -46.5z" />
    <glyph glyph-name="uni2079" unicode="&#x2079;" horiz-adv-x="748" 
d="M379 1587q72 0 134.5 -25.5t109.5 -69.5t74 -103.5t27 -127.5q0 -46 -11.5 -84.5t-30 -73.5t-42.5 -69t-48 -71l-222 -337h-239l204 314q-63 8 -117.5 36t-94 71t-62.5 98t-23 116q0 68 27 127.5t73 103.5t108.5 69.5t132.5 25.5zM239 1261q0 -31 11.5 -58.5t30.5 -48.5
t44.5 -33t53.5 -12q29 0 55 12t45.5 33t30.5 48.5t11 58.5q0 32 -11 60t-30.5 49t-45.5 33t-55 12q-28 0 -53.5 -12t-44.5 -33t-30.5 -49t-11.5 -60z" />
    <glyph glyph-name="ordmasculine" unicode="&#xba;" horiz-adv-x="986" 
d="M61 1186q0 90 34 168.5t92.5 137t137 92.5t168.5 34t169 -34t137.5 -92.5t92 -137t33.5 -168.5t-33.5 -169t-92 -137.5t-137.5 -92t-169 -33.5t-168.5 33.5t-137 92t-92.5 137.5t-34 169zM493 983q42 0 78.5 16t64.5 44t44 64.5t16 78.5t-16 78.5t-44 64.5t-64.5 44
t-78.5 16t-78.5 -16t-64.5 -44t-44 -64.5t-16 -78.5t16 -78.5t44 -64.5t64.5 -44t78.5 -16z" />
    <glyph glyph-name="ordfeminine" unicode="&#xaa;" horiz-adv-x="976" 
d="M61 1033q0 51 20 96.5t54 79t79.5 53.5t96.5 20h326v47q0 25 -17 44.5t-40 19.5h-426v204h450q51 0 96.5 -19.5t79.5 -53.5t53.5 -79.5t19.5 -96.5v-566h-542q-51 0 -96.5 19.5t-79.5 53.5t-54 80t-20 98zM346 986h291v127h-291q-11 0 -21.5 -5.5t-18.5 -14t-13 -19.5
t-5 -23q0 -26 17.5 -45.5t40.5 -19.5z" />
    <glyph glyph-name="uniE909" unicode="&#xe909;" horiz-adv-x="797" 
d="M155 928l50 318h-94v147h116l27 174h128l-25 -174h186l27 174h128l-26 -174h87v-147h-110l-48 -318h85v-148h-111l-22 -154h-130l24 154h-184l-26 -154h-128l24 154h-95v148h117zM285 928h186l50 318h-186z" />
    <glyph glyph-name="uniF6E4" unicode="&#xf6e4;" horiz-adv-x="759" 
d="M38 913h201q-1 -31 9.5 -55.5t29.5 -41.5t44.5 -25.5t54.5 -8.5t55 8.5t45.5 24t31 37t12.5 46.5q1 26 -11.5 46t-34.5 35.5t-49.5 27t-56.5 20.5t-56 15.5t-47 12.5q-43 16 -82.5 36.5t-68.5 51t-46.5 73.5t-17.5 103q0 48 20 90t55 75.5t82.5 57t102.5 35.5v136h148
v-129q58 -10 106.5 -35.5t83 -64.5t53.5 -90t17 -112h-193q2 35 -9.5 59.5t-31 40.5t-45 23.5t-51.5 7.5q-25 0 -49.5 -6t-43.5 -18t-30.5 -29t-11.5 -39q-2 -38 27 -63.5t70 -42.5t85 -28.5t73 -20.5q45 -16 84.5 -37t69 -52.5t46 -77t15.5 -110.5q-2 -54 -23 -99.5
t-56.5 -80t-83 -58t-102.5 -33.5v-137h-148v132q-60 9 -111 34t-87.5 64t-56.5 90t-18 112z" />
    <glyph glyph-name="uniE910" unicode="&#xe910;" horiz-adv-x="1236" 
d="M679 857q0 54 20.5 100.5t55.5 81.5t83 55t102 20t101 -20t82 -55t55 -81.5t20 -100.5q0 -55 -20 -102.5t-55 -83t-82 -55.5t-101 -20t-102 20t-83 55.5t-55.5 83t-20.5 102.5zM38 1329q0 54 20 101t55 82t82.5 55t101.5 20t101 -20t82 -55t55 -82t20 -101t-20 -102
t-55 -83t-82 -55.5t-101 -20.5t-101.5 20.5t-82.5 55.5t-55 83t-20 102zM811 1657l133 -66l-521 -1067l-133 63zM174 1329q0 -25 9.5 -47.5t26.5 -39t39.5 -26t47.5 -9.5q24 0 46 9.5t38.5 26t26.5 39t10 47.5q0 24 -10 46.5t-26.5 39t-38.5 26.5t-46 10q-25 0 -47.5 -10
t-39.5 -26.5t-26.5 -39t-9.5 -46.5zM817 857q0 -26 9.5 -48.5t26.5 -39t39.5 -26t47.5 -9.5q24 0 46.5 9.5t39 26t26.5 39t10 48.5q0 24 -10 46t-26.5 38t-39 25.5t-46.5 9.5q-25 0 -47.5 -9.5t-39.5 -25.5t-26.5 -38t-9.5 -46z" />
    <glyph glyph-name="uniF6E0" unicode="&#xf6e0;" horiz-adv-x="631" 
d="M24 1097q0 65 19.5 123t54.5 103.5t85.5 77t111.5 43.5v123h147v-123q48 -9 89 -30t75 -52l-133 -131q-20 23 -46.5 36t-56.5 13q-38 0 -65 -16.5t-44.5 -42.5t-25.5 -58.5t-8 -65.5t7.5 -65.5t25 -59t44.5 -43t66 -16.5q30 0 56.5 13.5t46.5 36.5l133 -132
q-34 -31 -75 -53t-89 -30v-122h-147v122q-61 12 -111.5 43.5t-85.5 77.5t-54.5 104t-19.5 124z" />
    <glyph glyph-name="uniE911" unicode="&#xe911;" horiz-adv-x="608" 
d="M24 683q29 -2 51 19q20 17 35.5 58t15.5 122v125h-63v172h63v82q0 66 26 125t71 104t105.5 71t128.5 26q36 0 66.5 -7t60.5 -20l-65 -157q-25 12 -56 12q-27 0 -51.5 -10.5t-42.5 -28.5t-29 -42.5t-11 -51.5v-103h118v-172h-118v-96q0 -32 -4.5 -60t-17.5 -51h270v-172
h-553v55z" />
    <glyph glyph-name="uniE912" unicode="&#xe912;" horiz-adv-x="826" 
d="M12 1135v147h119q26 68 71 124t104 96.5t129 62.5t147 22q54 0 98.5 -8t89.5 -26l-57 -164q-29 13 -59 19.5t-63 6.5q-74 0 -137.5 -35.5t-101.5 -97.5h324l-51 -147h-326q-2 -8 -2 -16.5v-19.5q0 -9 1 -19t1 -18h302l-50 -149h-196q40 -60 101 -95.5t135 -35.5
q33 0 65 10t61 24l71 -159q-48 -22 -98 -34t-108 -12q-77 0 -147 22.5t-128.5 62.5t-103.5 95.5t-72 121.5h-119v149h84q-2 8 -2 18v19v19t2 17h-84z" />
    <glyph glyph-name="yensuperior" horiz-adv-x="719" 
d="M0 1567h212l148 -294l149 294h210l-227 -418h131v-147h-162v-74h162v-148h-162v-154h-203v154h-159v148h159v74h-159v147h126z" />
    <glyph glyph-name="uni0326" unicode="&#x326;" horiz-adv-x="440" 
d="M58 -234q0 35 12.5 65.5t35 53t53 35t66.5 12.5q35 0 63.5 -12.5t49 -35t32 -53t11.5 -65.5q0 -45 -8.5 -92t-21.5 -92t-27.5 -87t-26.5 -77h-137l7 191q-49 17 -79 59.5t-30 97.5z" />
    <glyph glyph-name="Aacute" unicode="&#xc1;" horiz-adv-x="1289" 
d="M616 1597h58l635 -1597h-358l-67 184h-481l-65 -184h-358zM894 2116l127 -252l-533 -193l-77 141zM799 430l-89 246l-56 188h-17l-57 -188l-88 -246h307z" />
    <glyph glyph-name="Abreve" unicode="&#x102;" horiz-adv-x="1289" 
d="M-20 0l636 1597h58l635 -1597h-358l-67 184h-481l-65 -184h-358zM287 1946l201 109q14 -21 30 -40t35 -34t41 -23.5t49 -8.5q26 0 48 8.5t41 23.5t35 34t30 40l205 -113q-21 -51 -57 -93.5t-82.5 -73.5t-102.5 -48t-117 -17t-117 17.5t-102.5 49t-81.5 75t-55 94.5z
M799 430l-89 246l-56 188h-17l-57 -188l-88 -246h307z" />
    <glyph glyph-name="Acircumflex" unicode="&#xc2;" horiz-adv-x="1289" 
d="M616 1597h58l635 -1597h-358l-67 184h-481l-65 -184h-358zM218 1765l425 384l424 -384l-101 -127l-323 186l-324 -186zM799 430l-89 246l-56 188h-17l-57 -188l-88 -246h307z" />
    <glyph glyph-name="Adieresis" unicode="&#xc4;" horiz-adv-x="724" 
d="M616 1597h58l635 -1597h-358l-67 184h-481l-65 -184h-358zM256 1864q0 35 13.5 66t36.5 54t55 36.5t69 13.5q35 0 66.5 -13.5t54.5 -36.5t36.5 -54t13.5 -66q0 -37 -13.5 -69t-36.5 -55t-54.5 -36.5t-66.5 -13.5q-37 0 -69 13.5t-55 36.5t-36.5 55t-13.5 69zM688 1864
q0 35 13.5 66t37 54t54.5 36.5t67 13.5t67.5 -13.5t55 -36.5t37 -54t13.5 -66q0 -37 -13.5 -69t-37 -55t-55 -36.5t-67.5 -13.5t-67 13.5t-54.5 36.5t-37 55t-13.5 69zM492 430h307l-89 246l-56 188h-17l-57 -188z" />
    <glyph glyph-name="AEacute" unicode="&#x1fc;" horiz-adv-x="1911" 
d="M-34 0l845 1567h1019v-287h-564v-604h564v-246h-564v-143h564v-287h-905v184h-492l-95 -184h-372zM1539 2116l127 -252l-533 -193l-77 141zM563 430h362v666h-22l-128 -267z" />
    <glyph glyph-name="Agrave" unicode="&#xc0;" horiz-adv-x="1289" 
d="M-20 0l636 1597h58l635 -1597h-358l-67 184h-481l-65 -184h-358zM304 2123l483 -302l-77 -142l-533 193zM492 430h307l-89 246l-56 188h-17l-57 -188z" />
    <glyph glyph-name="Amacron" unicode="&#x100;" horiz-adv-x="1289" 
d="M-20 0l636 1597h58l635 -1597h-358l-67 184h-481l-65 -184h-358zM355 1713v205h563v-205h-563zM492 430h307l-89 246l-56 188h-17l-57 -188z" />
    <glyph glyph-name="Aogonek" unicode="&#x104;" horiz-adv-x="1289" 
d="M616 1597h58l628 -1580l9 -17q-19 -10 -43.5 -24t-46.5 -31t-37 -38.5t-15 -46.5q0 -15 6.5 -25t17.5 -15.5t25 -7.5t28 -2q16 0 30.5 1t25.5 3v-232l-22 -2q-9 -1 -20.5 -1.5t-22.5 -0.5q-50 0 -100 12.5t-89.5 39.5t-64 68.5t-24.5 100.5q0 66 32 115.5t82 85.5h-122
l-67 184h-481l-65 -184h-358zM492 430h307l-89 246l-56 188h-17l-57 -188z" />
    <glyph glyph-name="Aring" unicode="&#xc5;" horiz-adv-x="1289" 
d="M551 1434q-43 15 -79 41.5t-62 62.5t-40.5 79.5t-14.5 92.5q0 60 22.5 113.5t61.5 93.5t92 63.5t114 23.5q60 0 113.5 -23.5t93.5 -63.5t63.5 -93.5t23.5 -113.5q0 -49 -15.5 -92.5t-42.5 -79t-63.5 -62t-78.5 -41.5l570 -1435h-358l-67 184h-481l-65 -184h-358zM799 430
l-89 246l-56 188h-17l-57 -188l-88 -246h307zM645 1606q22 0 41 8t33 21.5t22 33t8 41.5q0 44 -30 74t-74 30q-22 0 -41.5 -8t-33 -22t-21.5 -33t-8 -41q0 -45 29.5 -74.5t74.5 -29.5z" />
    <glyph glyph-name="Atilde" unicode="&#xc3;" horiz-adv-x="1289" 
d="M616 1597h58l635 -1597h-358l-67 184h-481l-65 -184h-358zM236 1693q0 86 18.5 144.5t50 94.5t74 51.5t90.5 15.5q47 0 85 -16.5t70 -36.5t59.5 -36.5t53.5 -16.5q11 0 23 4.5t22.5 15t17 28t6.5 44.5h180q0 -88 -15.5 -147.5t-43.5 -94.5t-67.5 -50t-88.5 -15
q-47 0 -88 16.5t-76.5 36t-65.5 36t-56 16.5q-10 0 -22 -4t-22 -14.5t-16.5 -28t-6.5 -43.5h-182zM492 430h307l-89 246l-56 188h-17l-57 -188z" />
    <glyph glyph-name="Cacute" unicode="&#x106;" horiz-adv-x="1287" 
d="M20 785q0 113 29 217t81.5 194t126.5 164t164 126.5t194 81.5t216 29q91 0 166 -14t148 -44l-94 -273q-50 25 -98.5 35t-105.5 10q-99 0 -188 -40t-156 -110.5t-106 -167t-39 -208.5q0 -109 39 -205t106 -168t156 -114t188 -42q57 0 109.5 15t101.5 40l118 -263
q-82 -36 -164.5 -57.5t-180.5 -21.5q-112 0 -216 29t-194 82t-164 127t-126.5 164.5t-81.5 195.5t-29 218zM637 1816l483 304l126 -253l-533 -191z" />
    <glyph glyph-name="Ccaron" unicode="&#x10c;" horiz-adv-x="1217" 
d="M20 785q0 113 29 217t81.5 194t126.5 164t164 126.5t194 81.5t216 29q91 0 166 -14t148 -44l-94 -273q-50 25 -98.5 35t-105.5 10q-99 0 -188 -40t-156 -110.5t-106 -167t-39 -208.5q0 -109 39 -205t106 -168t156 -114t188 -42q57 0 109.5 15t101.5 40l118 -263
q-82 -36 -164.5 -57.5t-180.5 -21.5q-112 0 -216 29t-194 82t-164 127t-126.5 164.5t-81.5 195.5t-29 218zM408 2028l101 126l322 -186l324 186l101 -126l-425 -383z" />
    <glyph glyph-name="Ccedilla" unicode="&#xc7;" horiz-adv-x="1217" 
d="M831 1597q91 0 166 -14t148 -44l-94 -273q-50 25 -98.5 35t-105.5 10q-99 0 -188 -40t-156 -110.5t-106 -167t-39 -208.5q0 -109 39 -205t106 -168t156 -114t188 -42q57 0 109.5 15t101.5 40l118 -263q-71 -31 -142 -51.5t-152 -25.5l-5 -34q65 -20 96.5 -69t31.5 -112
q0 -47 -16.5 -85t-46 -64t-69 -40t-86.5 -14q-26 0 -55.5 3.5t-59.5 10t-58.5 15.5t-52.5 20l82 191q34 -14 60 -23t56 -19q17 -6 29 -6q18 0 29.5 9t15.5 22q8 20 -2 40t-39 30q-17 6 -35 13t-33 12q-18 7 -35 13l38 92q-100 13 -191.5 48.5t-170 91t-142.5 127.5
t-109 157.5t-69.5 183t-24.5 201.5q0 113 29 217t81.5 194t126.5 164t164 126.5t194 81.5t216 29z" />
    <glyph glyph-name="Cdotaccent" unicode="&#x10a;" horiz-adv-x="1217" 
d="M20 785q0 113 29 217t81.5 194t126.5 164t164 126.5t194 81.5t216 29q91 0 166 -14t148 -44l-94 -273q-50 25 -98.5 35t-105.5 10q-99 0 -188 -40t-156 -110.5t-106 -167t-39 -208.5q0 -109 39 -205t106 -168t156 -114t188 -42q57 0 109.5 15t101.5 40l118 -263
q-82 -36 -164.5 -57.5t-180.5 -21.5q-112 0 -216 29t-194 82t-164 127t-126.5 164.5t-81.5 195.5t-29 218zM857 2039q40 0 75.5 -15t61.5 -41t41.5 -61.5t15.5 -76.5q0 -42 -15.5 -77.5t-41.5 -62t-61.5 -41.5t-75.5 -15q-42 0 -78 15t-62.5 41.5t-42 62t-15.5 77.5
q0 41 15.5 76.5t42 61.5t62.5 41t78 15z" />
    <glyph glyph-name="Dcaron" unicode="&#x10e;" horiz-adv-x="1389" 
d="M123 1567h462q109 0 209.5 -28t188 -79t158.5 -122.5t122 -158.5t78.5 -187.5t27.5 -209.5q0 -108 -28 -208.5t-78.5 -187.5t-122 -158t-158.5 -121.5t-187.5 -78.5t-209.5 -28h-462v1567zM461 1280v-993h112q98 0 181.5 39.5t145 107.5t96.5 158t35 190q0 102 -35.5 193
t-97 158.5t-145 107t-180.5 39.5h-112zM222 2010l99 128l324 -186l324 186l99 -128l-423 -382z" />
    <glyph glyph-name="Dcroat" unicode="&#x110;" horiz-adv-x="1401" 
d="M135 922v645h462q109 0 209.5 -28t188 -79t158.5 -122.5t122 -158.5t78.5 -187.5t27.5 -209.5q0 -108 -28 -208.5t-78.5 -187.5t-122 -158t-158.5 -121.5t-187.5 -78.5t-209.5 -28h-462v676h-115v246h115zM473 922h223v-246h-223v-389h112q98 0 182 39.5t145.5 107.5
t96 158t34.5 190q0 102 -35.5 193t-97 158.5t-145 107t-180.5 39.5h-112v-358z" />
    <glyph glyph-name="Eacute" unicode="&#xc9;" horiz-adv-x="1108" 
d="M1026 1567v-287h-563v-604h563v-246h-563v-143h563v-287h-903v1567h903zM393 1812l484 304l125 -252l-533 -193z" />
    <glyph glyph-name="Ecaron" unicode="&#x11a;" horiz-adv-x="1108" 
d="M1026 1567v-287h-563v-604h563v-246h-563v-143h563v-287h-903v1567h903zM152 2026l101 126l322 -186l324 186l101 -126l-425 -384z" />
    <glyph glyph-name="Ecircumflex" unicode="&#xca;" horiz-adv-x="1108" 
d="M123 0v1567h903v-287h-563v-604h563v-246h-563v-143h563v-287h-903zM572 2152l423 -382l-101 -128l-322 188l-325 -188l-100 128z" />
    <glyph glyph-name="Edieresis" unicode="&#xcb;" horiz-adv-x="1108" 
d="M123 0v1567h903v-287h-563v-604h563v-246h-563v-143h563v-287h-903zM777 2034q36 0 67 -13.5t54.5 -36.5t37 -54t13.5 -66q0 -37 -13.5 -69t-37 -55t-54.5 -36.5t-67 -13.5q-37 0 -68.5 13.5t-54.5 36.5t-36.5 55t-13.5 69q0 35 13.5 66t36.5 54t54.5 36.5t68.5 13.5z
M346 2034q35 0 66 -13.5t54 -36.5t36 -54t13 -66q0 -37 -13 -69t-36 -55t-54 -36.5t-66 -13.5q-37 0 -69 13.5t-55 36.5t-36.5 55t-13.5 69q0 35 13.5 66t36.5 54t55 36.5t69 13.5z" />
    <glyph glyph-name="Edotaccent" unicode="&#x116;" horiz-adv-x="1108" 
d="M1026 1567v-287h-563v-604h563v-246h-563v-143h563v-287h-903v1567h903zM401 1845q0 41 15.5 76.5t42 61.5t62 41t76.5 15t77 -15t62 -41t41 -61.5t15 -76.5q0 -42 -15 -77.5t-41 -62t-62 -41.5t-77 -15t-76.5 15t-62 41.5t-42 62t-15.5 77.5z" />
    <glyph glyph-name="Egrave" unicode="&#xc8;" horiz-adv-x="1108" 
d="M1026 1567v-287h-563v-604h563v-246h-563v-143h563v-287h-903v1567h903zM188 1864l126 252l483 -304l-77 -141z" />
    <glyph glyph-name="Emacron" unicode="&#x112;" horiz-adv-x="1108" 
d="M123 1567h903v-287h-563v-604h563v-246h-563v-143h563v-287h-903v1567zM857 1918v-205h-563v205h563z" />
    <glyph glyph-name="Eogonek" unicode="&#x118;" horiz-adv-x="1108" 
d="M123 0v1567h903v-287h-563v-604h563v-246h-563v-143h563v-287q-19 -10 -43.5 -24t-46.5 -31t-37 -38.5t-15 -46.5q0 -15 6.5 -25t17.5 -15.5t25 -7.5t28 -2q16 0 30.5 1t25.5 3v-232l-22 -2q-9 -1 -20.5 -1.5t-22.5 -0.5q-51 0 -100.5 12.5t-89 39.5t-64 68.5
t-24.5 100.5q0 66 33 115.5t81 85.5h-665z" />
    <glyph glyph-name="Gbreve" unicode="&#x11e;" horiz-adv-x="1444" 
d="M20 785q0 113 28.5 217t81 194t126 164t163 126.5t193 81.5t214.5 29q110 0 211 -22.5t191 -69.5l-136 -256q-51 30 -110 46t-122 16q-104 0 -195.5 -41.5t-159.5 -113t-107.5 -168t-39.5 -206.5q0 -109 39.5 -204.5t107.5 -167t159.5 -113t195.5 -41.5q50 0 89 8.5
t68 22.5v633h334v-756q-106 -91 -240.5 -143t-284.5 -52q-111 0 -214.5 29t-193 82.5t-163 128t-126 165t-81 195t-28.5 216.5zM455 1946l202 109q15 -21 30.5 -40t34.5 -34t41 -23.5t49 -8.5q26 0 48 8.5t41 23.5t35 34t30 40l204 -113q-20 -51 -56 -93.5t-82.5 -73.5
t-102.5 -48t-117 -17t-117.5 17.5t-103 49t-81.5 75t-55 94.5z" />
    <glyph glyph-name="Gdotaccent" unicode="&#x120;" horiz-adv-x="1444" 
d="M20 785q0 113 29 217t81.5 194t126 164t163.5 126.5t193 81.5t215 29q109 0 209.5 -22.5t191.5 -69.5l-135 -256q-53 30 -112 46t-122 16q-103 0 -194.5 -41.5t-160 -113t-108 -168t-39.5 -206.5q0 -109 39.5 -204.5t108 -167t160 -113t194.5 -41.5q51 0 90 8.5t67 22.5
v633h335v-756q-107 -91 -241 -143t-283 -52q-112 0 -215 29t-193 82.5t-163.5 128t-126 165t-81.5 195t-29 216.5zM811 2039q41 0 76.5 -15t61.5 -41t41 -61.5t15 -76.5q0 -42 -15 -77.5t-41 -62t-61.5 -41.5t-76.5 -15q-42 0 -78 15t-62.5 41.5t-41.5 62t-15 77.5
q0 41 15 76.5t41.5 61.5t62.5 41t78 15z" />
    <glyph glyph-name="uni0122" unicode="&#x122;" horiz-adv-x="1444" 
d="M20 785q0 113 28.5 217t81 194t126 164t163 126.5t193 81.5t214.5 29q110 0 211 -22.5t191 -69.5l-136 -256q-51 30 -110 46t-122 16q-104 0 -195.5 -41.5t-159.5 -113t-107.5 -168t-39.5 -206.5q0 -109 39.5 -204.5t107.5 -167t159.5 -113t195.5 -41.5q50 0 89 8.5
t68 22.5v633h334v-756q-106 -91 -240.5 -143t-284.5 -52q-111 0 -214.5 29t-193 82.5t-163 128t-126 165t-81 195t-28.5 216.5zM645 -234q0 35 12.5 65.5t35 53t53 35t66.5 12.5q35 0 63.5 -12.5t48.5 -35t31.5 -53t11.5 -65.5q0 -45 -8.5 -92t-21 -92t-27 -87t-26.5 -77
h-137l7 191q-49 17 -79 59.5t-30 97.5z" />
    <glyph glyph-name="Hbar" unicode="&#x126;" horiz-adv-x="1476" 
d="M41 1171h84v396h338v-396h552v396h338v-396h82v-246h-82v-925h-338v430h-552v-430h-338v925h-84v246zM463 925v-249h552v249h-552z" />
    <glyph glyph-name="Iacute" unicode="&#xcd;" horiz-adv-x="584" 
d="M123 1567h338v-1567h-338v1567zM99 1812l483 304l125 -252l-533 -193z" />
    <glyph glyph-name="Ibreve" unicode="&#x12c;" horiz-adv-x="584" 
d="M123 1567h338v-1567h-338v1567zM-53 1946l200 109q15 -21 31 -40t35 -34t41.5 -23.5t49.5 -8.5q26 0 47.5 8.5t40.5 23.5t35 34t30 40l205 -113q-21 -51 -57 -93.5t-83 -73.5t-102.5 -48t-115.5 -17q-61 0 -117.5 17.5t-103 49t-81.5 75t-55 94.5z" />
    <glyph glyph-name="Icircumflex" unicode="&#xce;" horiz-adv-x="584" 
d="M123 1567h338v-1567h-338v1567zM-123 1770l423 382l425 -382l-100 -128l-325 188l-322 -188z" />
    <glyph glyph-name="Idieresis" unicode="&#xcf;" horiz-adv-x="584" 
d="M123 1567h338v-1567h-338v1567zM-82 1864q0 35 13.5 66t36.5 54t55 36.5t69 13.5q35 0 66.5 -13.5t54.5 -36.5t36.5 -54t13.5 -66q0 -37 -13.5 -69t-36.5 -55t-54.5 -36.5t-66.5 -13.5q-37 0 -69 13.5t-55 36.5t-36.5 55t-13.5 69zM522 2034q36 0 67.5 -13.5t55 -36.5
t37 -54t13.5 -66q0 -37 -13.5 -69t-37 -55t-55 -36.5t-67.5 -13.5t-67 13.5t-54.5 36.5t-37 55t-13.5 69q0 35 13.5 66t37 54t54.5 36.5t67 13.5z" />
    <glyph glyph-name="Idotaccent" unicode="&#x130;" horiz-adv-x="584" 
d="M123 1567h338v-1567h-338v1567zM82 1845q0 41 15 76.5t41.5 61.5t62 41t77.5 15q41 0 76.5 -15t62 -41t41.5 -61.5t15 -76.5q0 -42 -15 -77.5t-41.5 -62t-62 -41.5t-76.5 -15q-42 0 -77.5 15t-62 41.5t-41.5 62t-15 77.5z" />
    <glyph glyph-name="Igrave" unicode="&#xcc;" horiz-adv-x="584" 
d="M123 1567h338v-1567h-338v1567zM53 2116l483 -304l-75 -141l-533 193z" />
    <glyph glyph-name="IJ" unicode="&#x132;" horiz-adv-x="1352" 
d="M121 396l278 84q15 -45 42 -85.5t62.5 -71.5t79.5 -49t93 -18t92 18.5t74.5 50t50 75t18.5 92.5l-1 1075h338l1 -1024q0 -119 -45 -223.5t-122.5 -182.5t-182 -123t-223.5 -45q-100 0 -190 32t-163 89t-125.5 135.5t-76.5 170.5zM440 1567v-785h-338v785h338z" />
    <glyph glyph-name="Imacron" unicode="&#x12a;" horiz-adv-x="584" 
d="M123 1567h338v-1567h-338v1567zM553 1918v-205h-563v205h563z" />
    <glyph glyph-name="Iogonek" unicode="&#x12e;" horiz-adv-x="584" 
d="M111 -201q0 66 32.5 115.5t81.5 85.5h-102v1567h338v-1564l2 -3q-19 -10 -43.5 -24t-46.5 -31t-37 -38.5t-15 -46.5q0 -15 6.5 -25t17.5 -15.5t24.5 -7.5t28.5 -2q16 0 30.5 1t25.5 3v-232l-22 -2q-9 -1 -20.5 -1.5t-22.5 -0.5q-51 0 -100.5 12.5t-89 39.5t-64 68.5
t-24.5 100.5z" />
    <glyph glyph-name="Itilde" unicode="&#x128;" horiz-adv-x="584" 
d="M123 0v1567h338v-1567h-338zM-75 1698q0 85 18 143.5t50 94.5t74 52t90 16q47 0 85.5 -17t70.5 -37t60 -37t54 -17q10 0 21.5 4.5t21.5 15t16.5 28t6.5 44.5h183q0 -88 -15.5 -147t-43.5 -94.5t-67.5 -50.5t-88.5 -15q-47 0 -88.5 17t-77 37t-65.5 37t-56 17
q-11 0 -23 -4.5t-22 -15t-16.5 -28t-6.5 -43.5h-181z" />
    <glyph glyph-name="Jcircumflex" unicode="&#x134;" horiz-adv-x="792" 
d="M10 1280v287h669v-830q0 -144 -21 -268t-54.5 -228t-77 -190t-88.5 -153q-107 -158 -242 -263l-66 56q59 89 106 234q20 62 38.5 142.5t33.5 181t24 222.5t9 266v543h-331zM60 1770l423 382l425 -382l-101 -128l-324 188l-323 -188z" />
    <glyph glyph-name="uni0136" unicode="&#x136;" horiz-adv-x="1282" 
d="M123 0v1567h338v-848l408 848h350l-413 -857q0 -87 33.5 -167t91.5 -141.5t135 -98.5t165 -37v-286h-65q-90 0 -174 23t-159 64.5t-138 99.5t-111.5 128.5t-80 151.5t-42.5 167v-614h-338zM481 -234q0 35 13 65.5t35.5 53t53 35t66.5 12.5q35 0 63.5 -12.5t49.5 -35
t32.5 -53t11.5 -65.5q0 -45 -8.5 -92t-21.5 -92t-28 -87t-28 -77h-136l8 191q-50 17 -80.5 59.5t-30.5 97.5z" />
    <glyph glyph-name="Lacute" unicode="&#x139;" horiz-adv-x="923" 
d="M34 1567h338v-1280h510v-287h-848v1567zM10 1812l483 304l125 -252l-533 -193z" />
    <glyph glyph-name="Lcaron" unicode="&#x13d;" horiz-adv-x="923" 
d="M34 1567h338v-1280h510v-287h-848v1567zM471 1452q0 35 12.5 65.5t35 53t53 35t66.5 12.5q35 0 63.5 -12.5t49.5 -35t32.5 -53t11.5 -65.5q0 -45 -8.5 -92t-21 -92t-27.5 -87t-28 -77h-137l9 190q-51 18 -81 60.5t-30 97.5z" />
    <glyph glyph-name="uni013B" unicode="&#x13b;" horiz-adv-x="923" 
d="M34 0v1567h338v-1280h510v-287h-848zM464 -68q35 0 63.5 -12.5t49.5 -35t32.5 -53t11.5 -65.5q0 -45 -8.5 -92t-21 -92t-27.5 -87t-28 -77h-137l9 191q-51 17 -81 59.5t-30 97.5q0 35 12.5 65.5t35 53t53 35t66.5 12.5z" />
    <glyph glyph-name="Ldot" unicode="&#x13f;" horiz-adv-x="923" 
d="M34 0v1567h338v-1280h510v-287h-848zM655 1231q41 0 77 -15t62 -41.5t41 -62t15 -76.5q0 -42 -15 -77.5t-41 -62t-62 -41.5t-77 -15q-42 0 -77.5 15t-62 41.5t-41.5 62t-15 77.5q0 41 15 76.5t41.5 62t62 41.5t77.5 15z" />
    <glyph glyph-name="Lslash" unicode="&#x141;" horiz-adv-x="1027" 
d="M0 853l140 29v685h338v-615l249 52v-248l-249 -51v-418h508v-287h-846v633l-140 -29v249z" />
    <glyph glyph-name="Eng" unicode="&#x14a;" horiz-adv-x="1463" 
d="M123 1597h32l847 -848v818h338v-1436q0 -134 -31 -223.5t-80 -145t-109 -83t-117.5 -38.5t-106 -10.5t-73.5 0.5l-2 104q18 0 38.5 3.5t40.5 16t38.5 37t32.5 65.5t22.5 101.5t8.5 145.5v166l-541 542v-812h-338v1597z" />
    <glyph glyph-name="Nacute" unicode="&#x143;" horiz-adv-x="1374" 
d="M34 1597h34l845 -848v818h338v-1598h-36l-843 843v-812h-338v1597zM386 1812l483 304l124 -252l-532 -193z" />
    <glyph glyph-name="Ncaron" unicode="&#x147;" horiz-adv-x="1374" 
d="M34 0v1597h34l845 -848v818h338v-1598h-36l-843 843v-812h-338zM225 2010l101 128l323 -186l324 186l100 -128l-424 -382z" />
    <glyph glyph-name="uni0145" unicode="&#x145;" horiz-adv-x="1374" 
d="M34 0v1597h34l845 -848v818h338v-1598h-36l-843 843v-812h-338zM519 -234q0 35 12.5 65.5t35 53t53 35t66.5 12.5q35 0 63.5 -12.5t48.5 -35t31.5 -53t11.5 -65.5q0 -45 -8.5 -92t-21 -92t-27 -87t-26.5 -77h-137l7 191q-49 17 -79 59.5t-30 97.5z" />
    <glyph glyph-name="Ntilde" unicode="&#xd1;" horiz-adv-x="1374" 
d="M34 0v1597h34l845 -848v818h338v-1598h-36l-843 843v-812h-338zM263 1693q0 86 18.5 144.5t50 94.5t73.5 51.5t90 15.5q47 0 85.5 -16.5t70.5 -36.5t60 -36.5t54 -16.5q10 0 21.5 4.5t21.5 15t16.5 28t6.5 44.5h183q0 -88 -15.5 -147.5t-43.5 -94.5t-68 -50t-88 -15
t-89 16.5t-76.5 36t-65.5 36t-56 16.5q-11 0 -23 -4t-22 -14.5t-16.5 -28t-6.5 -43.5h-181z" />
    <glyph glyph-name="Oacute" unicode="&#xd3;" 
d="M20 785q0 113 29 217t82.5 194.5t128 164.5t165 127t195 82t216.5 29q113 0 217 -29t194.5 -82t164.5 -127t127 -164.5t82 -194.5t29 -217q0 -112 -29 -216.5t-82 -195t-127 -165t-164.5 -128t-194.5 -82.5t-217 -29q-112 0 -216.5 29t-195 82.5t-165 128t-128 165
t-82.5 195t-29 216.5zM358 782q0 -109 37.5 -204.5t102.5 -167t152 -113t186 -41.5t185.5 41.5t151 113t102 167t37.5 204.5q0 110 -37.5 206.5t-102 168t-151 113t-185.5 41.5t-186 -41.5t-152 -113t-102.5 -168t-37.5 -206.5zM652 1812l483 304l125 -252l-533 -193z" />
    <glyph glyph-name="Obreve" unicode="&#x14e;" 
d="M20 785q0 113 29 217t82.5 194.5t128 164.5t165 127t195 82t216.5 29q113 0 217 -29t194.5 -82t164.5 -127t127 -164.5t82 -194.5t29 -217q0 -112 -29 -216.5t-82 -195t-127 -165t-164.5 -128t-194.5 -82.5t-217 -29q-112 0 -216.5 29t-195 82.5t-165 128t-128 165
t-82.5 195t-29 216.5zM836 256q99 0 185.5 41.5t151 113t102 167t37.5 204.5q0 110 -37.5 206.5t-102 168t-151 113t-185.5 41.5t-186 -41.5t-152 -113t-102.5 -168t-37.5 -206.5q0 -109 37.5 -204.5t102.5 -167t152 -113t186 -41.5zM500 1946l200 109q15 -21 31 -40t35 -34
t41.5 -23.5t49.5 -8.5q26 0 47.5 8.5t40.5 23.5t35 34t30 40l205 -113q-21 -51 -57 -93.5t-83 -73.5t-102.5 -48t-115.5 -17q-61 0 -117.5 17.5t-103 49t-81.5 75t-55 94.5z" />
    <glyph glyph-name="Ocircumflex" unicode="&#xd4;" 
d="M20 785q0 113 29 217t82.5 194.5t128 164.5t165 127t195 82t216.5 29q113 0 217 -29t194.5 -82t164.5 -127t127 -164.5t82 -194.5t29 -217q0 -112 -29 -216.5t-82 -195t-127 -165t-164.5 -128t-194.5 -82.5t-217 -29q-112 0 -216.5 29t-195 82.5t-165 128t-128 165
t-82.5 195t-29 216.5zM836 256q99 0 185.5 41.5t151 113t102 167t37.5 204.5q0 110 -37.5 206.5t-102 168t-151 113t-185.5 41.5t-186 -41.5t-152 -113t-102.5 -168t-37.5 -206.5q0 -109 37.5 -204.5t102.5 -167t152 -113t186 -41.5zM411 1768l425 382l424 -382l-101 -128
l-323 186l-324 -186z" />
    <glyph glyph-name="Odieresis" unicode="&#xd6;" 
d="M20 785q0 113 29 217t82.5 194.5t128 164.5t165 127t195 82t216.5 29q113 0 217 -29t194.5 -82t164.5 -127t127 -164.5t82 -194.5t29 -217q0 -112 -29 -216.5t-82 -195t-127 -165t-164.5 -128t-194.5 -82.5t-217 -29q-112 0 -216.5 29t-195 82.5t-165 128t-128 165
t-82.5 195t-29 216.5zM836 256q99 0 185.5 41.5t151 113t102 167t37.5 204.5q0 110 -37.5 206.5t-102 168t-151 113t-185.5 41.5t-186 -41.5t-152 -113t-102.5 -168t-37.5 -206.5q0 -109 37.5 -204.5t102.5 -167t152 -113t186 -41.5zM1051 2034q36 0 67 -13.5t54.5 -36.5
t36.5 -54t13 -66q0 -37 -13 -69t-36.5 -55t-54.5 -36.5t-67 -13.5t-67.5 13.5t-55 36.5t-36.5 55t-13 69q0 35 13 66t36.5 54t55 36.5t67.5 13.5zM621 2034q35 0 66 -13.5t54 -36.5t36 -54t13 -66q0 -37 -13 -69t-36 -55t-54 -36.5t-66 -13.5q-37 0 -69 13.5t-55 36.5
t-36.5 55t-13.5 69q0 35 13.5 66t36.5 54t55 36.5t69 13.5z" />
    <glyph glyph-name="Ograve" unicode="&#xd2;" 
d="M20 785q0 113 29 217t82.5 194.5t128 164.5t165 127t195 82t216.5 29q113 0 217 -29t194.5 -82t164.5 -127t127 -164.5t82 -194.5t29 -217q0 -112 -29 -216.5t-82 -195t-127 -165t-164.5 -128t-194.5 -82.5t-217 -29q-112 0 -216.5 29t-195 82.5t-165 128t-128 165
t-82.5 195t-29 216.5zM836 256q99 0 185.5 41.5t151 113t102 167t37.5 204.5q0 110 -37.5 206.5t-102 168t-151 113t-185.5 41.5t-186 -41.5t-152 -113t-102.5 -168t-37.5 -206.5q0 -109 37.5 -204.5t102.5 -167t152 -113t186 -41.5zM481 2116l483 -304l-75 -141l-532 193z
" />
    <glyph glyph-name="Ohungarumlaut" unicode="&#x150;" 
d="M20 785q0 113 29 217t82.5 194.5t128 164.5t165 127t195 82t216.5 29q113 0 217 -29t194.5 -82t164.5 -127t127 -164.5t82 -194.5t29 -217q0 -112 -29 -216.5t-82 -195t-127 -165t-164.5 -128t-194.5 -82.5t-217 -29q-112 0 -216.5 29t-195 82.5t-165 128t-128 165
t-82.5 195t-29 216.5zM836 256q99 0 185.5 41.5t151 113t102 167t37.5 204.5q0 110 -37.5 206.5t-102 168t-151 113t-185.5 41.5t-186 -41.5t-152 -113t-102.5 -168t-37.5 -206.5q0 -109 37.5 -204.5t102.5 -167t152 -113t186 -41.5zM1082 2140l198 -83l-224 -407h-182z
M596 1650l179 490l200 -83l-197 -407h-182z" />
    <glyph glyph-name="Omacron" unicode="&#x14c;" 
d="M836 1599q113 0 217 -29t194.5 -82t164.5 -127t127 -164.5t82 -194.5t29 -217q0 -112 -29 -216.5t-82 -195t-127 -165t-164.5 -128t-194.5 -82.5t-217 -29q-112 0 -216.5 29t-195 82.5t-165 128t-128 165t-82.5 195t-29 216.5q0 113 29 217t82.5 194.5t128 164.5t165 127
t195 82t216.5 29zM836 256q99 0 185.5 41.5t151 113t102 167t37.5 204.5q0 110 -37.5 206.5t-102 168t-151 113t-185.5 41.5t-186 -41.5t-152 -113t-102.5 -168t-37.5 -206.5q0 -109 37.5 -204.5t102.5 -167t152 -113t186 -41.5zM546 1717v205h563v-205h-563z" />
    <glyph glyph-name="Oslashacute" unicode="&#x1fe;" 
d="M20 785q0 113 29 217t82.5 194.5t128 164.5t165 127t195 82t216.5 29q40 0 78 -3t76 -11l61 176l232 -82l-61 -177q95 -52 174 -126.5t135.5 -167t87.5 -199.5t31 -224q0 -112 -29 -216.5t-82 -195t-127 -165t-164.5 -128t-194.5 -82.5t-217 -29q-75 0 -141 12l-60 -167
l-234 80l58 167q-98 51 -179 126t-138.5 168.5t-89.5 202.5t-32 227zM561 352l332 955q-14 2 -29 3t-28 1q-99 0 -186 -41.5t-152 -113t-102.5 -168t-37.5 -206.5q0 -67 14.5 -129t41 -117t64 -101.5t83.5 -82.5zM790 258q12 -2 22.5 -2h23.5q99 0 185.5 41.5t151 113
t102 167t37.5 204.5q0 65 -13.5 126.5t-38.5 116t-60.5 101t-79.5 82.5zM532 1812l483 304l125 -252l-532 -193z" />
    <glyph glyph-name="Otilde" unicode="&#xd5;" 
d="M836 1599q113 0 217 -29t194.5 -82t164.5 -127t127 -164.5t82 -194.5t29 -217q0 -112 -29 -216.5t-82 -195t-127 -165t-164.5 -128t-194.5 -82.5t-217 -29q-112 0 -216.5 29t-195 82.5t-165 128t-128 165t-82.5 195t-29 216.5q0 113 29 217t82.5 194.5t128 164.5t165 127
t195 82t216.5 29zM358 782q0 -109 37.5 -204.5t102.5 -167t152 -113t186 -41.5t185.5 41.5t151 113t102 167t37.5 204.5q0 110 -37.5 206.5t-102 168t-151 113t-185.5 41.5t-186 -41.5t-152 -113t-102.5 -168t-37.5 -206.5zM689 1999q48 0 86 -16.5t70.5 -36.5t60 -36.5
t53.5 -16.5q10 0 22 4.5t22 15t16.5 28t6.5 44.5h182q0 -88 -15.5 -147.5t-43.5 -94.5t-67.5 -50t-88.5 -15q-47 0 -88 16.5t-76.5 36t-65.5 36t-56 16.5q-11 0 -23 -4t-22.5 -14.5t-17 -28t-6.5 -43.5h-181q0 86 18.5 144.5t50 94.5t73.5 51.5t90 15.5z" />
    <glyph glyph-name="Racute" unicode="&#x154;" horiz-adv-x="1381" 
d="M591 1567q168 0 302.5 -52t229 -142t145.5 -212t51 -263q0 -79 -18 -153t-51 -140.5t-80.5 -124t-106.5 -103.5q17 -21 38.5 -41t46 -35.5t52.5 -25t58 -9.5v-286h-41q-73 0 -141 20t-127 55t-108.5 81.5t-86.5 100.5q-31 -4 -62 -7t-64 -3q-17 0 -39.5 1.5t-45.5 3.5
t-44.5 6t-37.5 8v-246h-338v1567h468zM461 1280v-756q18 -4 44.5 -9t67.5 -5q85 0 159.5 30.5t129.5 83t87 123.5t32 151q0 81 -30.5 151t-84.5 122t-128 82t-161 30q-22 0 -42.5 -0.5t-37.5 -0.5q-19 -1 -36 -2zM939 2118l124 -253l-532 -192l-77 141z" />
    <glyph glyph-name="Rcaron" unicode="&#x158;" horiz-adv-x="1381" 
d="M123 1567h468q168 0 302.5 -52t229 -142t145.5 -212t51 -263q0 -79 -18 -153t-51 -140.5t-80.5 -124t-106.5 -103.5q17 -21 38.5 -41t46 -35.5t52.5 -25t58 -9.5v-286h-41q-73 0 -141 20t-127 55t-108.5 81.5t-86.5 100.5q-31 -4 -62 -7t-64 -3q-17 0 -39.5 1.5
t-45.5 3.5t-44.5 6t-37.5 8v-246h-338v1567zM461 1280v-756q18 -4 44.5 -9t67.5 -5q85 0 159.5 30.5t129.5 83t87 123.5t32 151q0 81 -30.5 151t-84.5 122t-128 82t-161 30q-22 0 -42.5 -0.5t-37.5 -0.5q-19 -1 -36 -2zM232 2026l99 126l324 -186l325 186l99 -126l-424 -384
z" />
    <glyph glyph-name="uni0156" unicode="&#x156;" horiz-adv-x="1381" 
d="M123 1567h468q168 0 302.5 -52t229 -142t145.5 -212t51 -263q0 -79 -18 -153t-51 -140.5t-80.5 -124t-106.5 -103.5q17 -21 38.5 -41t46 -35.5t52.5 -25t58 -9.5v-286h-41q-73 0 -141 20t-127 55t-108.5 81.5t-86.5 100.5q-31 -4 -62 -7t-64 -3q-17 0 -39.5 1.5
t-45.5 3.5t-44.5 6t-37.5 8v-246h-338v1567zM461 1280v-756q18 -4 44.5 -9t67.5 -5q85 0 159.5 30.5t129.5 83t87 123.5t32 151q0 81 -30.5 151t-84.5 122t-128 82t-161 30q-22 0 -42.5 -0.5t-37.5 -0.5q-19 -1 -36 -2zM713 -68q35 0 63.5 -12.5t49 -35t32 -53t11.5 -65.5
q0 -45 -8.5 -92t-21.5 -92t-27.5 -87t-26.5 -77h-138l8 191q-48 17 -79.5 59.5t-31.5 97.5q0 35 13 65.5t35.5 53t53.5 35t67 12.5z" />
    <glyph glyph-name="Sacute" unicode="&#x15a;" horiz-adv-x="1422" 
d="M30 1812l483 304l125 -252l-533 -193zM664 -31q-118 0 -226 34.5t-198.5 96.5t-162 148.5t-116.5 190.5l305 122q26 -65 65.5 -121t90 -97t110.5 -64t127 -23q79 0 148.5 25t121.5 68t82 101.5t30 124.5t-23.5 121t-65.5 99q-35 37 -77 59t-87.5 36t-93 24t-94 23.5
t-89.5 34t-81 54.5q-40 37 -64.5 89.5t-24.5 130.5q0 73 32.5 137t88 111.5t130.5 75t159 27.5q54 0 107.5 -9.5t97.5 -29.5l-156 -235q-19 10 -42 10q-30 0 -54.5 -17t-24.5 -48q0 -22 11 -37t29 -26q30 -19 68 -24t77 -14q109 -27 203.5 -79t164 -127t109.5 -172.5
t40 -216.5q0 -126 -57 -236t-155 -191.5t-228 -128.5t-277 -47z" />
    <glyph glyph-name="Scaron" unicode="&#x160;" horiz-adv-x="1422" 
d="M43 2026l100 126l325 -186l322 186l101 -126l-423 -384zM664 -31q-118 0 -226 34.5t-198.5 96.5t-162 148.5t-116.5 190.5l305 122q26 -65 65.5 -121t90 -97t110.5 -64t127 -23q79 0 148.5 25t121.5 68t82 101.5t30 124.5t-23.5 121t-65.5 99q-35 37 -77 59t-87.5 36
t-93 24t-94 23.5t-89.5 34t-81 54.5q-40 37 -64.5 89.5t-24.5 130.5q0 73 32.5 137t88 111.5t130.5 75t159 27.5q54 0 107.5 -9.5t97.5 -29.5l-156 -235q-19 10 -42 10q-30 0 -54.5 -17t-24.5 -48q0 -22 11 -37t29 -26q30 -19 68 -24t77 -14q109 -27 203.5 -79t164 -127
t109.5 -172.5t40 -216.5q0 -126 -57 -236t-155 -191.5t-228 -128.5t-277 -47z" />
    <glyph glyph-name="Scedilla" unicode="&#x15e;" horiz-adv-x="1422" 
d="M131 -207q34 -14 60 -23t56 -19q17 -6 29 -6q18 0 29.5 9t15.5 22q8 20 -2 40t-39 30q-17 6 -35 13t-33 12q-18 7 -35 13l59 143h146l-17 -90q65 -20 96.5 -69t31.5 -112q0 -47 -16.5 -85t-46 -64t-69 -40t-86.5 -14q-26 0 -55.5 3.5t-59.5 10t-58.5 15.5t-52.5 20z
M664 -31q-118 0 -226 34.5t-198.5 96.5t-162 148.5t-116.5 190.5l305 122q26 -65 65.5 -121t90 -97t110.5 -64t127 -23q79 0 148.5 25t121.5 68t82 101.5t30 124.5t-23.5 121t-65.5 99q-35 37 -77 59t-87.5 36t-93 24t-94 23.5t-89.5 34t-81 54.5q-40 37 -64.5 89.5
t-24.5 130.5q0 73 32.5 137t88 111.5t130.5 75t159 27.5q54 0 107.5 -9.5t97.5 -29.5l-156 -235q-19 10 -42 10q-30 0 -54.5 -17t-24.5 -48q0 -22 11 -37t29 -26q30 -19 68 -24t77 -14q109 -27 203.5 -79t164 -127t109.5 -172.5t40 -216.5q0 -126 -57 -236t-155 -191.5
t-228 -128.5t-277 -47z" />
    <glyph glyph-name="Scircumflex" unicode="&#x15c;" horiz-adv-x="1422" 
d="M43 1770l425 382l423 -382l-101 -128l-322 188l-325 -188zM664 -31q-118 0 -226 34.5t-198.5 96.5t-162 148.5t-116.5 190.5l305 122q26 -65 65.5 -121t90 -97t110.5 -64t127 -23q79 0 148.5 25t121.5 68t82 101.5t30 124.5t-23.5 121t-65.5 99q-35 37 -77 59t-87.5 36
t-93 24t-94 23.5t-89.5 34t-81 54.5q-40 37 -64.5 89.5t-24.5 130.5q0 73 32.5 137t88 111.5t130.5 75t159 27.5q54 0 107.5 -9.5t97.5 -29.5l-156 -235q-19 10 -42 10q-30 0 -54.5 -17t-24.5 -48q0 -22 11 -37t29 -26q30 -19 68 -24t77 -14q109 -27 203.5 -79t164 -127
t109.5 -172.5t40 -216.5q0 -126 -57 -236t-155 -191.5t-228 -128.5t-277 -47z" />
    <glyph glyph-name="uni0218" unicode="&#x218;" horiz-adv-x="1422" 
d="M58 -234q0 35 12.5 65.5t35 53t53 35t66.5 12.5q35 0 63.5 -12.5t49 -35t32 -53t11.5 -65.5q0 -45 -8.5 -92t-21.5 -92t-27.5 -87t-26.5 -77h-137l7 191q-49 17 -79 59.5t-30 97.5zM664 -31q-118 0 -226 34.5t-198.5 96.5t-162 148.5t-116.5 190.5l305 122
q26 -65 65.5 -121t90 -97t110.5 -64t127 -23q79 0 148.5 25t121.5 68t82 101.5t30 124.5t-23.5 121t-65.5 99q-35 37 -77 59t-87.5 36t-93 24t-94 23.5t-89.5 34t-81 54.5q-40 37 -64.5 89.5t-24.5 130.5q0 73 32.5 137t88 111.5t130.5 75t159 27.5q54 0 107.5 -9.5
t97.5 -29.5l-156 -235q-19 10 -42 10q-30 0 -54.5 -17t-24.5 -48q0 -22 11 -37t29 -26q30 -19 68 -24t77 -14q109 -27 203.5 -79t164 -127t109.5 -172.5t40 -216.5q0 -126 -57 -236t-155 -191.5t-228 -128.5t-277 -47z" />
    <glyph glyph-name="Tbar" unicode="&#x166;" horiz-adv-x="1287" 
d="M20 1567h1246v-285h-460v-111h259v-246h-259v-925h-343v925h-270v246h270v111h-443v285z" />
    <glyph glyph-name="Tcaron" unicode="&#x164;" horiz-adv-x="1287" 
d="M20 1567h1246v-285h-460v-1282h-343v1282h-443v285zM208 2031l101 128l324 -186l323 186l100 -128l-423 -382z" />
    <glyph glyph-name="uni021A" unicode="&#x21a;" horiz-adv-x="1287" 
d="M20 1567h1246v-285h-460v-1282h-343v1282h-443v285zM643 -68q35 0 63.5 -12.5t49 -35t32 -53t11.5 -65.5q0 -45 -8.5 -92t-21 -92t-27.5 -87t-27 -77h-138l8 191q-48 17 -79.5 59.5t-31.5 97.5q0 35 13 65.5t35.5 53t53.5 35t67 12.5z" />
    <glyph glyph-name="Uacute" unicode="&#xda;" horiz-adv-x="1703" 
d="M82 1567h338v-862q0 -99 34.5 -181.5t93.5 -142t139 -92.5t170 -33t167.5 33t135 92.5t90.5 142t33 181.5v862h338v-831q0 -190 -60 -333.5t-163.5 -240t-242.5 -145t-298 -48.5q-106 0 -205 21.5t-185 64.5t-157 107.5t-121.5 149.5t-78.5 191t-28 233v831zM1222 2111
l126 -251l-532 -193l-77 142z" />
    <glyph glyph-name="Ubreve" unicode="&#x16c;" horiz-adv-x="1703" 
d="M82 736v831h338v-862q0 -99 34.5 -181.5t93.5 -142t139 -92.5t170 -33t167.5 33t135 92.5t90.5 142t33 181.5v862h338v-831q0 -190 -60 -333.5t-163.5 -240t-242.5 -145t-298 -48.5q-106 0 -205 21.5t-185 64.5t-157 107.5t-121.5 149.5t-78.5 191t-28 233zM500 1944
l200 107q15 -20 31 -39t35 -33.5t41.5 -23t49.5 -8.5q26 0 47.5 8.5t40.5 23t35 33.5t30 39l205 -112q-21 -51 -57 -93t-83 -73t-102.5 -48t-115.5 -17q-61 0 -117.5 17.5t-103 49t-81.5 74.5t-55 95z" />
    <glyph glyph-name="Ucircumflex" unicode="&#xdb;" horiz-adv-x="1703" 
d="M82 736v831h338v-862q0 -99 34.5 -181.5t93.5 -142t139 -92.5t170 -33t167.5 33t135 92.5t90.5 142t33 181.5v862h338v-831q0 -190 -60 -333.5t-163.5 -240t-242.5 -145t-298 -48.5q-106 0 -205 21.5t-185 64.5t-157 107.5t-121.5 149.5t-78.5 191t-28 233zM432 1765
l425 384l423 -384l-101 -127l-322 186l-325 -186z" />
    <glyph glyph-name="Udieresis" unicode="&#xdc;" horiz-adv-x="1703" 
d="M420 1567v-862q0 -99 34.5 -181.5t93.5 -142t139 -92.5t170 -33t167.5 33t135 92.5t90.5 142t33 181.5v862h338v-831q0 -190 -60 -333.5t-163.5 -240t-242.5 -145t-298 -48.5q-106 0 -205 21.5t-185 64.5t-157 107.5t-121.5 149.5t-78.5 191t-28 233v831h338zM471 1862
q0 35 13.5 66t36.5 54t55 36t69 13q35 0 66.5 -13t54.5 -36t36.5 -54t13.5 -66q0 -37 -13.5 -69t-36.5 -55t-54.5 -36.5t-66.5 -13.5q-37 0 -69 13.5t-55 36.5t-36.5 55t-13.5 69zM1075 2031q36 0 67.5 -13t55 -36t37 -54t13.5 -66q0 -37 -13.5 -69t-37 -55t-55 -36.5
t-67.5 -13.5t-67 13.5t-54.5 36.5t-37 55t-13.5 69q0 35 13.5 66t37 54t54.5 36t67 13z" />
    <glyph glyph-name="Ugrave" unicode="&#xd9;" horiz-adv-x="1703" 
d="M82 736v831h338v-862q0 -99 34.5 -181.5t93.5 -142t139 -92.5t170 -33t167.5 33t135 92.5t90.5 142t33 181.5v862h338v-831q0 -190 -60 -333.5t-163.5 -240t-242.5 -145t-298 -48.5q-106 0 -205 21.5t-185 64.5t-157 107.5t-121.5 149.5t-78.5 191t-28 233zM490 2118
l483 -304l-75 -141l-533 192z" />
    <glyph glyph-name="Uhungarumlaut" unicode="&#x170;" horiz-adv-x="1703" 
d="M420 1567v-862q0 -99 34.5 -181.5t93.5 -142t139 -92.5t170 -33t167.5 33t135 92.5t90.5 142t33 181.5v862h338v-831q0 -190 -60 -333.5t-163.5 -240t-242.5 -145t-298 -48.5q-106 0 -205 21.5t-185 64.5t-157 107.5t-121.5 149.5t-78.5 191t-28 233v831h338zM893 1649
l206 489l200 -83l-224 -406h-182zM792 2138l201 -83l-196 -406h-183z" />
    <glyph glyph-name="Umacron" unicode="&#x16a;" horiz-adv-x="1703" 
d="M82 1567h338v-862q0 -99 34.5 -181.5t93.5 -142t139 -92.5t170 -33t167.5 33t135 92.5t90.5 142t33 181.5v862h338v-831q0 -190 -60 -333.5t-163.5 -240t-242.5 -145t-298 -48.5q-106 0 -205 21.5t-185 64.5t-157 107.5t-121.5 149.5t-78.5 191t-28 233v831zM575 1918
h563v-205h-563v205z" />
    <glyph glyph-name="Uogonek" unicode="&#x172;" horiz-adv-x="1703" 
d="M82 1567h338v-862q0 -99 34.5 -181.5t93.5 -142t139 -92.5t170 -33t167.5 33t135 92.5t90.5 142t33 181.5v862h338v-831q0 -181 -54.5 -320t-150 -235t-225 -149t-278.5 -61v-2q-18 -10 -42.5 -24t-46.5 -31t-37.5 -38.5t-15.5 -46.5q0 -15 6.5 -25t17.5 -15.5t25 -7.5
t29 -2t30 1t26 3v-232l-22 -2q-9 0 -20.5 -0.5t-22.5 -0.5q-51 0 -100.5 12.5t-89.5 39.5t-64.5 68.5t-24.5 99.5q0 36 10.5 67t28.5 57.5t42.5 48.5t52.5 40q-131 23 -243 81.5t-194.5 153t-129 225t-46.5 295.5v831z" />
    <glyph glyph-name="Uring" unicode="&#x16e;" horiz-adv-x="1703" 
d="M82 736v831h338v-862q0 -99 34.5 -181.5t93.5 -142t139 -92.5t170 -33t167.5 33t135 92.5t90.5 142t33 181.5v862h338v-831q0 -190 -60 -333.5t-163.5 -240t-242.5 -145t-298 -48.5q-106 0 -205 21.5t-185 64.5t-157 107.5t-121.5 149.5t-78.5 191t-28 233zM857 2229
q59 0 112 -23.5t93 -63.5t63.5 -93.5t23.5 -113.5q0 -61 -23.5 -114t-63.5 -92t-93 -61.5t-112 -22.5q-61 0 -114 22.5t-92.5 61.5t-62.5 92t-23 114q0 60 23 113.5t62.5 93.5t92.5 63.5t114 23.5zM751 1935q0 -22 8 -41t22.5 -33t34 -22t41.5 -8q21 0 40 8t33 22t22.5 33
t8.5 41t-8.5 41t-22.5 33t-33 22t-40 8q-22 0 -41.5 -8t-34 -22t-22.5 -33t-8 -41z" />
    <glyph glyph-name="Utilde" unicode="&#x168;" horiz-adv-x="1703" 
d="M82 736v831h338v-862q0 -99 34.5 -181.5t93.5 -142t139 -92.5t170 -33t167.5 33t135 92.5t90.5 142t33 181.5v862h338v-831q0 -190 -60 -333.5t-163.5 -240t-242.5 -145t-298 -48.5q-106 0 -205 21.5t-185 64.5t-157 107.5t-121.5 149.5t-78.5 191t-28 233zM500 1688
q0 85 18.5 143.5t50 94.5t74 51.5t91.5 15.5q47 0 84.5 -16.5t69.5 -37t60 -37t54 -16.5q11 0 22.5 4.5t21.5 15t16 28t6 44.5h183q0 -88 -15.5 -147t-43.5 -94.5t-67.5 -50.5t-88.5 -15q-47 0 -88.5 16.5t-77 37t-65.5 37t-56 16.5q-11 0 -22.5 -4t-21.5 -14.5t-16 -28
t-6 -43.5h-183z" />
    <glyph glyph-name="Wacute" unicode="&#x1e82;" horiz-adv-x="1702" 
d="M335 1567l204 -676l45 -167h8l249 629h21l251 -629h7l46 167l203 676h365l-505 -1598h-132l-245 642l-241 -642h-131l-512 1598h367zM1116 2116l125 -252l-533 -193l-75 141z" />
    <glyph glyph-name="Wcircumflex" unicode="&#x174;" horiz-adv-x="1702" 
d="M-32 1567h367l204 -676l45 -167h8l249 629h21l251 -629h7l46 167l203 676h365l-505 -1598h-132l-245 642l-241 -642h-131zM389 1765l423 384l425 -384l-100 -127l-325 186l-322 -186z" />
    <glyph glyph-name="Wdieresis" unicode="&#x1e84;" horiz-adv-x="1702" 
d="M335 1567l204 -676l45 -167h8l249 629h21l251 -629h7l46 167l203 676h365l-505 -1598h-132l-245 642l-241 -642h-131l-512 1598h367zM601 2034q35 0 66 -13.5t54 -36.5t36 -54t13 -66q0 -37 -13 -69t-36 -55t-54 -36.5t-66 -13.5q-37 0 -69 13.5t-55 36.5t-36.5 55
t-13.5 69q0 35 13.5 66t36.5 54t55 36.5t69 13.5zM858 1864q0 35 13.5 66t36.5 54t55 36.5t68 13.5t67 -13.5t54 -36.5t36 -54t13 -66q0 -37 -13 -69t-36 -55t-54 -36.5t-67 -13.5t-68 13.5t-55 36.5t-36.5 55t-13.5 69z" />
    <glyph glyph-name="Wgrave" unicode="&#x1e80;" horiz-adv-x="1702" 
d="M-32 1567h367l204 -676l45 -167h8l249 629h21l251 -629h7l46 167l203 676h365l-505 -1598h-132l-245 642l-241 -642h-131zM481 2116l483 -304l-75 -141l-532 193z" />
    <glyph glyph-name="Yacute" unicode="&#xdd;" horiz-adv-x="1157" 
d="M329 1567l251 -488l248 488h350l-430 -790v-777h-338v775l-430 792h349zM433 1811l485 302l125 -251l-533 -193z" />
    <glyph glyph-name="ycircumflex" unicode="&#x177;" horiz-adv-x="1157" 
d="M329 1567l251 -488l248 488h350l-430 -790v-777h-338v775l-430 792h349zM162 1768l423 382l425 -382l-100 -128l-325 186l-322 -186z" />
    <glyph glyph-name="Ydieresis" unicode="&#x178;" horiz-adv-x="1157" 
d="M329 1567l251 -488l248 488h350l-430 -790v-777h-338v775l-430 792h349zM362 2034q36 0 67 -13.5t54 -36.5t36 -54t13 -66q0 -37 -13 -69t-36 -55t-54 -36.5t-67 -13.5t-68 13.5t-55.5 36.5t-37 55t-13.5 69q0 35 13.5 66t37 54t55.5 36.5t68 13.5zM792 2034
q36 0 67.5 -13.5t55 -36.5t36.5 -54t13 -66q0 -37 -13 -69t-36.5 -55t-55 -36.5t-67.5 -13.5t-67 13.5t-54.5 36.5t-36.5 55t-13 69q0 35 13 66t36.5 54t54.5 36.5t67 13.5z" />
    <glyph glyph-name="Ygrave" unicode="&#x1ef2;" horiz-adv-x="1157" 
d="M329 1567l251 -488l248 488h350l-430 -790v-777h-338v775l-430 792h349zM73 1864l125 252l485 -304l-77 -141z" />
    <glyph glyph-name="Zacute" unicode="&#x179;" horiz-adv-x="1046" 
d="M985 287v-287h-944l485 1280h-444v287h903l-482 -1280h482zM275 1812l483 304l124 -252l-532 -193z" />
    <glyph glyph-name="Zcaron" unicode="&#x17d;" horiz-adv-x="1046" 
d="M985 287v-287h-944l485 1280h-444v287h903l-482 -1280h482zM111 2026l101 126l322 -186l324 186l101 -126l-425 -384z" />
    <glyph glyph-name="Zdotaccent" unicode="&#x17b;" horiz-adv-x="1046" 
d="M526 1280h-444v287h903l-482 -1280h482v-287h-944zM534 2039q41 0 76.5 -15t62 -41t41.5 -61.5t15 -76.5q0 -42 -15 -77.5t-41.5 -62t-62 -41.5t-76.5 -15q-42 0 -77.5 15t-62 41.5t-41.5 62t-15 77.5q0 41 15 76.5t41.5 61.5t62 41t77.5 15z" />
    <glyph glyph-name="aacute" unicode="&#xe1;" horiz-adv-x="1289" 
d="M616 1597h58l635 -1597h-358l-67 184h-481l-65 -184h-358zM894 2116l127 -252l-533 -193l-77 141zM799 430l-89 246l-56 188h-17l-57 -188l-88 -246h307z" />
    <glyph glyph-name="abreve" unicode="&#x103;" horiz-adv-x="1289" 
d="M-20 0l636 1597h58l635 -1597h-358l-67 184h-481l-65 -184h-358zM287 1946l201 109q14 -21 30 -40t35 -34t41 -23.5t49 -8.5q26 0 48 8.5t41 23.5t35 34t30 40l205 -113q-21 -51 -57 -93.5t-82.5 -73.5t-102.5 -48t-117 -17t-117 17.5t-102.5 49t-81.5 75t-55 94.5z
M799 430l-89 246l-56 188h-17l-57 -188l-88 -246h307z" />
    <glyph glyph-name="acircumflex" unicode="&#xe2;" horiz-adv-x="1289" 
d="M616 1597h58l635 -1597h-358l-67 184h-481l-65 -184h-358zM218 1765l425 384l424 -384l-101 -127l-323 186l-324 -186zM799 430l-89 246l-56 188h-17l-57 -188l-88 -246h307z" />
    <glyph glyph-name="adieresis" unicode="&#xe4;" horiz-adv-x="1289" 
d="M616 1597h58l635 -1597h-358l-67 184h-481l-65 -184h-358zM256 1864q0 35 13.5 66t36.5 54t55 36.5t69 13.5q35 0 66.5 -13.5t54.5 -36.5t36.5 -54t13.5 -66q0 -37 -13.5 -69t-36.5 -55t-54.5 -36.5t-66.5 -13.5q-37 0 -69 13.5t-55 36.5t-36.5 55t-13.5 69zM688 1864
q0 35 13.5 66t37 54t54.5 36.5t67 13.5t67.5 -13.5t55 -36.5t37 -54t13.5 -66q0 -37 -13.5 -69t-37 -55t-55 -36.5t-67.5 -13.5t-67 13.5t-54.5 36.5t-37 55t-13.5 69zM492 430h307l-89 246l-56 188h-17l-57 -188z" />
    <glyph glyph-name="aeacute" unicode="&#x1fd;" horiz-adv-x="1911" 
d="M-34 0l845 1567h1019v-287h-564v-604h564v-246h-564v-143h564v-287h-905v184h-492l-95 -184h-372zM1539 2116l127 -252l-533 -193l-77 141zM563 430h362v666h-22l-128 -267z" />
    <glyph glyph-name="agrave" unicode="&#xe0;" horiz-adv-x="1289" 
d="M-20 0l636 1597h58l635 -1597h-358l-67 184h-481l-65 -184h-358zM304 2123l483 -302l-77 -142l-533 193zM492 430h307l-89 246l-56 188h-17l-57 -188z" />
    <glyph glyph-name="amacron" unicode="&#x101;" horiz-adv-x="1289" 
d="M-20 0l636 1597h58l635 -1597h-358l-67 184h-481l-65 -184h-358zM355 1713v205h563v-205h-563zM492 430h307l-89 246l-56 188h-17l-57 -188z" />
    <glyph glyph-name="aogonek" unicode="&#x105;" horiz-adv-x="1289" 
d="M616 1597h58l628 -1580l9 -17q-19 -10 -43.5 -24t-46.5 -31t-37 -38.5t-15 -46.5q0 -15 6.5 -25t17.5 -15.5t25 -7.5t28 -2q16 0 30.5 1t25.5 3v-232l-22 -2q-9 -1 -20.5 -1.5t-22.5 -0.5q-50 0 -100 12.5t-89.5 39.5t-64 68.5t-24.5 100.5q0 66 32 115.5t82 85.5h-122
l-67 184h-481l-65 -184h-358zM799 430l-89 246l-56 188h-17l-57 -188l-88 -246h307z" />
    <glyph glyph-name="aring" unicode="&#xe5;" horiz-adv-x="1289" 
d="M551 1434q-43 15 -79 41.5t-62 62.5t-40.5 79.5t-14.5 92.5q0 60 22.5 113.5t61.5 93.5t92 63.5t114 23.5q60 0 113.5 -23.5t93.5 -63.5t63.5 -93.5t23.5 -113.5q0 -49 -15.5 -92.5t-42.5 -79t-63.5 -62t-78.5 -41.5l570 -1435h-358l-67 184h-481l-65 -184h-358zM799 430
l-89 246l-56 188h-17l-57 -188l-88 -246h307zM645 1606q22 0 41 8t33 21.5t22 33t8 41.5q0 44 -30 74t-74 30q-22 0 -41.5 -8t-33 -22t-21.5 -33t-8 -41q0 -45 29.5 -74.5t74.5 -29.5z" />
    <glyph glyph-name="atilde" unicode="&#xe3;" horiz-adv-x="1289" 
d="M616 1597h58l635 -1597h-358l-67 184h-481l-65 -184h-358zM236 1693q0 86 18.5 144.5t50 94.5t74 51.5t90.5 15.5q47 0 85 -16.5t70 -36.5t59.5 -36.5t53.5 -16.5q11 0 23 4.5t22.5 15t17 28t6.5 44.5h180q0 -88 -15.5 -147.5t-43.5 -94.5t-67.5 -50t-88.5 -15
q-47 0 -88 16.5t-76.5 36t-65.5 36t-56 16.5q-10 0 -22 -4t-22 -14.5t-16.5 -28t-6.5 -43.5h-182zM492 430h307l-89 246l-56 188h-17l-57 -188z" />
    <glyph glyph-name="cacute" unicode="&#x107;" horiz-adv-x="1287" 
d="M20 785q0 113 29 217t81.5 194t126.5 164t164 126.5t194 81.5t216 29q91 0 166 -14t148 -44l-94 -273q-50 25 -98.5 35t-105.5 10q-99 0 -188 -40t-156 -110.5t-106 -167t-39 -208.5q0 -109 39 -205t106 -168t156 -114t188 -42q57 0 109.5 15t101.5 40l118 -263
q-82 -36 -164.5 -57.5t-180.5 -21.5q-112 0 -216 29t-194 82t-164 127t-126.5 164.5t-81.5 195.5t-29 218zM637 1816l483 304l126 -253l-533 -191z" />
    <glyph glyph-name="ccaron" unicode="&#x10d;" horiz-adv-x="1217" 
d="M20 785q0 113 29 217t81.5 194t126.5 164t164 126.5t194 81.5t216 29q91 0 166 -14t148 -44l-94 -273q-50 25 -98.5 35t-105.5 10q-99 0 -188 -40t-156 -110.5t-106 -167t-39 -208.5q0 -109 39 -205t106 -168t156 -114t188 -42q57 0 109.5 15t101.5 40l118 -263
q-82 -36 -164.5 -57.5t-180.5 -21.5q-112 0 -216 29t-194 82t-164 127t-126.5 164.5t-81.5 195.5t-29 218zM408 2028l101 126l322 -186l324 186l101 -126l-425 -383z" />
    <glyph glyph-name="ccedilla" unicode="&#xe7;" horiz-adv-x="1217" 
d="M831 1597q91 0 166 -14t148 -44l-94 -273q-50 25 -98.5 35t-105.5 10q-99 0 -188 -40t-156 -110.5t-106 -167t-39 -208.5q0 -109 39 -205t106 -168t156 -114t188 -42q57 0 109.5 15t101.5 40l118 -263q-71 -31 -142 -51.5t-152 -25.5l-5 -34q65 -20 96.5 -69t31.5 -112
q0 -47 -16.5 -85t-46 -64t-69 -40t-86.5 -14q-26 0 -55.5 3.5t-59.5 10t-58.5 15.5t-52.5 20l82 191q34 -14 60 -23t56 -19q17 -6 29 -6q18 0 29.5 9t15.5 22q8 20 -2 40t-39 30q-17 6 -35 13t-33 12q-18 7 -35 13l38 92q-100 13 -191.5 48.5t-170 91t-142.5 127.5
t-109 157.5t-69.5 183t-24.5 201.5q0 113 29 217t81.5 194t126.5 164t164 126.5t194 81.5t216 29z" />
    <glyph glyph-name="cdotaccent" unicode="&#x10b;" horiz-adv-x="1217" 
d="M20 785q0 113 29 217t81.5 194t126.5 164t164 126.5t194 81.5t216 29q91 0 166 -14t148 -44l-94 -273q-50 25 -98.5 35t-105.5 10q-99 0 -188 -40t-156 -110.5t-106 -167t-39 -208.5q0 -109 39 -205t106 -168t156 -114t188 -42q57 0 109.5 15t101.5 40l118 -263
q-82 -36 -164.5 -57.5t-180.5 -21.5q-112 0 -216 29t-194 82t-164 127t-126.5 164.5t-81.5 195.5t-29 218zM857 2039q40 0 75.5 -15t61.5 -41t41.5 -61.5t15.5 -76.5q0 -42 -15.5 -77.5t-41.5 -62t-61.5 -41.5t-75.5 -15q-42 0 -78 15t-62.5 41.5t-42 62t-15.5 77.5
q0 41 15.5 76.5t42 61.5t62.5 41t78 15z" />
    <glyph glyph-name="dcaron" unicode="&#x10f;" horiz-adv-x="1389" 
d="M123 1567h462q109 0 209.5 -28t188 -79t158.5 -122.5t122 -158.5t78.5 -187.5t27.5 -209.5q0 -108 -28 -208.5t-78.5 -187.5t-122 -158t-158.5 -121.5t-187.5 -78.5t-209.5 -28h-462v1567zM461 1280v-993h112q98 0 181.5 39.5t145 107.5t96.5 158t35 190q0 102 -35.5 193
t-97 158.5t-145 107t-180.5 39.5h-112zM222 2010l99 128l324 -186l324 186l99 -128l-423 -382z" />
    <glyph glyph-name="dcroat" unicode="&#x111;" horiz-adv-x="1401" 
d="M135 922v645h462q109 0 209.5 -28t188 -79t158.5 -122.5t122 -158.5t78.5 -187.5t27.5 -209.5q0 -108 -28 -208.5t-78.5 -187.5t-122 -158t-158.5 -121.5t-187.5 -78.5t-209.5 -28h-462v676h-115v246h115zM473 922h223v-246h-223v-389h112q98 0 182 39.5t145.5 107.5
t96 158t34.5 190q0 102 -35.5 193t-97 158.5t-145 107t-180.5 39.5h-112v-358z" />
    <glyph glyph-name="eacute" unicode="&#xe9;" horiz-adv-x="1108" 
d="M1026 1567v-287h-563v-604h563v-246h-563v-143h563v-287h-903v1567h903zM393 1812l484 304l125 -252l-533 -193z" />
    <glyph glyph-name="ecaron" unicode="&#x11b;" horiz-adv-x="1108" 
d="M1026 1567v-287h-563v-604h563v-246h-563v-143h563v-287h-903v1567h903zM152 2026l101 126l322 -186l324 186l101 -126l-425 -384z" />
    <glyph glyph-name="ecircumflex" unicode="&#xea;" horiz-adv-x="1108" 
d="M123 0v1567h903v-287h-563v-604h563v-246h-563v-143h563v-287h-903zM572 2152l423 -382l-101 -128l-322 188l-325 -188l-100 128z" />
    <glyph glyph-name="edieresis" unicode="&#xeb;" horiz-adv-x="1108" 
d="M123 0v1567h903v-287h-563v-604h563v-246h-563v-143h563v-287h-903zM777 2034q36 0 67 -13.5t54.5 -36.5t37 -54t13.5 -66q0 -37 -13.5 -69t-37 -55t-54.5 -36.5t-67 -13.5q-37 0 -68.5 13.5t-54.5 36.5t-36.5 55t-13.5 69q0 35 13.5 66t36.5 54t54.5 36.5t68.5 13.5z
M346 2034q35 0 66 -13.5t54 -36.5t36 -54t13 -66q0 -37 -13 -69t-36 -55t-54 -36.5t-66 -13.5q-37 0 -69 13.5t-55 36.5t-36.5 55t-13.5 69q0 35 13.5 66t36.5 54t55 36.5t69 13.5z" />
    <glyph glyph-name="edotaccent" unicode="&#x117;" horiz-adv-x="1108" 
d="M1026 1567v-287h-563v-604h563v-246h-563v-143h563v-287h-903v1567h903zM401 1845q0 41 15.5 76.5t42 61.5t62 41t76.5 15t77 -15t62 -41t41 -61.5t15 -76.5q0 -42 -15 -77.5t-41 -62t-62 -41.5t-77 -15t-76.5 15t-62 41.5t-42 62t-15.5 77.5z" />
    <glyph glyph-name="egrave" unicode="&#xe8;" horiz-adv-x="1108" 
d="M1026 1567v-287h-563v-604h563v-246h-563v-143h563v-287h-903v1567h903zM188 1864l126 252l483 -304l-77 -141z" />
    <glyph glyph-name="emacron" unicode="&#x113;" horiz-adv-x="1108" 
d="M123 1567h903v-287h-563v-604h563v-246h-563v-143h563v-287h-903v1567zM857 1918v-205h-563v205h563z" />
    <glyph glyph-name="eogonek" unicode="&#x119;" horiz-adv-x="1108" 
d="M123 0v1567h903v-287h-563v-604h563v-246h-563v-143h563v-287q-19 -10 -43.5 -24t-46.5 -31t-37 -38.5t-15 -46.5q0 -15 6.5 -25t17.5 -15.5t25 -7.5t28 -2q16 0 30.5 1t25.5 3v-232l-22 -2q-9 -1 -20.5 -1.5t-22.5 -0.5q-51 0 -100.5 12.5t-89 39.5t-64 68.5
t-24.5 100.5q0 66 33 115.5t81 85.5h-665z" />
    <glyph glyph-name="gbreve" unicode="&#x11f;" horiz-adv-x="1444" 
d="M20 785q0 113 28.5 217t81 194t126 164t163 126.5t193 81.5t214.5 29q110 0 211 -22.5t191 -69.5l-136 -256q-51 30 -110 46t-122 16q-104 0 -195.5 -41.5t-159.5 -113t-107.5 -168t-39.5 -206.5q0 -109 39.5 -204.5t107.5 -167t159.5 -113t195.5 -41.5q50 0 89 8.5
t68 22.5v633h334v-756q-106 -91 -240.5 -143t-284.5 -52q-111 0 -214.5 29t-193 82.5t-163 128t-126 165t-81 195t-28.5 216.5zM455 1946l202 109q15 -21 30.5 -40t34.5 -34t41 -23.5t49 -8.5q26 0 48 8.5t41 23.5t35 34t30 40l204 -113q-20 -51 -56 -93.5t-82.5 -73.5
t-102.5 -48t-117 -17t-117.5 17.5t-103 49t-81.5 75t-55 94.5z" />
    <glyph glyph-name="gdotaccent" unicode="&#x121;" horiz-adv-x="1444" 
d="M20 785q0 113 29 217t81.5 194t126 164t163.5 126.5t193 81.5t215 29q109 0 209.5 -22.5t191.5 -69.5l-135 -256q-53 30 -112 46t-122 16q-103 0 -194.5 -41.5t-160 -113t-108 -168t-39.5 -206.5q0 -109 39.5 -204.5t108 -167t160 -113t194.5 -41.5q51 0 90 8.5t67 22.5
v633h335v-756q-107 -91 -241 -143t-283 -52q-112 0 -215 29t-193 82.5t-163.5 128t-126 165t-81.5 195t-29 216.5zM811 2039q41 0 76.5 -15t61.5 -41t41 -61.5t15 -76.5q0 -42 -15 -77.5t-41 -62t-61.5 -41.5t-76.5 -15q-42 0 -78 15t-62.5 41.5t-41.5 62t-15 77.5
q0 41 15 76.5t41.5 61.5t62.5 41t78 15z" />
    <glyph glyph-name="uni0123" unicode="&#x123;" horiz-adv-x="1444" 
d="M20 785q0 113 28.5 217t81 194t126 164t163 126.5t193 81.5t214.5 29q110 0 211 -22.5t191 -69.5l-136 -256q-51 30 -110 46t-122 16q-104 0 -195.5 -41.5t-159.5 -113t-107.5 -168t-39.5 -206.5q0 -109 39.5 -204.5t107.5 -167t159.5 -113t195.5 -41.5q50 0 89 8.5
t68 22.5v633h334v-756q-106 -91 -240.5 -143t-284.5 -52q-111 0 -214.5 29t-193 82.5t-163 128t-126 165t-81 195t-28.5 216.5zM645 -234q0 35 12.5 65.5t35 53t53 35t66.5 12.5q35 0 63.5 -12.5t48.5 -35t31.5 -53t11.5 -65.5q0 -45 -8.5 -92t-21 -92t-27 -87t-26.5 -77
h-137l7 191q-49 17 -79 59.5t-30 97.5z" />
    <glyph glyph-name="hbar" unicode="&#x127;" horiz-adv-x="1476" 
d="M41 1171h84v396h338v-396h552v396h338v-396h82v-246h-82v-925h-338v430h-552v-430h-338v925h-84v246zM463 925v-249h552v249h-552z" />
    <glyph glyph-name="iacute" unicode="&#xed;" horiz-adv-x="584" 
d="M123 1567h338v-1567h-338v1567zM99 1812l483 304l125 -252l-533 -193z" />
    <glyph glyph-name="ibreve" unicode="&#x12d;" horiz-adv-x="584" 
d="M123 1567h338v-1567h-338v1567zM-53 1946l200 109q15 -21 31 -40t35 -34t41.5 -23.5t49.5 -8.5q26 0 47.5 8.5t40.5 23.5t35 34t30 40l205 -113q-21 -51 -57 -93.5t-83 -73.5t-102.5 -48t-115.5 -17q-61 0 -117.5 17.5t-103 49t-81.5 75t-55 94.5z" />
    <glyph glyph-name="icircumflex" unicode="&#xee;" horiz-adv-x="584" 
d="M123 1567h338v-1567h-338v1567zM-123 1770l423 382l425 -382l-100 -128l-325 188l-322 -188z" />
    <glyph glyph-name="idieresis" unicode="&#xef;" horiz-adv-x="584" 
d="M123 1567h338v-1567h-338v1567zM-82 1864q0 35 13.5 66t36.5 54t55 36.5t69 13.5q35 0 66.5 -13.5t54.5 -36.5t36.5 -54t13.5 -66q0 -37 -13.5 -69t-36.5 -55t-54.5 -36.5t-66.5 -13.5q-37 0 -69 13.5t-55 36.5t-36.5 55t-13.5 69zM522 2034q36 0 67.5 -13.5t55 -36.5
t37 -54t13.5 -66q0 -37 -13.5 -69t-37 -55t-55 -36.5t-67.5 -13.5t-67 13.5t-54.5 36.5t-37 55t-13.5 69q0 35 13.5 66t37 54t54.5 36.5t67 13.5z" />
    <glyph glyph-name="igrave" unicode="&#xec;" horiz-adv-x="584" 
d="M123 1567h338v-1567h-338v1567zM53 2116l483 -304l-75 -141l-533 193z" />
    <glyph glyph-name="ij" unicode="&#x133;" horiz-adv-x="1372" 
d="M141 396l278 84q15 -45 42 -85.5t62.5 -71.5t79.5 -49t93 -18t92 18.5t74.5 50t50 75t18.5 92.5l-1 1075h338l1 -1024q0 -119 -45 -223.5t-122.5 -182.5t-182 -123t-223.5 -45q-100 0 -190 32t-163 89t-125.5 135.5t-76.5 170.5zM460 1567v-785h-338v785h338z" />
    <glyph glyph-name="imacron" unicode="&#x12b;" horiz-adv-x="584" 
d="M123 1567h338v-1567h-338v1567zM553 1918v-205h-563v205h563z" />
    <glyph glyph-name="iogonek" unicode="&#x12f;" horiz-adv-x="584" 
d="M111 -201q0 66 32.5 115.5t81.5 85.5h-102v1567h338v-1564l2 -3q-19 -10 -43.5 -24t-46.5 -31t-37 -38.5t-15 -46.5q0 -15 6.5 -25t17.5 -15.5t24.5 -7.5t28.5 -2q16 0 30.5 1t25.5 3v-232l-22 -2q-9 -1 -20.5 -1.5t-22.5 -0.5q-51 0 -100.5 12.5t-89 39.5t-64 68.5
t-24.5 100.5z" />
    <glyph glyph-name="itilde" unicode="&#x129;" horiz-adv-x="584" 
d="M123 0v1567h338v-1567h-338zM-75 1698q0 85 18 143.5t50 94.5t74 52t90 16q47 0 85.5 -17t70.5 -37t60 -37t54 -17q10 0 21.5 4.5t21.5 15t16.5 28t6.5 44.5h183q0 -88 -15.5 -147t-43.5 -94.5t-67.5 -50.5t-88.5 -15q-47 0 -88.5 17t-77 37t-65.5 37t-56 17
q-11 0 -23 -4.5t-22 -15t-16.5 -28t-6.5 -43.5h-181z" />
    <glyph glyph-name="jcircumflex" unicode="&#x135;" horiz-adv-x="792" 
d="M10 1280v287h669v-830q0 -144 -21 -268t-54.5 -228t-77 -190t-88.5 -153q-107 -158 -242 -263l-66 56q59 89 106 234q20 62 38.5 142.5t33.5 181t24 222.5t9 266v543h-331zM60 1770l423 382l425 -382l-101 -128l-324 188l-323 -188z" />
    <glyph glyph-name="uni0137" unicode="&#x137;" horiz-adv-x="1282" 
d="M123 0v1567h338v-848l408 848h350l-413 -857q0 -87 33.5 -167t91.5 -141.5t135 -98.5t165 -37v-286h-65q-90 0 -174 23t-159 64.5t-138 99.5t-111.5 128.5t-80 151.5t-42.5 167v-614h-338zM481 -234q0 35 13 65.5t35.5 53t53 35t66.5 12.5q35 0 63.5 -12.5t49.5 -35
t32.5 -53t11.5 -65.5q0 -45 -8.5 -92t-21.5 -92t-28 -87t-28 -77h-136l8 191q-50 17 -80.5 59.5t-30.5 97.5z" />
    <glyph glyph-name="lacute" unicode="&#x13a;" horiz-adv-x="923" 
d="M34 1567h338v-1280h510v-287h-848v1567zM10 1812l483 304l125 -252l-533 -193z" />
    <glyph glyph-name="lcaron" unicode="&#x13e;" horiz-adv-x="923" 
d="M34 1567h338v-1280h510v-287h-848v1567zM471 1452q0 35 12.5 65.5t35 53t53 35t66.5 12.5q35 0 63.5 -12.5t49.5 -35t32.5 -53t11.5 -65.5q0 -45 -8.5 -92t-21 -92t-27.5 -87t-28 -77h-137l9 190q-51 18 -81 60.5t-30 97.5z" />
    <glyph glyph-name="uni013C" unicode="&#x13c;" horiz-adv-x="923" 
d="M34 0v1567h338v-1280h510v-287h-848zM464 -68q35 0 63.5 -12.5t49.5 -35t32.5 -53t11.5 -65.5q0 -45 -8.5 -92t-21 -92t-27.5 -87t-28 -77h-137l9 191q-51 17 -81 59.5t-30 97.5q0 35 12.5 65.5t35 53t53 35t66.5 12.5z" />
    <glyph glyph-name="ldot" unicode="&#x140;" horiz-adv-x="923" 
d="M34 0v1567h338v-1280h510v-287h-848zM655 1231q41 0 77 -15t62 -41.5t41 -62t15 -76.5q0 -42 -15 -77.5t-41 -62t-62 -41.5t-77 -15q-42 0 -77.5 15t-62 41.5t-41.5 62t-15 77.5q0 41 15 76.5t41.5 62t62 41.5t77.5 15z" />
    <glyph glyph-name="lslash" unicode="&#x142;" horiz-adv-x="1027" 
d="M0 853l140 29v685h338v-615l249 52v-248l-249 -51v-418h508v-287h-846v633l-140 -29v249z" />
    <glyph glyph-name="eng" unicode="&#x14b;" horiz-adv-x="1463" 
d="M123 1597h32l847 -848v818h338v-1436q0 -134 -31 -223.5t-80 -145t-109 -83t-117.5 -38.5t-106 -10.5t-73.5 0.5l-2 104q18 0 38.5 3.5t40.5 16t38.5 37t32.5 65.5t22.5 101.5t8.5 145.5v166l-541 542v-812h-338v1597z" />
    <glyph glyph-name="nacute" unicode="&#x144;" horiz-adv-x="1463" 
d="M123 1597h34l845 -848v818h338v-1598h-36l-843 843v-812h-338v1597zM475 1812l483 304l124 -252l-532 -193z" />
    <glyph glyph-name="ncaron" unicode="&#x148;" horiz-adv-x="1463" 
d="M123 0v1597h34l845 -848v818h338v-1598h-36l-843 843v-812h-338zM314 2010l101 128l323 -186l324 186l100 -128l-424 -382z" />
    <glyph glyph-name="uni0146" unicode="&#x146;" horiz-adv-x="1463" 
d="M123 0v1597h34l845 -848v818h338v-1598h-36l-843 843v-812h-338zM608 -234q0 35 12.5 65.5t35 53t53 35t66.5 12.5q35 0 63.5 -12.5t48.5 -35t31.5 -53t11.5 -65.5q0 -45 -8.5 -92t-21 -92t-27 -87t-26.5 -77h-137l7 191q-49 17 -79 59.5t-30 97.5z" />
    <glyph glyph-name="ntilde" unicode="&#xf1;" horiz-adv-x="1463" 
d="M123 0v1597h34l845 -848v818h338v-1598h-36l-843 843v-812h-338zM352 1693q0 86 18.5 144.5t50 94.5t73.5 51.5t90 15.5q47 0 85.5 -16.5t70.5 -36.5t60 -36.5t54 -16.5q10 0 21.5 4.5t21.5 15t16.5 28t6.5 44.5h183q0 -88 -15.5 -147.5t-43.5 -94.5t-68 -50t-88 -15
t-89 16.5t-76.5 36t-65.5 36t-56 16.5q-11 0 -23 -4t-22 -14.5t-16.5 -28t-6.5 -43.5h-181z" />
    <glyph glyph-name="oacute" unicode="&#xf3;" 
d="M20 785q0 113 29 217t82.5 194.5t128 164.5t165 127t195 82t216.5 29q113 0 217 -29t194.5 -82t164.5 -127t127 -164.5t82 -194.5t29 -217q0 -112 -29 -216.5t-82 -195t-127 -165t-164.5 -128t-194.5 -82.5t-217 -29q-112 0 -216.5 29t-195 82.5t-165 128t-128 165
t-82.5 195t-29 216.5zM358 782q0 -109 37.5 -204.5t102.5 -167t152 -113t186 -41.5t185.5 41.5t151 113t102 167t37.5 204.5q0 110 -37.5 206.5t-102 168t-151 113t-185.5 41.5t-186 -41.5t-152 -113t-102.5 -168t-37.5 -206.5zM652 1812l483 304l125 -252l-533 -193z" />
    <glyph glyph-name="obreve" unicode="&#x14f;" 
d="M20 785q0 113 29 217t82.5 194.5t128 164.5t165 127t195 82t216.5 29q113 0 217 -29t194.5 -82t164.5 -127t127 -164.5t82 -194.5t29 -217q0 -112 -29 -216.5t-82 -195t-127 -165t-164.5 -128t-194.5 -82.5t-217 -29q-112 0 -216.5 29t-195 82.5t-165 128t-128 165
t-82.5 195t-29 216.5zM836 256q99 0 185.5 41.5t151 113t102 167t37.5 204.5q0 110 -37.5 206.5t-102 168t-151 113t-185.5 41.5t-186 -41.5t-152 -113t-102.5 -168t-37.5 -206.5q0 -109 37.5 -204.5t102.5 -167t152 -113t186 -41.5zM500 1946l200 109q15 -21 31 -40t35 -34
t41.5 -23.5t49.5 -8.5q26 0 47.5 8.5t40.5 23.5t35 34t30 40l205 -113q-21 -51 -57 -93.5t-83 -73.5t-102.5 -48t-115.5 -17q-61 0 -117.5 17.5t-103 49t-81.5 75t-55 94.5z" />
    <glyph glyph-name="ocircumflex" unicode="&#xf4;" 
d="M21 785q0 113 29 217t82 194t127.5 164.5t165.5 127.5t195 82t217 29t217 -29t194 -82t164.5 -127.5t127.5 -164.5t82 -194.5t29 -216.5q0 -113 -29 -217t-82 -195t-127.5 -165.5t-164.5 -127.5t-194.5 -82t-216.5 -29q-113 0 -217 29t-195 82t-165.5 127.5t-127.5 165.5
t-82 195t-29 217zM837 256q66 0 127 19t114 53t96 82t74 106.5t48 126t17 140.5t-17 140.5t-48 126t-74 106.5t-96 82t-114 53t-127 19q-99 0 -186.5 -41.5t-152 -112.5t-102 -167t-37.5 -206q0 -109 37.5 -205.5t102 -167.5t152 -112.5t186.5 -41.5zM412 1768l425 382
l423 -382l-101 -128l-322 188l-325 -188z" />
    <glyph glyph-name="odieresis" unicode="&#xf6;" 
d="M20 785q0 113 29 217t82.5 194.5t128 164.5t165 127t195 82t216.5 29q113 0 217 -29t194.5 -82t164.5 -127t127 -164.5t82 -194.5t29 -217q0 -112 -29 -216.5t-82 -195t-127 -165t-164.5 -128t-194.5 -82.5t-217 -29q-112 0 -216.5 29t-195 82.5t-165 128t-128 165
t-82.5 195t-29 216.5zM836 256q99 0 185.5 41.5t151 113t102 167t37.5 204.5q0 110 -37.5 206.5t-102 168t-151 113t-185.5 41.5t-186 -41.5t-152 -113t-102.5 -168t-37.5 -206.5q0 -109 37.5 -204.5t102.5 -167t152 -113t186 -41.5zM1051 2034q36 0 67 -13.5t54.5 -36.5
t36.5 -54t13 -66q0 -37 -13 -69t-36.5 -55t-54.5 -36.5t-67 -13.5t-67.5 13.5t-55 36.5t-36.5 55t-13 69q0 35 13 66t36.5 54t55 36.5t67.5 13.5zM621 2034q35 0 66 -13.5t54 -36.5t36 -54t13 -66q0 -37 -13 -69t-36 -55t-54 -36.5t-66 -13.5q-37 0 -69 13.5t-55 36.5
t-36.5 55t-13.5 69q0 35 13.5 66t36.5 54t55 36.5t69 13.5z" />
    <glyph glyph-name="ograve" unicode="&#xf2;" 
d="M20 785q0 113 29 217t82.5 194.5t128 164.5t165 127t195 82t216.5 29q113 0 217 -29t194.5 -82t164.5 -127t127 -164.5t82 -194.5t29 -217q0 -112 -29 -216.5t-82 -195t-127 -165t-164.5 -128t-194.5 -82.5t-217 -29q-112 0 -216.5 29t-195 82.5t-165 128t-128 165
t-82.5 195t-29 216.5zM836 256q99 0 185.5 41.5t151 113t102 167t37.5 204.5q0 110 -37.5 206.5t-102 168t-151 113t-185.5 41.5t-186 -41.5t-152 -113t-102.5 -168t-37.5 -206.5q0 -109 37.5 -204.5t102.5 -167t152 -113t186 -41.5zM481 2116l483 -304l-75 -141l-532 193z
" />
    <glyph glyph-name="ohungarumlaut" unicode="&#x151;" 
d="M20 785q0 113 29 217t82.5 194.5t128 164.5t165 127t195 82t216.5 29q113 0 217 -29t194.5 -82t164.5 -127t127 -164.5t82 -194.5t29 -217q0 -112 -29 -216.5t-82 -195t-127 -165t-164.5 -128t-194.5 -82.5t-217 -29q-112 0 -216.5 29t-195 82.5t-165 128t-128 165
t-82.5 195t-29 216.5zM836 256q99 0 185.5 41.5t151 113t102 167t37.5 204.5q0 110 -37.5 206.5t-102 168t-151 113t-185.5 41.5t-186 -41.5t-152 -113t-102.5 -168t-37.5 -206.5q0 -109 37.5 -204.5t102.5 -167t152 -113t186 -41.5zM1082 2140l198 -83l-224 -407h-182z
M596 1650l179 490l200 -83l-197 -407h-182z" />
    <glyph glyph-name="omacron" unicode="&#x14d;" 
d="M836 1599q113 0 217 -29t194.5 -82t164.5 -127t127 -164.5t82 -194.5t29 -217q0 -112 -29 -216.5t-82 -195t-127 -165t-164.5 -128t-194.5 -82.5t-217 -29q-112 0 -216.5 29t-195 82.5t-165 128t-128 165t-82.5 195t-29 216.5q0 113 29 217t82.5 194.5t128 164.5t165 127
t195 82t216.5 29zM836 256q99 0 185.5 41.5t151 113t102 167t37.5 204.5q0 110 -37.5 206.5t-102 168t-151 113t-185.5 41.5t-186 -41.5t-152 -113t-102.5 -168t-37.5 -206.5q0 -109 37.5 -204.5t102.5 -167t152 -113t186 -41.5zM546 1717v205h563v-205h-563z" />
    <glyph glyph-name="oslashacute" unicode="&#x1ff;" 
d="M20 785q0 113 29 217t82.5 194.5t128 164.5t165 127t195 82t216.5 29q40 0 78 -3t76 -11l61 176l232 -82l-61 -177q95 -52 174 -126.5t135.5 -167t87.5 -199.5t31 -224q0 -112 -29 -216.5t-82 -195t-127 -165t-164.5 -128t-194.5 -82.5t-217 -29q-75 0 -141 12l-60 -167
l-234 80l58 167q-98 51 -179 126t-138.5 168.5t-89.5 202.5t-32 227zM561 352l332 955q-14 2 -29 3t-28 1q-99 0 -186 -41.5t-152 -113t-102.5 -168t-37.5 -206.5q0 -67 14.5 -129t41 -117t64 -101.5t83.5 -82.5zM790 258q12 -2 22.5 -2h23.5q99 0 185.5 41.5t151 113
t102 167t37.5 204.5q0 65 -13.5 126.5t-38.5 116t-60.5 101t-79.5 82.5zM532 1812l483 304l125 -252l-532 -193z" />
    <glyph glyph-name="otilde" unicode="&#xf5;" 
d="M836 1599q113 0 217 -29t194.5 -82t164.5 -127t127 -164.5t82 -194.5t29 -217q0 -112 -29 -216.5t-82 -195t-127 -165t-164.5 -128t-194.5 -82.5t-217 -29q-112 0 -216.5 29t-195 82.5t-165 128t-128 165t-82.5 195t-29 216.5q0 113 29 217t82.5 194.5t128 164.5t165 127
t195 82t216.5 29zM358 782q0 -109 37.5 -204.5t102.5 -167t152 -113t186 -41.5t185.5 41.5t151 113t102 167t37.5 204.5q0 110 -37.5 206.5t-102 168t-151 113t-185.5 41.5t-186 -41.5t-152 -113t-102.5 -168t-37.5 -206.5zM689 1999q48 0 86 -16.5t70.5 -36.5t60 -36.5
t53.5 -16.5q10 0 22 4.5t22 15t16.5 28t6.5 44.5h182q0 -88 -15.5 -147.5t-43.5 -94.5t-67.5 -50t-88.5 -15q-47 0 -88 16.5t-76.5 36t-65.5 36t-56 16.5q-11 0 -23 -4t-22.5 -14.5t-17 -28t-6.5 -43.5h-181q0 86 18.5 144.5t50 94.5t73.5 51.5t90 15.5z" />
    <glyph glyph-name="racute" unicode="&#x155;" horiz-adv-x="1381" 
d="M591 1567q168 0 302.5 -52t229 -142t145.5 -212t51 -263q0 -79 -18 -153t-51 -140.5t-80.5 -124t-106.5 -103.5q17 -21 38.5 -41t46 -35.5t52.5 -25t58 -9.5v-286h-41q-73 0 -141 20t-127 55t-108.5 81.5t-86.5 100.5q-31 -4 -62 -7t-64 -3q-17 0 -39.5 1.5t-45.5 3.5
t-44.5 6t-37.5 8v-246h-338v1567h468zM461 1280v-756q18 -4 44.5 -9t67.5 -5q85 0 159.5 30.5t129.5 83t87 123.5t32 151q0 81 -30.5 151t-84.5 122t-128 82t-161 30q-22 0 -42.5 -0.5t-37.5 -0.5q-19 -1 -36 -2zM939 2118l124 -253l-532 -192l-77 141z" />
    <glyph glyph-name="rcaron" unicode="&#x159;" horiz-adv-x="1381" 
d="M123 1567h468q168 0 302.5 -52t229 -142t145.5 -212t51 -263q0 -79 -18 -153t-51 -140.5t-80.5 -124t-106.5 -103.5q17 -21 38.5 -41t46 -35.5t52.5 -25t58 -9.5v-286h-41q-73 0 -141 20t-127 55t-108.5 81.5t-86.5 100.5q-31 -4 -62 -7t-64 -3q-17 0 -39.5 1.5
t-45.5 3.5t-44.5 6t-37.5 8v-246h-338v1567zM461 1280v-756q18 -4 44.5 -9t67.5 -5q85 0 159.5 30.5t129.5 83t87 123.5t32 151q0 81 -30.5 151t-84.5 122t-128 82t-161 30q-22 0 -42.5 -0.5t-37.5 -0.5q-19 -1 -36 -2zM232 2026l99 126l324 -186l325 186l99 -126l-424 -384
z" />
    <glyph glyph-name="uni0157" unicode="&#x157;" horiz-adv-x="1381" 
d="M123 1567h468q168 0 302.5 -52t229 -142t145.5 -212t51 -263q0 -79 -18 -153t-51 -140.5t-80.5 -124t-106.5 -103.5q17 -21 38.5 -41t46 -35.5t52.5 -25t58 -9.5v-286h-41q-73 0 -141 20t-127 55t-108.5 81.5t-86.5 100.5q-31 -4 -62 -7t-64 -3q-17 0 -39.5 1.5
t-45.5 3.5t-44.5 6t-37.5 8v-246h-338v1567zM461 1280v-756q18 -4 44.5 -9t67.5 -5q85 0 159.5 30.5t129.5 83t87 123.5t32 151q0 81 -30.5 151t-84.5 122t-128 82t-161 30q-22 0 -42.5 -0.5t-37.5 -0.5q-19 -1 -36 -2zM713 -68q35 0 63.5 -12.5t49 -35t32 -53t11.5 -65.5
q0 -45 -8.5 -92t-21.5 -92t-27.5 -87t-26.5 -77h-138l8 191q-48 17 -79.5 59.5t-31.5 97.5q0 35 13 65.5t35.5 53t53.5 35t67 12.5z" />
    <glyph glyph-name="sacute" unicode="&#x15b;" horiz-adv-x="1422" 
d="M501 1812l483 304l125 -252l-533 -193zM664 -31q-118 0 -226 34.5t-198.5 96.5t-162 148.5t-116.5 190.5l305 122q26 -65 65.5 -121t90 -97t110.5 -64t127 -23q79 0 148.5 25t121.5 68t82 101.5t30 124.5t-23.5 121t-65.5 99q-35 37 -77 59t-87.5 36t-93 24t-94 23.5
t-89.5 34t-81 54.5q-40 37 -64.5 89.5t-24.5 130.5q0 73 32.5 137t88 111.5t130.5 75t159 27.5q54 0 107.5 -9.5t97.5 -29.5l-156 -235q-19 10 -42 10q-30 0 -54.5 -17t-24.5 -48q0 -22 11 -37t29 -26q30 -19 68 -24t77 -14q109 -27 203.5 -79t164 -127t109.5 -172.5
t40 -216.5q0 -126 -57 -236t-155 -191.5t-228 -128.5t-277 -47z" />
    <glyph glyph-name="scaron" unicode="&#x161;" horiz-adv-x="1422" 
d="M309 2026l101 126l324 -186l322 186l101 -126l-423 -384zM664 -31q-118 0 -226 34.5t-198.5 96.5t-162 148.5t-116.5 190.5l305 122q26 -65 65.5 -121t90 -97t110.5 -64t127 -23q79 0 148.5 25t121.5 68t82 101.5t30 124.5t-23.5 121t-65.5 99q-35 37 -77 59t-87.5 36
t-93 24t-94 23.5t-89.5 34t-81 54.5q-40 37 -64.5 89.5t-24.5 130.5q0 73 32.5 137t88 111.5t130.5 75t159 27.5q54 0 107.5 -9.5t97.5 -29.5l-156 -235q-19 10 -42 10q-30 0 -54.5 -17t-24.5 -48q0 -22 11 -37t29 -26q30 -19 68 -24t77 -14q109 -27 203.5 -79t164 -127
t109.5 -172.5t40 -216.5q0 -126 -57 -236t-155 -191.5t-228 -128.5t-277 -47z" />
    <glyph glyph-name="scedilla" unicode="&#x15f;" horiz-adv-x="1422" 
d="M521 -207q33 -14 59 -23t57 -19q15 -6 28 -6q18 0 29.5 9t15.5 22q8 20 -2 40t-39 30q-17 6 -34.5 13t-32.5 12q-18 7 -35 13l58 143h146l-17 -90q65 -20 96.5 -69t31.5 -112q0 -47 -16.5 -85t-46 -64t-69 -40t-86.5 -14q-26 0 -55.5 3.5t-59 10t-58 15.5t-52.5 20z
M664 -31q-118 0 -226 34.5t-198.5 96.5t-162 148.5t-116.5 190.5l305 122q26 -65 65.5 -121t90 -97t110.5 -64t127 -23q79 0 148.5 25t121.5 68t82 101.5t30 124.5t-23.5 121t-65.5 99q-35 37 -77 59t-87.5 36t-93 24t-94 23.5t-89.5 34t-81 54.5q-40 37 -64.5 89.5
t-24.5 130.5q0 73 32.5 137t88 111.5t130.5 75t159 27.5q54 0 107.5 -9.5t97.5 -29.5l-156 -235q-19 10 -42 10q-30 0 -54.5 -17t-24.5 -48q0 -22 11 -37t29 -26q30 -19 68 -24t77 -14q109 -27 203.5 -79t164 -127t109.5 -172.5t40 -216.5q0 -126 -57 -236t-155 -191.5
t-228 -128.5t-277 -47z" />
    <glyph glyph-name="scircumflex" unicode="&#x15d;" horiz-adv-x="1422" 
d="M268 1770l425 382l423 -382l-101 -128l-322 188l-324 -188zM664 -31q-118 0 -226 34.5t-198.5 96.5t-162 148.5t-116.5 190.5l305 122q26 -65 65.5 -121t90 -97t110.5 -64t127 -23q79 0 148.5 25t121.5 68t82 101.5t30 124.5t-23.5 121t-65.5 99q-35 37 -77 59t-87.5 36
t-93 24t-94 23.5t-89.5 34t-81 54.5q-40 37 -64.5 89.5t-24.5 130.5q0 73 32.5 137t88 111.5t130.5 75t159 27.5q54 0 107.5 -9.5t97.5 -29.5l-156 -235q-19 10 -42 10q-30 0 -54.5 -17t-24.5 -48q0 -22 11 -37t29 -26q30 -19 68 -24t77 -14q109 -27 203.5 -79t164 -127
t109.5 -172.5t40 -216.5q0 -126 -57 -236t-155 -191.5t-228 -128.5t-277 -47z" />
    <glyph glyph-name="uni0219" unicode="&#x219;" horiz-adv-x="1422" 
d="M510 -234q0 35 13 65.5t35.5 53t53 35t66.5 12.5q35 0 63.5 -12.5t48.5 -35t31.5 -53t11.5 -65.5q0 -45 -8.5 -92t-21 -92t-27.5 -87t-27 -77h-136l8 191q-50 17 -80.5 59.5t-30.5 97.5zM664 -31q-118 0 -226 34.5t-198.5 96.5t-162 148.5t-116.5 190.5l305 122
q26 -65 65.5 -121t90 -97t110.5 -64t127 -23q79 0 148.5 25t121.5 68t82 101.5t30 124.5t-23.5 121t-65.5 99q-35 37 -77 59t-87.5 36t-93 24t-94 23.5t-89.5 34t-81 54.5q-40 37 -64.5 89.5t-24.5 130.5q0 73 32.5 137t88 111.5t130.5 75t159 27.5q54 0 107.5 -9.5
t97.5 -29.5l-156 -235q-19 10 -42 10q-30 0 -54.5 -17t-24.5 -48q0 -22 11 -37t29 -26q30 -19 68 -24t77 -14q109 -27 203.5 -79t164 -127t109.5 -172.5t40 -216.5q0 -126 -57 -236t-155 -191.5t-228 -128.5t-277 -47z" />
    <glyph glyph-name="tbar" unicode="&#x167;" horiz-adv-x="1287" 
d="M1266 1567v-285h-460v-111h259v-246h-259v-925h-343v925h-270v246h270v111h-443v285h1246z" />
    <glyph glyph-name="tcaron" unicode="&#x165;" horiz-adv-x="1287" 
d="M1266 1566v-285h-461v-1281h-343v1281h-442v285h1246zM309 2158l324 -186l324 186l99 -128l-423 -382l-423 382z" />
    <glyph glyph-name="uni0162" unicode="&#x162;" horiz-adv-x="1287" 
d="M20 1282v285h1246v-285h-460v-1282h-96l-12 -63q66 -20 98 -69t32 -112q0 -47 -16.5 -85t-46 -64t-70 -40t-87.5 -14q-26 0 -55 3.5t-58.5 10t-58.5 15.5t-54 20l82 191q35 -14 61 -23t57 -19q15 -6 28 -6q18 0 29 9t16 22q8 20 -1.5 40t-39.5 30q-17 6 -34.5 13
t-32.5 12q-18 7 -35 13l48 116h-97v1282h-443z" />
    <glyph glyph-name="uacute" unicode="&#xfa;" horiz-adv-x="1703" 
d="M82 1567h338v-862q0 -99 34.5 -181.5t93.5 -142t139 -92.5t170 -33t167.5 33t135 92.5t90.5 142t33 181.5v862h338v-831q0 -190 -60 -333.5t-163.5 -240t-242.5 -145t-298 -48.5q-106 0 -205 21.5t-185 64.5t-157 107.5t-121.5 149.5t-78.5 191t-28 233v831zM1222 2111
l126 -251l-532 -193l-77 142z" />
    <glyph glyph-name="ubreve" unicode="&#x16d;" horiz-adv-x="1703" 
d="M82 1566h338v-861q0 -99 34.5 -181.5t93.5 -142t138.5 -92.5t169.5 -33t168 33t136 92.5t91.5 142t33.5 181.5v861h338v-831q0 -189 -60 -332.5t-164.5 -240t-244 -145t-298.5 -48.5t-300 48.5t-246.5 145t-166.5 240t-61 332.5v831zM500 1944l201 109q14 -21 30 -40
t35 -34t41 -23.5t49 -8.5q26 0 48 8.5t41 23.5t35 34t30 40l205 -113q-21 -51 -57 -93.5t-82.5 -73.5t-102.5 -48t-117 -17t-117 17.5t-102.5 49t-81.5 75t-55 94.5z" />
    <glyph glyph-name="ucircumflex" unicode="&#xfb;" horiz-adv-x="1703" 
d="M82 736v831h338v-862q0 -99 34.5 -181.5t93.5 -142t139 -92.5t170 -33t167.5 33t135 92.5t90.5 142t33 181.5v862h338v-831q0 -190 -60 -333.5t-163.5 -240t-242.5 -145t-298 -48.5q-106 0 -205 21.5t-185 64.5t-157 107.5t-121.5 149.5t-78.5 191t-28 233zM432 1765
l425 384l423 -384l-101 -127l-322 186l-325 -186z" />
    <glyph glyph-name="udieresis" unicode="&#xfc;" horiz-adv-x="1703" 
d="M420 1567v-862q0 -99 34.5 -181.5t93.5 -142t139 -92.5t170 -33t167.5 33t135 92.5t90.5 142t33 181.5v862h338v-831q0 -190 -60 -333.5t-163.5 -240t-242.5 -145t-298 -48.5q-106 0 -205 21.5t-185 64.5t-157 107.5t-121.5 149.5t-78.5 191t-28 233v831h338zM471 1862
q0 35 13.5 66t36.5 54t55 36t69 13q35 0 66.5 -13t54.5 -36t36.5 -54t13.5 -66q0 -37 -13.5 -69t-36.5 -55t-54.5 -36.5t-66.5 -13.5q-37 0 -69 13.5t-55 36.5t-36.5 55t-13.5 69zM1075 2031q36 0 67.5 -13t55 -36t37 -54t13.5 -66q0 -37 -13.5 -69t-37 -55t-55 -36.5
t-67.5 -13.5t-67 13.5t-54.5 36.5t-37 55t-13.5 69q0 35 13.5 66t37 54t54.5 36t67 13z" />
    <glyph glyph-name="ugrave" unicode="&#xf9;" horiz-adv-x="1703" 
d="M82 736v831h338v-862q0 -99 34.5 -181.5t93.5 -142t138 -92.5t169 -33t168.5 33t136.5 92.5t91 142t33 181.5v862h338v-831q0 -190 -60 -333.5t-164 -239.5t-244 -144.5t-299 -48.5t-299.5 48.5t-245.5 144.5t-166.5 239.5t-61.5 333.5zM490 2118l483 -304l-77 -141
l-532 193z" />
    <glyph glyph-name="uhungarumlaut" unicode="&#x171;" horiz-adv-x="1703" 
d="M82 1566h338v-861q0 -99 34.5 -181.5t93.5 -142t139 -92.5t170 -33t168 33t135.5 92.5t91 142t33.5 181.5v861h338v-831q0 -189 -60 -332.5t-164 -240t-243.5 -145t-298.5 -48.5q-106 0 -205 21.5t-185 64.5t-157 107.5t-121.5 149.5t-78.5 191t-28 232v831zM1101 2138
l198 -83l-224 -407h-182zM615 1648l179 490l200 -83l-197 -407h-182z" />
    <glyph glyph-name="umacron" unicode="&#x16b;" horiz-adv-x="1703" 
d="M420 1567v-862q0 -99 34.5 -181.5t94 -142t139 -92.5t168.5 -33q90 0 168 33t136 92.5t91.5 142t33.5 181.5v862h338v-831q0 -190 -60 -333.5t-164.5 -240t-244 -145t-298.5 -48.5t-299.5 48.5t-246 145t-167 240t-61.5 333.5v831h338zM577 1713v205h563v-205h-563z" />
    <glyph glyph-name="uogonek" unicode="&#x173;" horiz-adv-x="1703" 
d="M420 1567v-862q0 -99 34.5 -181.5t93.5 -142t139 -92.5t170 -33t167.5 33t135 92.5t90.5 142t33 181.5v862h338v-831q0 -181 -54.5 -320t-150 -235t-225 -149t-278.5 -61v-2q-18 -10 -42.5 -24t-46.5 -31t-37.5 -38.5t-15.5 -46.5q0 -15 6.5 -25t17.5 -15.5t25 -7.5
t29 -2t30 1t26 3v-232l-22 -2q-9 0 -20.5 -0.5t-22.5 -0.5q-51 0 -100.5 12.5t-89.5 39.5t-64.5 68.5t-24.5 99.5q0 36 10.5 67t28.5 57.5t42.5 48.5t52.5 40q-131 23 -243 81.5t-194.5 153t-129 225t-46.5 295.5v831h338z" />
    <glyph glyph-name="uring" unicode="&#x16f;" horiz-adv-x="1703" 
d="M420 1566v-861q0 -99 34.5 -181.5t94 -142t139 -92.5t169.5 -33t168 33t135.5 92.5t91 142t33.5 181.5v861h338v-831q0 -190 -60 -333.5t-164 -239.5t-243.5 -144.5t-298.5 -48.5t-299.5 48.5t-246.5 144.5t-167.5 239.5t-61.5 333.5v831h338zM857 2229q60 0 113.5 -23.5
t93.5 -63.5t63.5 -93.5t23.5 -113.5q0 -61 -24 -114t-64.5 -92t-93.5 -61.5t-112 -22.5q-61 0 -114 22.5t-92 61.5t-61.5 92t-22.5 114q0 60 22.5 113.5t61.5 93.5t92 63.5t114 23.5zM857 1831q22 0 41 8t33 21.5t22 33t8 41.5q0 44 -30 74t-74 30q-22 0 -41.5 -8t-33 -22
t-21.5 -33t-8 -41q0 -45 29.5 -74.5t74.5 -29.5z" />
    <glyph glyph-name="utilde" unicode="&#x169;" horiz-adv-x="1703" 
d="M420 1567v-864q0 -98 34.5 -180t94 -141.5t139 -92.5t169.5 -33t168 33t136 92.5t91.5 141.5t33.5 180v864h338v-833q0 -189 -60.5 -332.5t-164.5 -239.5t-243.5 -144.5t-298.5 -48.5q-106 0 -205 21.5t-185 64.5t-157 107t-121.5 149t-78.5 191t-28 232v833h338z
M501 1686q0 86 18.5 144.5t50 94.5t74 51.5t90.5 15.5q47 0 85 -16.5t70 -36.5t59.5 -36.5t53.5 -16.5q11 0 23 4.5t22.5 15t17 28t6.5 44.5h180q0 -88 -15.5 -147.5t-43.5 -94.5t-67.5 -50t-88.5 -15q-47 0 -88 16.5t-76.5 36t-65.5 36t-56 16.5q-10 0 -22 -4t-22 -14.5
t-16.5 -28t-6.5 -43.5h-182z" />
    <glyph glyph-name="wacute" unicode="&#x1e83;" horiz-adv-x="1702" 
d="M335 1567l204 -676l45 -167h8l249 629h21l251 -629h7l46 167l203 676h365l-505 -1598h-132l-245 642l-241 -642h-131l-512 1598h367zM1116 2116l125 -252l-533 -193l-75 141z" />
    <glyph glyph-name="wcircumflex" unicode="&#x175;" horiz-adv-x="1702" 
d="M-32 1567h367l204 -676l45 -167h8l249 629h21l251 -629h7l46 167l203 676h365l-505 -1598h-132l-245 642l-241 -642h-131zM389 1765l423 384l425 -384l-100 -127l-325 186l-322 -186z" />
    <glyph glyph-name="wdieresis" unicode="&#x1e85;" horiz-adv-x="1702" 
d="M335 1567l204 -676l45 -167h8l249 629h21l251 -629h7l46 167l203 676h365l-505 -1598h-132l-245 642l-241 -642h-131l-512 1598h367zM601 2034q35 0 66 -13.5t54 -36.5t36 -54t13 -66q0 -37 -13 -69t-36 -55t-54 -36.5t-66 -13.5q-37 0 -69 13.5t-55 36.5t-36.5 55
t-13.5 69q0 35 13.5 66t36.5 54t55 36.5t69 13.5zM858 1864q0 35 13.5 66t36.5 54t55 36.5t68 13.5t67 -13.5t54 -36.5t36 -54t13 -66q0 -37 -13 -69t-36 -55t-54 -36.5t-67 -13.5t-68 13.5t-55 36.5t-36.5 55t-13.5 69z" />
    <glyph glyph-name="wgrave" unicode="&#x1e81;" horiz-adv-x="1702" 
d="M-32 1567h367l204 -676l45 -167h8l249 629h21l251 -629h7l46 167l203 676h365l-505 -1598h-132l-245 642l-241 -642h-131zM481 2116l483 -304l-75 -141l-532 193z" />
    <glyph glyph-name="yacute" unicode="&#xfd;" horiz-adv-x="1157" 
d="M329 1566l251 -486l248 486h350l-430 -790v-776h-338v775l-430 791h349zM918 2114l125 -252l-533 -193l-76 141z" />
    <glyph glyph-name="ydieresis" unicode="&#xff;" horiz-adv-x="1157" 
d="M-21 1567h352l249 -488l248 488h350l-431 -790v-777h-337v775zM794 2034q36 0 67 -13.5t54.5 -36.5t37 -54t13.5 -66q0 -37 -13.5 -69t-37 -55t-54.5 -36.5t-67 -13.5q-37 0 -68.5 13.5t-54.5 36.5t-36.5 55t-13.5 69q0 35 13.5 66t36.5 54t54.5 36.5t68.5 13.5z
M363 2034q35 0 66 -13.5t54 -36.5t36 -54t13 -66q0 -37 -13 -69t-36 -55t-54 -36.5t-66 -13.5q-37 0 -69 13.5t-55 36.5t-36.5 55t-13.5 69q0 35 13.5 66t36.5 54t55 36.5t69 13.5z" />
    <glyph glyph-name="ygrave" unicode="&#x1ef3;" horiz-adv-x="1157" 
d="M329 1567l251 -488l248 488h350l-430 -790v-777h-338v775l-430 792h349zM73 1864l125 252l485 -304l-77 -141z" />
    <glyph glyph-name="zacute" unicode="&#x17a;" horiz-adv-x="1046" 
d="M985 287v-287h-944l485 1280h-444v287h903l-482 -1280h482zM275 1812l483 304l124 -252l-532 -193z" />
    <glyph glyph-name="zcaron" unicode="&#x17e;" horiz-adv-x="1046" 
d="M985 287v-287h-944l485 1280h-444v287h903l-482 -1280h482zM111 2026l101 126l322 -186l324 186l101 -126l-425 -384z" />
    <glyph glyph-name="zdotaccent" unicode="&#x17c;" horiz-adv-x="1046" 
d="M526 1280h-444v287h903l-482 -1280h482v-287h-944zM534 2039q41 0 76.5 -15t62 -41t41.5 -61.5t15 -76.5q0 -42 -15 -77.5t-41.5 -62t-62 -41.5t-76.5 -15q-42 0 -77.5 15t-62 41.5t-41.5 62t-15 77.5q0 41 15 76.5t41.5 61.5t62 41t77.5 15z" />
    <glyph glyph-name="onequarter" unicode="&#xbc;" horiz-adv-x="1731" 
d="M266 -49l867 1780l167 -91l-867 -1777zM833 154l425 786h230l-333 -614h200v154h203v-154h89v-172h-89v-154h-203v154h-522zM82 1567h304v-941h-203v768h-101v173z" />
    <glyph glyph-name="onehalf" unicode="&#xbd;" horiz-adv-x="1841" 
d="M1051 635q0 66 27 125t73.5 103.5t109 70t132.5 25.5q72 0 134.5 -25.5t109 -70t73.5 -103.5t27 -125q0 -60 -22.5 -112t-57.5 -96q-16 -21 -39 -51.5t-47.5 -62.5t-48 -61t-39.5 -47q-6 -8 -11.5 -14t-10.5 -10l-9 -9h287v-172h-676q83 102 162 198q33 41 69 85t70.5 87
t66.5 82t57 70q20 23 33 51.5t13 61.5q0 31 -11 58.5t-30 48.5t-45 33t-55 12q-28 0 -53.5 -12t-44.5 -33t-30.5 -48.5t-11.5 -58.5h-202zM266 -49l867 1780l167 -91l-867 -1777zM82 1567h304v-941h-203v768h-101v173z" />
    <glyph glyph-name="threequarters" unicode="&#xbe;" horiz-adv-x="1995" 
d="M1396 1731l169 -91l-867 -1777l-167 88zM82 932h203q0 -31 11 -58.5t30 -48.5t44 -33t53 -12q30 0 55.5 12t45 33t30.5 48.5t11 58.5q0 45 -15 75.5t-40.5 49t-59.5 27t-73 8.5l96 302h-340v173h611l-140 -359q75 -41 119.5 -113.5t44.5 -162.5q0 -67 -27 -126t-74 -103
t-109.5 -69.5t-134.5 -25.5q-70 0 -132 25.5t-108.5 69.5t-73.5 103t-27 126zM1522 940h231l-333 -614h200v154h203v-154h88v-172h-88v-154h-203v154h-523z" />
    <glyph glyph-name="oslash" unicode="&#xf8;" 
d="M20 785q0 113 29 217t82.5 194.5t128 164.5t165 127t195 82t216.5 29q40 0 78 -3t76 -11l61 176l232 -82l-61 -177q95 -52 174 -126.5t135.5 -167t87.5 -199.5t31 -224q0 -112 -29 -216.5t-82 -195t-127 -165t-164.5 -128t-194.5 -82.5t-217 -29q-75 0 -141 12l-60 -167
l-234 80l58 167q-98 51 -179 126t-138.5 168.5t-89.5 202.5t-32 227zM561 352l332 955q-14 2 -29 3t-28 1q-99 0 -186 -41.5t-152 -113t-102.5 -168t-37.5 -206.5q0 -67 14.5 -129t41 -117t64 -101.5t83.5 -82.5zM790 258q12 -2 22.5 -2h23.5q99 0 185.5 41.5t151 113
t102 167t37.5 204.5q0 65 -13.5 126.5t-38.5 116t-60.5 101t-79.5 82.5z" />
    <glyph glyph-name="Oslash" unicode="&#xd8;" 
d="M836 1599q40 0 78 -3t76 -11l61 176l232 -82l-61 -177q95 -52 174 -126.5t135.5 -167t87.5 -199.5t31 -224q0 -112 -29 -216.5t-82 -195t-127 -165t-164.5 -128t-194.5 -82.5t-217 -29q-75 0 -141 12l-60 -167l-234 80l58 167q-98 51 -179 126t-138.5 168.5t-89.5 202.5
t-32 227q0 113 29 217t82.5 194.5t128 164.5t165 127t195 82t216.5 29zM561 352l332 955q-14 2 -29 3t-28 1q-99 0 -186 -41.5t-152 -113t-102.5 -168t-37.5 -206.5q0 -67 14.5 -129t41 -117t64 -101.5t83.5 -82.5zM790 258q12 -2 22.5 -2h23.5q99 0 185.5 41.5t151 113
t102 167t37.5 204.5q0 65 -13.5 126.5t-38.5 116t-60.5 101t-79.5 82.5z" />
    <glyph glyph-name="uniE999" unicode="&#xe999;" horiz-adv-x="1044" 
d="M870 1731l168 -91l-866 -1777l-169 88z" />
    <glyph glyph-name="quotedbl" unicode="&#x22;" horiz-adv-x="655" 
d="M290 1649l-27 -563h-161l-29 563h217zM367 1649h217l-29 -563h-159z" />
    <glyph glyph-name="uni00A0" unicode="&#xa0;" horiz-adv-x="1046" 
 />
    <glyph glyph-name="uniE001" unicode="&#xe001;" horiz-adv-x="1483" 
d="M82 451q0 81 24.5 144.5t67 115.5t99 95t120.5 83q-31 35 -60.5 70.5t-53 74.5t-38 83.5t-14.5 97.5q0 80 32.5 149.5t89 122t132.5 82.5t162 30t161.5 -30t132 -82.5t89 -122t32.5 -149.5q0 -63 -18.5 -116t-51 -98t-75.5 -83t-92 -71l264 -270l239 215l193 -212
l-234 -205l205 -209l-211 -197q-60 69 -108.5 122t-89.5 95q-46 -42 -95 -81t-102 -69t-112 -48.5t-125 -18.5q-120 0 -223 38t-178.5 103.5t-118.5 153.5t-43 187zM642 256q32 0 61.5 11t58.5 29t57.5 42t57.5 49q-33 32 -62 61t-60.5 63t-69.5 76t-91 99q-31 -19 -62 -42
t-56.5 -51t-41.5 -61t-16 -73q0 -42 15.5 -79t44 -64.5t70.5 -43.5t94 -16zM519 1205q0 -27 11 -50.5t28.5 -44.5t38.5 -40t41 -37q21 16 45.5 33.5t45.5 38.5t35 45.5t14 54.5q0 27 -10.5 50.5t-28 40.5t-41.5 27t-51 10q-26 0 -49.5 -10t-41 -27t-27.5 -40.5t-10 -50.5z
" />
    <glyph glyph-name="A.salt" horiz-adv-x="1289" 
d="M616 1597h58l635 -1597h-358l-99 278l-190 -300h-29l-194 300l-101 -278h-358zM444 299h399l-133 377l-56 188h-17l-57 -188z" />
    <glyph glyph-name="_0017" horiz-adv-x="0" 
 />
    <glyph glyph-name="_0000" horiz-adv-x="0" 
 />
    <glyph glyph-name="_0019" horiz-adv-x="0" 
 />
    <glyph glyph-name="S.calt" horiz-adv-x="1278" 
d="M61 474h338q-1 -52 16.5 -92t49 -67.5t73.5 -42t90 -14.5q49 0 91.5 14.5t75 40t51.5 60.5t21 76q3 44 -18.5 77.5t-57.5 59.5t-82.5 44.5t-94.5 33.5t-92.5 26.5t-77.5 22.5q-74 26 -139.5 60t-114 84.5t-77 121.5t-28.5 171q0 98 47.5 180t128.5 141t188 92.5t225 33.5
q112 0 209 -37t168.5 -103.5t110.5 -159.5t36 -205h-319q1 58 -18.5 99.5t-52 68t-75 39t-86.5 12.5q-42 0 -82.5 -11t-72 -31t-50.5 -48.5t-19 -63.5q-1 -43 21 -76t58.5 -58t83 -44t94 -34t91.5 -27t76 -24q75 -25 141 -60t115 -88t77 -128t25 -181q-3 -109 -51 -195.5
t-128 -147t-185.5 -93t-224.5 -32.5q-118 0 -221 37t-178 104t-117 159.5t-39 204.5z" />
    <glyph glyph-name="N.calt" horiz-adv-x="1463" 
d="M123 1567h297l582 -920v920h338v-1567h-297l-582 915v-915h-338v1567z" />
    <glyph glyph-name="_0024" horiz-adv-x="0" 
 />
    <glyph glyph-name="_0001" horiz-adv-x="0" 
 />
    <glyph glyph-name="_0226" horiz-adv-x="0" 
 />
    <glyph glyph-name="florin" unicode="&#x192;" horiz-adv-x="973" 
d="M0 -459q60 89 107 234q20 62 39 142.5t34 181t24 222.5t9 266v44h-107v287h107v137q0 74 19.5 142.5t55 129t85.5 110t111 85.5t131 55.5t146 19.5q62 0 112.5 -12t99.5 -32l-109 -263q-42 21 -93 21q-45 0 -85 -17.5t-70 -48t-47.5 -71t-17.5 -85.5v-171h193v-287h-193
v-44q0 -144 -21 -268t-54.5 -228t-77 -190t-88.5 -153q-107 -157 -242 -262z" />
    <glyph glyph-name="logicalnot" unicode="&#xac;" horiz-adv-x="1159" 
d="M1015 626v-558h-245v313h-627v245h872z" />
    <glyph glyph-name="uni021B" unicode="&#x21b;" horiz-adv-x="1287" 
d="M20 1567h1246v-285h-461v-1282h-343v1282h-442v285zM481 -234q0 35 12.5 65.5t35 53t53 35t66.5 12.5q35 0 63.5 -12.5t49.5 -35t32.5 -53t11.5 -65.5q0 -45 -8.5 -92t-21 -92t-27.5 -87t-28 -77h-137l9 191q-51 17 -81 59.5t-30 97.5z" />
    </font>
</defs>
</svg>
